<ttFont>
<head>
    <!-- Most of this table will be recalculated by the compiler -->
    <tableVersion value="1.0"/>
    <fontRevision value="10.034"/>
    <checkSumAdjustment value="0x4be12fc2"/>
    <magicNumber value="0x5f0f3cf5"/>
    <flags value="00000000 00011111"/>
    <unitsPerEm value="1000"/>
    <created value="Fri Nov 12 14:22:48 2021"/>
    <modified value="Mon Dec 13 14:23:18 2021"/>
    <xMin value="-736"/>
    <yMin value="-252"/>
    <xMax value="1452"/>
    <yMax value="1193"/>
    <macStyle value="00000000 00000010"/>
    <lowestRecPPEM value="8"/>
    <fontDirectionHint value="2"/>
    <indexToLocFormat value="1"/>
    <glyphDataFormat value="0"/>
  </head>
    <TTGlyph name=".notdef" xMin="0" yMin="0" xMax="609" yMax="735">
      <contour>
        <pt x="0" y="0" on="1"/>
        <pt x="122" y="735" on="1"/>
        <pt x="609" y="735" on="1"/>
        <pt x="487" y="0" on="1"/>
      </contour>
      <contour>
        <pt x="45" y="39" on="1"/>
        <pt x="119" y="39" on="1"/>
        <pt x="371" y="410" on="1"/>
        <pt x="564" y="695" on="1"/>
        <pt x="564" y="696" on="1"/>
        <pt x="452" y="696" on="1"/>
        <pt x="58" y="114" on="1"/>
      </contour>
      <contour>
        <pt x="70" y="187" on="1"/>
        <pt x="414" y="696" on="1"/>
        <pt x="302" y="696" on="1"/>
        <pt x="106" y="407" on="1"/>
      </contour>
      <contour>
        <pt x="118" y="481" on="1"/>
        <pt x="264" y="696" on="1"/>
        <pt x="154" y="696" on="1"/>
      </contour>
      <contour>
        <pt x="269" y="39" on="1"/>
        <pt x="515" y="402" on="1"/>
        <pt x="551" y="622" on="1"/>
        <pt x="157" y="39" on="1"/>
      </contour>
      <contour>
        <pt x="419" y="39" on="1"/>
        <pt x="466" y="108" on="1"/>
        <pt x="503" y="328" on="1"/>
        <pt x="406" y="186" on="1"/>
        <pt x="307" y="39" on="1"/>
      </contour>
    </TTGlyph>
    <TTGlyph name="A" xMin="-19" yMin="0" xMax="506" yMax="735">
      <contour>
        <pt x="-19" y="0" on="1"/>
        <pt x="313" y="735" on="1"/>
        <pt x="417" y="735" on="1"/>
        <pt x="506" y="0" on="1"/>
        <pt x="412" y="0" on="1"/>
        <pt x="393" y="186" on="1"/>
        <pt x="156" y="186" on="1"/>
        <pt x="76" y="0" on="1"/>
      </contour>
      <contour>
        <pt x="191" y="265" on="1"/>
        <pt x="384" y="265" on="1"/>
        <pt x="361" y="490" on="1"/>
        <pt x="358" y="525" on="0"/>
        <pt x="351" y="594" on="0"/>
        <pt x="348" y="629" on="1"/>
        <pt x="333" y="594" on="0"/>
        <pt x="303" y="525" on="0"/>
        <pt x="288" y="490" on="1"/>
      </contour>
    </TTGlyph>
    <TTGlyph name="AE" xMin="-19" yMin="0" xMax="609" yMax="735">
      <contour>
        <pt x="-19" y="0" on="1"/>
        <pt x="298" y="735" on="1"/>
        <pt x="609" y="735" on="1"/>
        <pt x="596" y="656" on="1"/>
        <pt x="420" y="656" on="1"/>
        <pt x="381" y="422" on="1"/>
        <pt x="537" y="422" on="1"/>
        <pt x="524" y="343" on="1"/>
        <pt x="368" y="343" on="1"/>
        <pt x="325" y="79" on="1"/>
        <pt x="500" y="79" on="1"/>
        <pt x="487" y="0" on="1"/>
        <pt x="221" y="0" on="1"/>
        <pt x="252" y="186" on="1"/>
        <pt x="150" y="186" on="1"/>
        <pt x="73" y="0" on="1"/>
      </contour>
      <contour>
        <pt x="183" y="265" on="1"/>
        <pt x="265" y="265" on="1"/>
        <pt x="320" y="598" on="1"/>
        <pt x="309" y="571" on="0"/>
        <pt x="287" y="517" on="0"/>
        <pt x="276" y="490" on="1"/>
      </contour>
    </TTGlyph>
    <TTGlyph name="AEacute" xMin="-19" yMin="0" xMax="1209" yMax="983">
      <component glyphName="A" x="0" y="0" flags="0x1004"/>
      <component glyphName="E" x="600" y="0" flags="0x1004"/>
      <component glyphName="acutecomb" x="900" y="200" flags="0x1004"/>
    </TTGlyph>
    <TTGlyph name="Aacute" xMin="-19" yMin="0" xMax="534" yMax="988">
      <component glyphName="A" x="0" y="0" flags="0x1000"/>
      <component glyphName="acutecomb" x="634" y="205" flags="0x1000"/>
    </TTGlyph>
    <TTGlyph name="Abreve" xMin="-19" yMin="0" xMax="567" yMax="955">
      <contour>
        <pt x="379" y="815" on="1"/>
        <pt x="358" y="815" on="0"/>
        <pt x="318" y="820" on="0"/>
        <pt x="282" y="835" on="0"/>
        <pt x="253" y="860" on="0"/>
        <pt x="236" y="894" on="0"/>
        <pt x="233" y="935" on="0"/>
        <pt x="237" y="955" on="1"/>
        <pt x="327" y="955" on="1"/>
        <pt x="325" y="942" on="0"/>
        <pt x="332" y="916" on="0"/>
        <pt x="352" y="900" on="0"/>
        <pt x="378" y="894" on="0"/>
        <pt x="392" y="894" on="1"/>
        <pt x="406" y="894" on="0"/>
        <pt x="434" y="900" on="0"/>
        <pt x="458" y="916" on="0"/>
        <pt x="474" y="941" on="0"/>
        <pt x="477" y="955" on="1"/>
        <pt x="567" y="955" on="1"/>
        <pt x="564" y="934" on="0"/>
        <pt x="547" y="894" on="0"/>
        <pt x="519" y="860" on="0"/>
        <pt x="482" y="835" on="0"/>
        <pt x="441" y="820" on="0"/>
        <pt x="399" y="815" on="0"/>
      </contour>
      <contour>
        <pt x="-19" y="0" on="1"/>
        <pt x="313" y="735" on="1"/>
        <pt x="417" y="735" on="1"/>
        <pt x="506" y="0" on="1"/>
        <pt x="412" y="0" on="1"/>
        <pt x="393" y="186" on="1"/>
        <pt x="156" y="186" on="1"/>
        <pt x="76" y="0" on="1"/>
      </contour>
      <contour>
        <pt x="191" y="265" on="1"/>
        <pt x="384" y="265" on="1"/>
        <pt x="361" y="490" on="1"/>
        <pt x="358" y="525" on="0"/>
        <pt x="351" y="594" on="0"/>
        <pt x="348" y="629" on="1"/>
        <pt x="333" y="594" on="0"/>
        <pt x="303" y="525" on="0"/>
        <pt x="288" y="490" on="1"/>
      </contour>
    </TTGlyph>
    <TTGlyph name="Acircumflex" xMin="-19" yMin="0" xMax="563" yMax="980">
      <contour>
        <pt x="270" y="791" on="1"/>
        <pt x="203" y="855" on="1"/>
        <pt x="356" y="980" on="1"/>
        <pt x="456" y="980" on="1"/>
        <pt x="563" y="849" on="1"/>
        <pt x="484" y="797" on="1"/>
        <pt x="397" y="921" on="1"/>
      </contour>
      <contour>
        <pt x="-19" y="0" on="1"/>
        <pt x="313" y="735" on="1"/>
        <pt x="417" y="735" on="1"/>
        <pt x="506" y="0" on="1"/>
        <pt x="412" y="0" on="1"/>
        <pt x="393" y="186" on="1"/>
        <pt x="156" y="186" on="1"/>
        <pt x="76" y="0" on="1"/>
      </contour>
      <contour>
        <pt x="191" y="265" on="1"/>
        <pt x="384" y="265" on="1"/>
        <pt x="361" y="490" on="1"/>
        <pt x="358" y="525" on="0"/>
        <pt x="351" y="594" on="0"/>
        <pt x="348" y="629" on="1"/>
        <pt x="333" y="594" on="0"/>
        <pt x="303" y="525" on="0"/>
        <pt x="288" y="490" on="1"/>
      </contour>
    </TTGlyph>
    <TTGlyph name="Adieresis" xMin="-19" yMin="0" xMax="558" yMax="951">
      <contour>
        <pt x="490" y="819" on="1"/>
        <pt x="474" y="819" on="0"/>
        <pt x="445" y="830" on="0"/>
        <pt x="428" y="854" on="0"/>
        <pt x="423" y="885" on="0"/>
        <pt x="425" y="901" on="1"/>
        <pt x="427" y="912" on="0"/>
        <pt x="438" y="932" on="0"/>
        <pt x="457" y="946" on="0"/>
        <pt x="479" y="951" on="0"/>
        <pt x="490" y="951" on="1"/>
        <pt x="506" y="951" on="0"/>
        <pt x="535" y="940" on="0"/>
        <pt x="553" y="916" on="0"/>
        <pt x="558" y="885" on="0"/>
        <pt x="555" y="869" on="1"/>
        <pt x="553" y="858" on="0"/>
        <pt x="542" y="838" on="0"/>
        <pt x="523" y="824" on="0"/>
        <pt x="501" y="819" on="0"/>
      </contour>
      <contour>
        <pt x="290" y="819" on="1"/>
        <pt x="274" y="819" on="0"/>
        <pt x="245" y="830" on="0"/>
        <pt x="228" y="854" on="0"/>
        <pt x="223" y="885" on="0"/>
        <pt x="225" y="901" on="1"/>
        <pt x="227" y="912" on="0"/>
        <pt x="238" y="932" on="0"/>
        <pt x="257" y="946" on="0"/>
        <pt x="279" y="951" on="0"/>
        <pt x="290" y="951" on="1"/>
        <pt x="306" y="951" on="0"/>
        <pt x="335" y="940" on="0"/>
        <pt x="353" y="916" on="0"/>
        <pt x="358" y="885" on="0"/>
        <pt x="355" y="869" on="1"/>
        <pt x="353" y="858" on="0"/>
        <pt x="342" y="838" on="0"/>
        <pt x="323" y="824" on="0"/>
        <pt x="301" y="819" on="0"/>
      </contour>
      <contour>
        <pt x="-19" y="0" on="1"/>
        <pt x="313" y="735" on="1"/>
        <pt x="417" y="735" on="1"/>
        <pt x="506" y="0" on="1"/>
        <pt x="412" y="0" on="1"/>
        <pt x="393" y="186" on="1"/>
        <pt x="156" y="186" on="1"/>
        <pt x="76" y="0" on="1"/>
      </contour>
      <contour>
        <pt x="191" y="265" on="1"/>
        <pt x="384" y="265" on="1"/>
        <pt x="361" y="490" on="1"/>
        <pt x="358" y="525" on="0"/>
        <pt x="351" y="594" on="0"/>
        <pt x="348" y="629" on="1"/>
        <pt x="333" y="594" on="0"/>
        <pt x="303" y="525" on="0"/>
        <pt x="288" y="490" on="1"/>
      </contour>
    </TTGlyph>
    <TTGlyph name="Agrave" xMin="-19" yMin="0" xMax="506" yMax="983">
      <contour>
        <pt x="392" y="792" on="1"/>
        <pt x="264" y="927" on="1"/>
        <pt x="339" y="983" on="1"/>
        <pt x="453" y="838" on="1"/>
      </contour>
      <contour>
        <pt x="-19" y="0" on="1"/>
        <pt x="313" y="735" on="1"/>
        <pt x="417" y="735" on="1"/>
        <pt x="506" y="0" on="1"/>
        <pt x="412" y="0" on="1"/>
        <pt x="393" y="186" on="1"/>
        <pt x="156" y="186" on="1"/>
        <pt x="76" y="0" on="1"/>
      </contour>
      <contour>
        <pt x="191" y="265" on="1"/>
        <pt x="384" y="265" on="1"/>
        <pt x="361" y="490" on="1"/>
        <pt x="358" y="525" on="0"/>
        <pt x="351" y="594" on="0"/>
        <pt x="348" y="629" on="1"/>
        <pt x="333" y="594" on="0"/>
        <pt x="303" y="525" on="0"/>
        <pt x="288" y="490" on="1"/>
      </contour>
    </TTGlyph>
    <TTGlyph name="Amacron" xMin="-19" yMin="0" xMax="540" yMax="925">
      <contour>
        <pt x="540" y="845" on="1"/>
        <pt x="240" y="845" on="1"/>
        <pt x="240" y="925" on="1"/>
        <pt x="540" y="925" on="1"/>
      </contour>
      <contour>
        <pt x="-19" y="0" on="1"/>
        <pt x="313" y="735" on="1"/>
        <pt x="417" y="735" on="1"/>
        <pt x="506" y="0" on="1"/>
        <pt x="412" y="0" on="1"/>
        <pt x="393" y="186" on="1"/>
        <pt x="156" y="186" on="1"/>
        <pt x="76" y="0" on="1"/>
      </contour>
      <contour>
        <pt x="191" y="265" on="1"/>
        <pt x="384" y="265" on="1"/>
        <pt x="361" y="490" on="1"/>
        <pt x="358" y="525" on="0"/>
        <pt x="351" y="594" on="0"/>
        <pt x="348" y="629" on="1"/>
        <pt x="333" y="594" on="0"/>
        <pt x="303" y="525" on="0"/>
        <pt x="288" y="490" on="1"/>
      </contour>
    </TTGlyph>
    <TTGlyph name="Aogonek" xMin="-19" yMin="-193" xMax="530" yMax="735">
      <contour>
        <pt x="-19" y="0" on="1"/>
        <pt x="313" y="735" on="1"/>
        <pt x="417" y="735" on="1"/>
        <pt x="506" y="0" on="1"/>
        <pt x="448" y="0" on="1"/>
        <pt x="454" y="39" on="1"/>
        <pt x="443" y="39" on="0"/>
        <pt x="420" y="36" on="0"/>
        <pt x="408" y="33" on="1"/>
        <pt x="393" y="186" on="1"/>
        <pt x="156" y="186" on="1"/>
        <pt x="76" y="0" on="1"/>
      </contour>
      <contour>
        <pt x="191" y="265" on="1"/>
        <pt x="384" y="265" on="1"/>
        <pt x="361" y="490" on="1"/>
        <pt x="358" y="525" on="0"/>
        <pt x="351" y="594" on="0"/>
        <pt x="348" y="629" on="1"/>
        <pt x="333" y="594" on="0"/>
        <pt x="303" y="525" on="0"/>
        <pt x="288" y="490" on="1"/>
      </contour>
      <contour>
        <pt x="441" y="-193" on="1"/>
        <pt x="423" y="-193" on="0"/>
        <pt x="389" y="-189" on="0"/>
        <pt x="359" y="-177" on="0"/>
        <pt x="333" y="-156" on="0"/>
        <pt x="318" y="-128" on="0"/>
        <pt x="316" y="-93" on="0"/>
        <pt x="319" y="-76" on="1"/>
        <pt x="322" y="-58" on="0"/>
        <pt x="335" y="-24" on="0"/>
        <pt x="359" y="6" on="0"/>
        <pt x="391" y="27" on="0"/>
        <pt x="408" y="33" on="1"/>
        <pt x="412" y="0" on="1"/>
        <pt x="448" y="0" on="1"/>
        <pt x="440" y="0" on="0"/>
        <pt x="425" y="-11" on="0"/>
        <pt x="415" y="-26" on="0"/>
        <pt x="410" y="-43" on="0"/>
        <pt x="409" y="-51" on="1"/>
        <pt x="407" y="-62" on="0"/>
        <pt x="410" y="-84" on="0"/>
        <pt x="423" y="-100" on="0"/>
        <pt x="444" y="-107" on="0"/>
        <pt x="455" y="-107" on="1"/>
        <pt x="530" y="-107" on="1"/>
        <pt x="516" y="-193" on="1"/>
      </contour>
    </TTGlyph>
    <TTGlyph name="Aring" xMin="-19" yMin="0" xMax="506" yMax="985">
      <contour>
        <pt x="390" y="785" on="1"/>
        <pt x="366" y="785" on="0"/>
        <pt x="322" y="802" on="0"/>
        <pt x="296" y="838" on="0"/>
        <pt x="288" y="885" on="0"/>
        <pt x="292" y="909" on="1"/>
        <pt x="295" y="926" on="0"/>
        <pt x="312" y="957" on="0"/>
        <pt x="341" y="977" on="0"/>
        <pt x="374" y="985" on="0"/>
        <pt x="390" y="985" on="1"/>
        <pt x="414" y="985" on="0"/>
        <pt x="458" y="968" on="0"/>
        <pt x="485" y="932" on="0"/>
        <pt x="492" y="885" on="0"/>
        <pt x="488" y="861" on="1"/>
        <pt x="485" y="844" on="0"/>
        <pt x="468" y="813" on="0"/>
        <pt x="440" y="793" on="0"/>
        <pt x="406" y="785" on="0"/>
      </contour>
      <contour>
        <pt x="390" y="849" on="1"/>
        <pt x="396" y="849" on="0"/>
        <pt x="408" y="852" on="0"/>
        <pt x="419" y="859" on="0"/>
        <pt x="425" y="870" on="0"/>
        <pt x="426" y="876" on="1"/>
        <pt x="427" y="885" on="0"/>
        <pt x="425" y="902" on="0"/>
        <pt x="415" y="915" on="0"/>
        <pt x="399" y="921" on="0"/>
        <pt x="390" y="921" on="1"/>
        <pt x="384" y="921" on="0"/>
        <pt x="372" y="918" on="0"/>
        <pt x="362" y="911" on="0"/>
        <pt x="356" y="900" on="0"/>
        <pt x="355" y="894" on="1"/>
        <pt x="353" y="885" on="0"/>
        <pt x="356" y="868" on="0"/>
        <pt x="366" y="855" on="0"/>
        <pt x="381" y="849" on="0"/>
      </contour>
      <contour>
        <pt x="-19" y="0" on="1"/>
        <pt x="313" y="735" on="1"/>
        <pt x="417" y="735" on="1"/>
        <pt x="506" y="0" on="1"/>
        <pt x="412" y="0" on="1"/>
        <pt x="393" y="186" on="1"/>
        <pt x="156" y="186" on="1"/>
        <pt x="76" y="0" on="1"/>
      </contour>
      <contour>
        <pt x="191" y="265" on="1"/>
        <pt x="384" y="265" on="1"/>
        <pt x="361" y="490" on="1"/>
        <pt x="358" y="525" on="0"/>
        <pt x="351" y="594" on="0"/>
        <pt x="348" y="629" on="1"/>
        <pt x="333" y="594" on="0"/>
        <pt x="303" y="525" on="0"/>
        <pt x="288" y="490" on="1"/>
      </contour>
    </TTGlyph>
    <TTGlyph name="Aringacute" xMin="-19" yMin="0" xMax="567" yMax="1193">
      <contour>
        <pt x="395" y="993" on="1"/>
        <pt x="343" y="1047" on="1"/>
        <pt x="504" y="1193" on="1"/>
        <pt x="567" y="1127" on="1"/>
      </contour>
      <contour>
        <pt x="390" y="785" on="1"/>
        <pt x="366" y="785" on="0"/>
        <pt x="322" y="802" on="0"/>
        <pt x="296" y="838" on="0"/>
        <pt x="288" y="885" on="0"/>
        <pt x="292" y="909" on="1"/>
        <pt x="295" y="926" on="0"/>
        <pt x="312" y="957" on="0"/>
        <pt x="341" y="977" on="0"/>
        <pt x="374" y="985" on="0"/>
        <pt x="390" y="985" on="1"/>
        <pt x="414" y="985" on="0"/>
        <pt x="458" y="968" on="0"/>
        <pt x="485" y="932" on="0"/>
        <pt x="492" y="885" on="0"/>
        <pt x="488" y="861" on="1"/>
        <pt x="485" y="844" on="0"/>
        <pt x="468" y="813" on="0"/>
        <pt x="440" y="793" on="0"/>
        <pt x="406" y="785" on="0"/>
      </contour>
      <contour>
        <pt x="390" y="849" on="1"/>
        <pt x="396" y="849" on="0"/>
        <pt x="408" y="852" on="0"/>
        <pt x="419" y="859" on="0"/>
        <pt x="425" y="870" on="0"/>
        <pt x="426" y="876" on="1"/>
        <pt x="427" y="885" on="0"/>
        <pt x="425" y="902" on="0"/>
        <pt x="415" y="915" on="0"/>
        <pt x="399" y="921" on="0"/>
        <pt x="390" y="921" on="1"/>
        <pt x="384" y="921" on="0"/>
        <pt x="372" y="918" on="0"/>
        <pt x="362" y="911" on="0"/>
        <pt x="356" y="900" on="0"/>
        <pt x="355" y="894" on="1"/>
        <pt x="353" y="885" on="0"/>
        <pt x="356" y="868" on="0"/>
        <pt x="366" y="855" on="0"/>
        <pt x="381" y="849" on="0"/>
      </contour>
      <contour>
        <pt x="-19" y="0" on="1"/>
        <pt x="313" y="735" on="1"/>
        <pt x="417" y="735" on="1"/>
        <pt x="506" y="0" on="1"/>
        <pt x="412" y="0" on="1"/>
        <pt x="393" y="186" on="1"/>
        <pt x="156" y="186" on="1"/>
        <pt x="76" y="0" on="1"/>
      </contour>
      <contour>
        <pt x="191" y="265" on="1"/>
        <pt x="384" y="265" on="1"/>
        <pt x="361" y="490" on="1"/>
        <pt x="358" y="525" on="0"/>
        <pt x="351" y="594" on="0"/>
        <pt x="348" y="629" on="1"/>
        <pt x="333" y="594" on="0"/>
        <pt x="303" y="525" on="0"/>
        <pt x="288" y="490" on="1"/>
      </contour>
    </TTGlyph>
    <TTGlyph name="Atilde" xMin="-19" yMin="0" xMax="589" yMax="977">
      <contour>
        <pt x="269" y="811" on="1"/>
        <pt x="194" y="855" on="1"/>
        <pt x="206" y="872" on="0"/>
        <pt x="228" y="901" on="0"/>
        <pt x="248" y="925" on="0"/>
        <pt x="268" y="945" on="0"/>
        <pt x="295" y="964" on="0"/>
        <pt x="326" y="976" on="0"/>
        <pt x="341" y="976" on="1"/>
        <pt x="347" y="976" on="0"/>
        <pt x="357" y="974" on="0"/>
        <pt x="367" y="972" on="0"/>
        <pt x="377" y="968" on="0"/>
        <pt x="386" y="964" on="0"/>
        <pt x="394" y="958" on="0"/>
        <pt x="400" y="952" on="0"/>
        <pt x="408" y="944" on="0"/>
        <pt x="415" y="936" on="0"/>
        <pt x="421" y="929" on="0"/>
        <pt x="426" y="921" on="0"/>
        <pt x="431" y="914" on="0"/>
        <pt x="436" y="906" on="0"/>
        <pt x="442" y="897" on="0"/>
        <pt x="445" y="894" on="1"/>
        <pt x="448" y="896" on="0"/>
        <pt x="457" y="905" on="0"/>
        <pt x="462" y="910" on="0"/>
        <pt x="468" y="916" on="0"/>
        <pt x="474" y="922" on="0"/>
        <pt x="480" y="930" on="0"/>
        <pt x="487" y="939" on="0"/>
        <pt x="494" y="948" on="0"/>
        <pt x="502" y="959" on="0"/>
        <pt x="510" y="971" on="0"/>
        <pt x="514" y="977" on="1"/>
        <pt x="589" y="933" on="1"/>
        <pt x="577" y="915" on="0"/>
        <pt x="556" y="886" on="0"/>
        <pt x="535" y="863" on="0"/>
        <pt x="515" y="842" on="0"/>
        <pt x="488" y="824" on="0"/>
        <pt x="458" y="812" on="0"/>
        <pt x="442" y="812" on="1"/>
        <pt x="433" y="812" on="0"/>
        <pt x="416" y="816" on="0"/>
        <pt x="398" y="823" on="0"/>
        <pt x="386" y="833" on="0"/>
        <pt x="372" y="847" on="0"/>
        <pt x="362" y="860" on="0"/>
        <pt x="353" y="873" on="0"/>
        <pt x="342" y="890" on="0"/>
        <pt x="339" y="894" on="1"/>
        <pt x="336" y="892" on="0"/>
        <pt x="326" y="883" on="0"/>
        <pt x="321" y="878" on="0"/>
        <pt x="316" y="872" on="0"/>
        <pt x="310" y="865" on="0"/>
        <pt x="303" y="858" on="0"/>
        <pt x="297" y="849" on="0"/>
        <pt x="289" y="839" on="0"/>
        <pt x="282" y="829" on="0"/>
        <pt x="273" y="817" on="0"/>
      </contour>
      <contour>
        <pt x="-19" y="0" on="1"/>
        <pt x="313" y="735" on="1"/>
        <pt x="417" y="735" on="1"/>
        <pt x="506" y="0" on="1"/>
        <pt x="412" y="0" on="1"/>
        <pt x="393" y="186" on="1"/>
        <pt x="156" y="186" on="1"/>
        <pt x="76" y="0" on="1"/>
      </contour>
      <contour>
        <pt x="191" y="265" on="1"/>
        <pt x="384" y="265" on="1"/>
        <pt x="361" y="490" on="1"/>
        <pt x="358" y="525" on="0"/>
        <pt x="351" y="594" on="0"/>
        <pt x="348" y="629" on="1"/>
        <pt x="333" y="594" on="0"/>
        <pt x="303" y="525" on="0"/>
        <pt x="288" y="490" on="1"/>
      </contour>
    </TTGlyph>
    <TTGlyph name="B" xMin="0" yMin="0" xMax="561" yMax="735">
      <contour>
        <pt x="0" y="0" on="1"/>
        <pt x="122" y="735" on="1"/>
        <pt x="372" y="735" on="1"/>
        <pt x="400" y="735" on="0"/>
        <pt x="456" y="725" on="0"/>
        <pt x="504" y="700" on="0"/>
        <pt x="539" y="660" on="0"/>
        <pt x="558" y="609" on="0"/>
        <pt x="561" y="552" on="0"/>
        <pt x="556" y="524" on="1"/>
        <pt x="552" y="501" on="0"/>
        <pt x="536" y="455" on="0"/>
        <pt x="505" y="417" on="0"/>
        <pt x="464" y="388" on="0"/>
        <pt x="442" y="379" on="1"/>
        <pt x="468" y="368" on="0"/>
        <pt x="510" y="331" on="0"/>
        <pt x="535" y="281" on="0"/>
        <pt x="540" y="221" on="0"/>
        <pt x="535" y="192" on="1"/>
        <pt x="530" y="164" on="0"/>
        <pt x="508" y="107" on="0"/>
        <pt x="469" y="61" on="0"/>
        <pt x="417" y="27" on="0"/>
        <pt x="360" y="7" on="0"/>
        <pt x="303" y="0" on="0"/>
        <pt x="274" y="0" on="1"/>
      </contour>
      <contour>
        <pt x="160" y="420" on="1"/>
        <pt x="334" y="420" on="1"/>
        <pt x="349" y="420" on="0"/>
        <pt x="380" y="425" on="0"/>
        <pt x="410" y="439" on="0"/>
        <pt x="436" y="460" on="0"/>
        <pt x="454" y="488" on="0"/>
        <pt x="465" y="518" on="0"/>
        <pt x="467" y="533" on="1"/>
        <pt x="471" y="557" on="0"/>
        <pt x="466" y="604" on="0"/>
        <pt x="439" y="640" on="0"/>
        <pt x="395" y="656" on="0"/>
        <pt x="372" y="656" on="1"/>
        <pt x="199" y="656" on="1"/>
      </contour>
      <contour>
        <pt x="274" y="79" on="1"/>
        <pt x="293" y="79" on="0"/>
        <pt x="331" y="84" on="0"/>
        <pt x="368" y="97" on="0"/>
        <pt x="403" y="119" on="0"/>
        <pt x="429" y="149" on="0"/>
        <pt x="444" y="186" on="0"/>
        <pt x="447" y="205" on="1"/>
        <pt x="450" y="224" on="0"/>
        <pt x="448" y="263" on="0"/>
        <pt x="433" y="296" on="0"/>
        <pt x="406" y="321" on="0"/>
        <pt x="373" y="335" on="0"/>
        <pt x="335" y="341" on="0"/>
        <pt x="316" y="341" on="1"/>
        <pt x="147" y="341" on="1"/>
        <pt x="104" y="79" on="1"/>
      </contour>
    </TTGlyph>
    <TTGlyph name="C" xMin="24" yMin="-8" xMax="587" yMax="743">
      <contour>
        <pt x="266" y="-8" on="1"/>
        <pt x="241" y="-8" on="0"/>
        <pt x="191" y="-4" on="0"/>
        <pt x="144" y="8" on="0"/>
        <pt x="101" y="28" on="0"/>
        <pt x="65" y="57" on="0"/>
        <pt x="38" y="95" on="0"/>
        <pt x="24" y="141" on="0"/>
        <pt x="24" y="191" on="0"/>
        <pt x="28" y="216" on="1"/>
        <pt x="85" y="560" on="1"/>
        <pt x="88" y="582" on="0"/>
        <pt x="103" y="623" on="0"/>
        <pt x="129" y="661" on="0"/>
        <pt x="163" y="692" on="0"/>
        <pt x="202" y="715" on="0"/>
        <pt x="245" y="731" on="0"/>
        <pt x="288" y="740" on="0"/>
        <pt x="330" y="743" on="0"/>
        <pt x="352" y="743" on="1"/>
        <pt x="381" y="743" on="0"/>
        <pt x="440" y="737" on="0"/>
        <pt x="494" y="720" on="0"/>
        <pt x="541" y="691" on="0"/>
        <pt x="574" y="646" on="0"/>
        <pt x="587" y="590" on="0"/>
        <pt x="582" y="560" on="1"/>
        <pt x="582" y="558" on="0"/>
        <pt x="581" y="554" on="0"/>
        <pt x="581" y="551" on="1"/>
        <pt x="491" y="551" on="1"/>
        <pt x="491" y="553" on="0"/>
        <pt x="492" y="555" on="0"/>
        <pt x="492" y="557" on="1"/>
        <pt x="495" y="574" on="0"/>
        <pt x="486" y="608" on="0"/>
        <pt x="466" y="634" on="0"/>
        <pt x="437" y="651" on="0"/>
        <pt x="404" y="660" on="0"/>
        <pt x="369" y="664" on="0"/>
        <pt x="352" y="664" on="1"/>
        <pt x="333" y="664" on="0"/>
        <pt x="295" y="660" on="0"/>
        <pt x="258" y="649" on="0"/>
        <pt x="222" y="630" on="0"/>
        <pt x="193" y="602" on="0"/>
        <pt x="176" y="566" on="0"/>
        <pt x="173" y="547" on="1"/>
        <pt x="116" y="203" on="1"/>
        <pt x="113" y="183" on="0"/>
        <pt x="117" y="143" on="0"/>
        <pt x="137" y="110" on="0"/>
        <pt x="169" y="88" on="0"/>
        <pt x="206" y="76" on="0"/>
        <pt x="246" y="71" on="0"/>
        <pt x="266" y="71" on="1"/>
        <pt x="293" y="71" on="0"/>
        <pt x="347" y="81" on="0"/>
        <pt x="397" y="106" on="0"/>
        <pt x="439" y="147" on="0"/>
        <pt x="450" y="173" on="1"/>
        <pt x="533" y="143" on="1"/>
        <pt x="516" y="105" on="0"/>
        <pt x="457" y="44" on="0"/>
        <pt x="384" y="6" on="0"/>
        <pt x="305" y="-8" on="0"/>
      </contour>
    </TTGlyph>
    <TTGlyph name="Cacute" xMin="24" yMin="-8" xMax="587" yMax="988">
      <component glyphName="C" x="0" y="0" flags="0x1000"/>
      <component glyphName="acutecomb" x="634" y="205" flags="0x1000"/>
    </TTGlyph>
    <TTGlyph name="Ccaron" xMin="24" yMin="-8" xMax="587" yMax="987">
      <contour>
        <pt x="326" y="798" on="1"/>
        <pt x="219" y="929" on="1"/>
        <pt x="230" y="936" on="1"/>
        <pt x="298" y="981" on="1"/>
        <pt x="384" y="857" on="1"/>
        <pt x="512" y="987" on="1"/>
        <pt x="579" y="923" on="1"/>
        <pt x="426" y="798" on="1"/>
      </contour>
      <contour>
        <pt x="266" y="-8" on="1"/>
        <pt x="241" y="-8" on="0"/>
        <pt x="191" y="-4" on="0"/>
        <pt x="144" y="8" on="0"/>
        <pt x="101" y="28" on="0"/>
        <pt x="65" y="57" on="0"/>
        <pt x="38" y="95" on="0"/>
        <pt x="24" y="141" on="0"/>
        <pt x="24" y="191" on="0"/>
        <pt x="28" y="216" on="1"/>
        <pt x="85" y="560" on="1"/>
        <pt x="88" y="582" on="0"/>
        <pt x="103" y="623" on="0"/>
        <pt x="129" y="661" on="0"/>
        <pt x="163" y="692" on="0"/>
        <pt x="202" y="715" on="0"/>
        <pt x="245" y="731" on="0"/>
        <pt x="288" y="740" on="0"/>
        <pt x="330" y="743" on="0"/>
        <pt x="352" y="743" on="1"/>
        <pt x="381" y="743" on="0"/>
        <pt x="440" y="737" on="0"/>
        <pt x="494" y="720" on="0"/>
        <pt x="541" y="691" on="0"/>
        <pt x="574" y="646" on="0"/>
        <pt x="587" y="590" on="0"/>
        <pt x="582" y="560" on="1"/>
        <pt x="582" y="558" on="0"/>
        <pt x="581" y="554" on="0"/>
        <pt x="581" y="551" on="1"/>
        <pt x="491" y="551" on="1"/>
        <pt x="491" y="553" on="0"/>
        <pt x="492" y="555" on="0"/>
        <pt x="492" y="557" on="1"/>
        <pt x="495" y="574" on="0"/>
        <pt x="486" y="608" on="0"/>
        <pt x="466" y="634" on="0"/>
        <pt x="437" y="651" on="0"/>
        <pt x="404" y="660" on="0"/>
        <pt x="369" y="664" on="0"/>
        <pt x="352" y="664" on="1"/>
        <pt x="333" y="664" on="0"/>
        <pt x="295" y="660" on="0"/>
        <pt x="258" y="649" on="0"/>
        <pt x="222" y="630" on="0"/>
        <pt x="193" y="602" on="0"/>
        <pt x="176" y="566" on="0"/>
        <pt x="173" y="547" on="1"/>
        <pt x="116" y="203" on="1"/>
        <pt x="113" y="183" on="0"/>
        <pt x="117" y="143" on="0"/>
        <pt x="137" y="110" on="0"/>
        <pt x="169" y="88" on="0"/>
        <pt x="206" y="76" on="0"/>
        <pt x="246" y="71" on="0"/>
        <pt x="266" y="71" on="1"/>
        <pt x="293" y="71" on="0"/>
        <pt x="347" y="81" on="0"/>
        <pt x="397" y="106" on="0"/>
        <pt x="439" y="147" on="0"/>
        <pt x="450" y="173" on="1"/>
        <pt x="533" y="143" on="1"/>
        <pt x="516" y="105" on="0"/>
        <pt x="457" y="44" on="0"/>
        <pt x="384" y="6" on="0"/>
        <pt x="305" y="-8" on="0"/>
      </contour>
    </TTGlyph>
    <TTGlyph name="Ccedilla" xMin="23" yMin="-220" xMax="587" yMax="743">
      <contour>
        <pt x="107" y="-220" on="1"/>
        <pt x="119" y="-150" on="1"/>
        <pt x="219" y="-150" on="1"/>
        <pt x="223" y="-150" on="0"/>
        <pt x="232" y="-149" on="0"/>
        <pt x="241" y="-146" on="0"/>
        <pt x="249" y="-140" on="0"/>
        <pt x="249" y="-135" on="1"/>
        <pt x="250" y="-131" on="0"/>
        <pt x="245" y="-124" on="0"/>
        <pt x="237" y="-121" on="0"/>
        <pt x="228" y="-120" on="0"/>
        <pt x="224" y="-120" on="1"/>
        <pt x="184" y="-120" on="1"/>
        <pt x="203" y="-4" on="1"/>
        <pt x="182" y="-2" on="0"/>
        <pt x="143" y="9" on="0"/>
        <pt x="107" y="25" on="0"/>
        <pt x="74" y="48" on="0"/>
        <pt x="49" y="77" on="0"/>
        <pt x="31" y="113" on="0"/>
        <pt x="23" y="153" on="0"/>
        <pt x="24" y="195" on="0"/>
        <pt x="28" y="216" on="1"/>
        <pt x="85" y="560" on="1"/>
        <pt x="88" y="582" on="0"/>
        <pt x="103" y="623" on="0"/>
        <pt x="129" y="661" on="0"/>
        <pt x="163" y="692" on="0"/>
        <pt x="202" y="715" on="0"/>
        <pt x="245" y="731" on="0"/>
        <pt x="288" y="740" on="0"/>
        <pt x="330" y="743" on="0"/>
        <pt x="352" y="743" on="1"/>
        <pt x="381" y="743" on="0"/>
        <pt x="440" y="737" on="0"/>
        <pt x="494" y="720" on="0"/>
        <pt x="541" y="691" on="0"/>
        <pt x="574" y="646" on="0"/>
        <pt x="587" y="590" on="0"/>
        <pt x="582" y="560" on="1"/>
        <pt x="582" y="558" on="0"/>
        <pt x="581" y="554" on="0"/>
        <pt x="581" y="551" on="1"/>
        <pt x="491" y="551" on="1"/>
        <pt x="491" y="553" on="0"/>
        <pt x="492" y="555" on="0"/>
        <pt x="492" y="557" on="1"/>
        <pt x="495" y="574" on="0"/>
        <pt x="486" y="608" on="0"/>
        <pt x="466" y="634" on="0"/>
        <pt x="437" y="651" on="0"/>
        <pt x="404" y="660" on="0"/>
        <pt x="369" y="664" on="0"/>
        <pt x="352" y="664" on="1"/>
        <pt x="333" y="664" on="0"/>
        <pt x="295" y="660" on="0"/>
        <pt x="258" y="649" on="0"/>
        <pt x="222" y="630" on="0"/>
        <pt x="193" y="602" on="0"/>
        <pt x="176" y="566" on="0"/>
        <pt x="173" y="547" on="1"/>
        <pt x="116" y="203" on="1"/>
        <pt x="113" y="183" on="0"/>
        <pt x="117" y="143" on="0"/>
        <pt x="137" y="110" on="0"/>
        <pt x="169" y="88" on="0"/>
        <pt x="206" y="76" on="0"/>
        <pt x="246" y="71" on="0"/>
        <pt x="266" y="71" on="1"/>
        <pt x="293" y="71" on="0"/>
        <pt x="347" y="81" on="0"/>
        <pt x="397" y="106" on="0"/>
        <pt x="439" y="147" on="0"/>
        <pt x="450" y="173" on="1"/>
        <pt x="533" y="143" on="1"/>
        <pt x="517" y="107" on="0"/>
        <pt x="462" y="48" on="0"/>
        <pt x="394" y="10" on="0"/>
        <pt x="319" y="-7" on="0"/>
        <pt x="282" y="-8" on="1"/>
        <pt x="275" y="-54" on="1"/>
        <pt x="288" y="-58" on="0"/>
        <pt x="312" y="-71" on="0"/>
        <pt x="327" y="-92" on="0"/>
        <pt x="332" y="-120" on="0"/>
        <pt x="329" y="-135" on="1"/>
        <pt x="326" y="-154" on="0"/>
        <pt x="303" y="-190" on="0"/>
        <pt x="267" y="-212" on="0"/>
        <pt x="227" y="-220" on="0"/>
        <pt x="207" y="-220" on="1"/>
      </contour>
    </TTGlyph>
    <TTGlyph name="Ccircumflex" xMin="24" yMin="-8" xMax="587" yMax="980">
      <contour>
        <pt x="270" y="791" on="1"/>
        <pt x="203" y="855" on="1"/>
        <pt x="356" y="980" on="1"/>
        <pt x="456" y="980" on="1"/>
        <pt x="563" y="849" on="1"/>
        <pt x="484" y="797" on="1"/>
        <pt x="397" y="921" on="1"/>
      </contour>
      <contour>
        <pt x="266" y="-8" on="1"/>
        <pt x="241" y="-8" on="0"/>
        <pt x="191" y="-4" on="0"/>
        <pt x="144" y="8" on="0"/>
        <pt x="101" y="28" on="0"/>
        <pt x="65" y="57" on="0"/>
        <pt x="38" y="95" on="0"/>
        <pt x="24" y="141" on="0"/>
        <pt x="24" y="191" on="0"/>
        <pt x="28" y="216" on="1"/>
        <pt x="85" y="560" on="1"/>
        <pt x="88" y="582" on="0"/>
        <pt x="103" y="623" on="0"/>
        <pt x="129" y="661" on="0"/>
        <pt x="163" y="692" on="0"/>
        <pt x="202" y="715" on="0"/>
        <pt x="245" y="731" on="0"/>
        <pt x="288" y="740" on="0"/>
        <pt x="330" y="743" on="0"/>
        <pt x="352" y="743" on="1"/>
        <pt x="381" y="743" on="0"/>
        <pt x="440" y="737" on="0"/>
        <pt x="494" y="720" on="0"/>
        <pt x="541" y="691" on="0"/>
        <pt x="574" y="646" on="0"/>
        <pt x="587" y="590" on="0"/>
        <pt x="582" y="560" on="1"/>
        <pt x="582" y="558" on="0"/>
        <pt x="581" y="554" on="0"/>
        <pt x="581" y="551" on="1"/>
        <pt x="491" y="551" on="1"/>
        <pt x="491" y="553" on="0"/>
        <pt x="492" y="555" on="0"/>
        <pt x="492" y="557" on="1"/>
        <pt x="495" y="574" on="0"/>
        <pt x="486" y="608" on="0"/>
        <pt x="466" y="634" on="0"/>
        <pt x="437" y="651" on="0"/>
        <pt x="404" y="660" on="0"/>
        <pt x="369" y="664" on="0"/>
        <pt x="352" y="664" on="1"/>
        <pt x="333" y="664" on="0"/>
        <pt x="295" y="660" on="0"/>
        <pt x="258" y="649" on="0"/>
        <pt x="222" y="630" on="0"/>
        <pt x="193" y="602" on="0"/>
        <pt x="176" y="566" on="0"/>
        <pt x="173" y="547" on="1"/>
        <pt x="116" y="203" on="1"/>
        <pt x="113" y="183" on="0"/>
        <pt x="117" y="143" on="0"/>
        <pt x="137" y="110" on="0"/>
        <pt x="169" y="88" on="0"/>
        <pt x="206" y="76" on="0"/>
        <pt x="246" y="71" on="0"/>
        <pt x="266" y="71" on="1"/>
        <pt x="293" y="71" on="0"/>
        <pt x="347" y="81" on="0"/>
        <pt x="397" y="106" on="0"/>
        <pt x="439" y="147" on="0"/>
        <pt x="450" y="173" on="1"/>
        <pt x="533" y="143" on="1"/>
        <pt x="516" y="105" on="0"/>
        <pt x="457" y="44" on="0"/>
        <pt x="384" y="6" on="0"/>
        <pt x="305" y="-8" on="0"/>
      </contour>
    </TTGlyph>
    <TTGlyph name="Cdotaccent" xMin="24" yMin="-8" xMax="587" yMax="951">
      <contour>
        <pt x="390" y="819" on="1"/>
        <pt x="374" y="819" on="0"/>
        <pt x="345" y="830" on="0"/>
        <pt x="328" y="854" on="0"/>
        <pt x="323" y="885" on="0"/>
        <pt x="325" y="901" on="1"/>
        <pt x="327" y="912" on="0"/>
        <pt x="338" y="932" on="0"/>
        <pt x="357" y="946" on="0"/>
        <pt x="379" y="951" on="0"/>
        <pt x="390" y="951" on="1"/>
        <pt x="406" y="951" on="0"/>
        <pt x="435" y="940" on="0"/>
        <pt x="453" y="916" on="0"/>
        <pt x="458" y="885" on="0"/>
        <pt x="455" y="869" on="1"/>
        <pt x="453" y="858" on="0"/>
        <pt x="442" y="838" on="0"/>
        <pt x="423" y="824" on="0"/>
        <pt x="401" y="819" on="0"/>
      </contour>
      <contour>
        <pt x="266" y="-8" on="1"/>
        <pt x="241" y="-8" on="0"/>
        <pt x="191" y="-4" on="0"/>
        <pt x="144" y="8" on="0"/>
        <pt x="101" y="28" on="0"/>
        <pt x="65" y="57" on="0"/>
        <pt x="38" y="95" on="0"/>
        <pt x="24" y="141" on="0"/>
        <pt x="24" y="191" on="0"/>
        <pt x="28" y="216" on="1"/>
        <pt x="85" y="560" on="1"/>
        <pt x="88" y="582" on="0"/>
        <pt x="103" y="623" on="0"/>
        <pt x="129" y="661" on="0"/>
        <pt x="163" y="692" on="0"/>
        <pt x="202" y="715" on="0"/>
        <pt x="245" y="731" on="0"/>
        <pt x="288" y="740" on="0"/>
        <pt x="330" y="743" on="0"/>
        <pt x="352" y="743" on="1"/>
        <pt x="381" y="743" on="0"/>
        <pt x="440" y="737" on="0"/>
        <pt x="494" y="720" on="0"/>
        <pt x="541" y="691" on="0"/>
        <pt x="574" y="646" on="0"/>
        <pt x="587" y="590" on="0"/>
        <pt x="582" y="560" on="1"/>
        <pt x="582" y="558" on="0"/>
        <pt x="581" y="554" on="0"/>
        <pt x="581" y="551" on="1"/>
        <pt x="491" y="551" on="1"/>
        <pt x="491" y="553" on="0"/>
        <pt x="492" y="555" on="0"/>
        <pt x="492" y="557" on="1"/>
        <pt x="495" y="574" on="0"/>
        <pt x="486" y="608" on="0"/>
        <pt x="466" y="634" on="0"/>
        <pt x="437" y="651" on="0"/>
        <pt x="404" y="660" on="0"/>
        <pt x="369" y="664" on="0"/>
        <pt x="352" y="664" on="1"/>
        <pt x="333" y="664" on="0"/>
        <pt x="295" y="660" on="0"/>
        <pt x="258" y="649" on="0"/>
        <pt x="222" y="630" on="0"/>
        <pt x="193" y="602" on="0"/>
        <pt x="176" y="566" on="0"/>
        <pt x="173" y="547" on="1"/>
        <pt x="116" y="203" on="1"/>
        <pt x="113" y="183" on="0"/>
        <pt x="117" y="143" on="0"/>
        <pt x="137" y="110" on="0"/>
        <pt x="169" y="88" on="0"/>
        <pt x="206" y="76" on="0"/>
        <pt x="246" y="71" on="0"/>
        <pt x="266" y="71" on="1"/>
        <pt x="293" y="71" on="0"/>
        <pt x="347" y="81" on="0"/>
        <pt x="397" y="106" on="0"/>
        <pt x="439" y="147" on="0"/>
        <pt x="450" y="173" on="1"/>
        <pt x="533" y="143" on="1"/>
        <pt x="516" y="105" on="0"/>
        <pt x="457" y="44" on="0"/>
        <pt x="384" y="6" on="0"/>
        <pt x="305" y="-8" on="0"/>
      </contour>
    </TTGlyph>
    <TTGlyph name="D" xMin="0" yMin="0" xMax="565" yMax="735">
      <contour>
        <pt x="0" y="0" on="1"/>
        <pt x="122" y="735" on="1"/>
        <pt x="353" y="735" on="1"/>
        <pt x="379" y="735" on="0"/>
        <pt x="429" y="727" on="0"/>
        <pt x="473" y="704" on="0"/>
        <pt x="509" y="670" on="0"/>
        <pt x="534" y="629" on="0"/>
        <pt x="551" y="582" on="0"/>
        <pt x="561" y="533" on="0"/>
        <pt x="565" y="481" on="0"/>
        <pt x="564" y="429" on="0"/>
        <pt x="558" y="377" on="0"/>
        <pt x="554" y="351" on="1"/>
        <pt x="550" y="327" on="0"/>
        <pt x="539" y="278" on="0"/>
        <pt x="525" y="231" on="0"/>
        <pt x="507" y="184" on="0"/>
        <pt x="483" y="139" on="0"/>
        <pt x="453" y="97" on="0"/>
        <pt x="417" y="59" on="0"/>
        <pt x="375" y="29" on="0"/>
        <pt x="329" y="8" on="0"/>
        <pt x="280" y="0" on="0"/>
        <pt x="255" y="0" on="1"/>
      </contour>
      <contour>
        <pt x="255" y="79" on="1"/>
        <pt x="274" y="79" on="0"/>
        <pt x="311" y="88" on="0"/>
        <pt x="345" y="108" on="0"/>
        <pt x="374" y="135" on="0"/>
        <pt x="398" y="167" on="0"/>
        <pt x="417" y="200" on="0"/>
        <pt x="433" y="236" on="0"/>
        <pt x="445" y="272" on="0"/>
        <pt x="454" y="308" on="0"/>
        <pt x="462" y="345" on="0"/>
        <pt x="465" y="363" on="1"/>
        <pt x="468" y="382" on="0"/>
        <pt x="473" y="418" on="0"/>
        <pt x="475" y="455" on="0"/>
        <pt x="475" y="492" on="0"/>
        <pt x="471" y="528" on="0"/>
        <pt x="464" y="563" on="0"/>
        <pt x="452" y="596" on="0"/>
        <pt x="433" y="625" on="0"/>
        <pt x="406" y="646" on="0"/>
        <pt x="371" y="656" on="0"/>
        <pt x="353" y="656" on="1"/>
        <pt x="199" y="656" on="1"/>
        <pt x="104" y="79" on="1"/>
      </contour>
    </TTGlyph>
    <TTGlyph name="Dcaron" xMin="0" yMin="0" xMax="579" yMax="987">
      <contour>
        <pt x="326" y="798" on="1"/>
        <pt x="219" y="929" on="1"/>
        <pt x="230" y="936" on="1"/>
        <pt x="298" y="981" on="1"/>
        <pt x="384" y="857" on="1"/>
        <pt x="512" y="987" on="1"/>
        <pt x="579" y="923" on="1"/>
        <pt x="426" y="798" on="1"/>
      </contour>
      <contour>
        <pt x="0" y="0" on="1"/>
        <pt x="122" y="735" on="1"/>
        <pt x="353" y="735" on="1"/>
        <pt x="379" y="735" on="0"/>
        <pt x="429" y="727" on="0"/>
        <pt x="473" y="704" on="0"/>
        <pt x="509" y="670" on="0"/>
        <pt x="534" y="629" on="0"/>
        <pt x="551" y="582" on="0"/>
        <pt x="561" y="533" on="0"/>
        <pt x="565" y="481" on="0"/>
        <pt x="564" y="429" on="0"/>
        <pt x="558" y="377" on="0"/>
        <pt x="554" y="351" on="1"/>
        <pt x="550" y="327" on="0"/>
        <pt x="539" y="278" on="0"/>
        <pt x="525" y="231" on="0"/>
        <pt x="507" y="184" on="0"/>
        <pt x="483" y="139" on="0"/>
        <pt x="453" y="97" on="0"/>
        <pt x="417" y="59" on="0"/>
        <pt x="375" y="29" on="0"/>
        <pt x="329" y="8" on="0"/>
        <pt x="280" y="0" on="0"/>
        <pt x="255" y="0" on="1"/>
      </contour>
      <contour>
        <pt x="255" y="79" on="1"/>
        <pt x="274" y="79" on="0"/>
        <pt x="311" y="88" on="0"/>
        <pt x="345" y="108" on="0"/>
        <pt x="374" y="135" on="0"/>
        <pt x="398" y="167" on="0"/>
        <pt x="417" y="200" on="0"/>
        <pt x="433" y="236" on="0"/>
        <pt x="445" y="272" on="0"/>
        <pt x="454" y="308" on="0"/>
        <pt x="462" y="345" on="0"/>
        <pt x="465" y="363" on="1"/>
        <pt x="468" y="382" on="0"/>
        <pt x="473" y="418" on="0"/>
        <pt x="475" y="455" on="0"/>
        <pt x="475" y="492" on="0"/>
        <pt x="471" y="528" on="0"/>
        <pt x="464" y="563" on="0"/>
        <pt x="452" y="596" on="0"/>
        <pt x="433" y="625" on="0"/>
        <pt x="406" y="646" on="0"/>
        <pt x="371" y="656" on="0"/>
        <pt x="353" y="656" on="1"/>
        <pt x="199" y="656" on="1"/>
        <pt x="104" y="79" on="1"/>
      </contour>
    </TTGlyph>
    <TTGlyph name="Dcroat" xMin="0" yMin="0" xMax="565" yMax="735">
      <component glyphName="Eth" x="0" y="0" flags="0x1000"/>
    </TTGlyph>
    <TTGlyph name="Delta" xMin="-19" yMin="0" xMax="506" yMax="735">
      <contour>
        <pt x="-19" y="0" on="1"/>
        <pt x="313" y="735" on="1"/>
        <pt x="417" y="735" on="1"/>
        <pt x="447" y="490" on="1"/>
        <pt x="506" y="0" on="1"/>
      </contour>
      <contour>
        <pt x="110" y="79" on="1"/>
        <pt x="404" y="79" on="1"/>
        <pt x="387" y="245" on="1"/>
        <pt x="361" y="490" on="1"/>
        <pt x="358" y="525" on="0"/>
        <pt x="351" y="594" on="0"/>
        <pt x="348" y="629" on="1"/>
        <pt x="333" y="594" on="0"/>
        <pt x="303" y="525" on="0"/>
        <pt x="288" y="490" on="1"/>
      </contour>
    </TTGlyph>
    <TTGlyph name="Delta.APLF" xMin="-27" yMin="-50" xMax="498" yMax="730">
      <contour>
        <pt x="-27" y="-50" on="1"/>
        <pt x="199" y="470" on="1"/>
        <pt x="313" y="730" on="1"/>
        <pt x="417" y="730" on="1"/>
        <pt x="444" y="470" on="1"/>
        <pt x="498" y="-50" on="1"/>
      </contour>
      <contour>
        <pt x="100" y="29" on="1"/>
        <pt x="397" y="29" on="1"/>
        <pt x="358" y="470" on="1"/>
        <pt x="355" y="507" on="0"/>
        <pt x="349" y="581" on="0"/>
        <pt x="346" y="618" on="1"/>
        <pt x="331" y="581" on="0"/>
        <pt x="300" y="507" on="0"/>
        <pt x="285" y="470" on="1"/>
      </contour>
    </TTGlyph>
    <TTGlyph name="E" xMin="8" yMin="0" xMax="609" yMax="735">
      <contour>
        <pt x="8" y="0" on="1"/>
        <pt x="130" y="735" on="1"/>
        <pt x="609" y="735" on="1"/>
        <pt x="596" y="656" on="1"/>
        <pt x="207" y="656" on="1"/>
        <pt x="168" y="422" on="1"/>
        <pt x="484" y="422" on="1"/>
        <pt x="471" y="343" on="1"/>
        <pt x="155" y="343" on="1"/>
        <pt x="112" y="79" on="1"/>
        <pt x="500" y="79" on="1"/>
        <pt x="487" y="0" on="1"/>
      </contour>
    </TTGlyph>
    <TTGlyph name="Eacute" xMin="8" yMin="0" xMax="609" yMax="988">
      <component glyphName="E" x="0" y="0" flags="0x1000"/>
      <component glyphName="acutecomb" x="634" y="205" flags="0x1000"/>
    </TTGlyph>
    <TTGlyph name="Ebreve" xMin="8" yMin="0" xMax="609" yMax="955">
      <contour>
        <pt x="379" y="815" on="1"/>
        <pt x="358" y="815" on="0"/>
        <pt x="318" y="820" on="0"/>
        <pt x="282" y="835" on="0"/>
        <pt x="253" y="860" on="0"/>
        <pt x="236" y="894" on="0"/>
        <pt x="233" y="935" on="0"/>
        <pt x="237" y="955" on="1"/>
        <pt x="327" y="955" on="1"/>
        <pt x="325" y="942" on="0"/>
        <pt x="332" y="916" on="0"/>
        <pt x="352" y="900" on="0"/>
        <pt x="378" y="894" on="0"/>
        <pt x="392" y="894" on="1"/>
        <pt x="406" y="894" on="0"/>
        <pt x="434" y="900" on="0"/>
        <pt x="458" y="916" on="0"/>
        <pt x="474" y="941" on="0"/>
        <pt x="477" y="955" on="1"/>
        <pt x="567" y="955" on="1"/>
        <pt x="564" y="934" on="0"/>
        <pt x="547" y="894" on="0"/>
        <pt x="519" y="860" on="0"/>
        <pt x="482" y="835" on="0"/>
        <pt x="441" y="820" on="0"/>
        <pt x="399" y="815" on="0"/>
      </contour>
      <contour>
        <pt x="8" y="0" on="1"/>
        <pt x="130" y="735" on="1"/>
        <pt x="609" y="735" on="1"/>
        <pt x="596" y="656" on="1"/>
        <pt x="207" y="656" on="1"/>
        <pt x="168" y="422" on="1"/>
        <pt x="484" y="422" on="1"/>
        <pt x="471" y="343" on="1"/>
        <pt x="155" y="343" on="1"/>
        <pt x="112" y="79" on="1"/>
        <pt x="500" y="79" on="1"/>
        <pt x="487" y="0" on="1"/>
      </contour>
    </TTGlyph>
    <TTGlyph name="Ecaron" xMin="8" yMin="0" xMax="609" yMax="987">
      <contour>
        <pt x="326" y="798" on="1"/>
        <pt x="219" y="929" on="1"/>
        <pt x="230" y="936" on="1"/>
        <pt x="298" y="981" on="1"/>
        <pt x="384" y="857" on="1"/>
        <pt x="512" y="987" on="1"/>
        <pt x="579" y="923" on="1"/>
        <pt x="426" y="798" on="1"/>
      </contour>
      <contour>
        <pt x="8" y="0" on="1"/>
        <pt x="130" y="735" on="1"/>
        <pt x="609" y="735" on="1"/>
        <pt x="596" y="656" on="1"/>
        <pt x="207" y="656" on="1"/>
        <pt x="168" y="422" on="1"/>
        <pt x="484" y="422" on="1"/>
        <pt x="471" y="343" on="1"/>
        <pt x="155" y="343" on="1"/>
        <pt x="112" y="79" on="1"/>
        <pt x="500" y="79" on="1"/>
        <pt x="487" y="0" on="1"/>
      </contour>
    </TTGlyph>
    <TTGlyph name="Ecircumflex" xMin="8" yMin="0" xMax="609" yMax="980">
      <contour>
        <pt x="270" y="791" on="1"/>
        <pt x="203" y="855" on="1"/>
        <pt x="356" y="980" on="1"/>
        <pt x="456" y="980" on="1"/>
        <pt x="563" y="849" on="1"/>
        <pt x="484" y="797" on="1"/>
        <pt x="397" y="921" on="1"/>
      </contour>
      <contour>
        <pt x="8" y="0" on="1"/>
        <pt x="130" y="735" on="1"/>
        <pt x="609" y="735" on="1"/>
        <pt x="596" y="656" on="1"/>
        <pt x="207" y="656" on="1"/>
        <pt x="168" y="422" on="1"/>
        <pt x="484" y="422" on="1"/>
        <pt x="471" y="343" on="1"/>
        <pt x="155" y="343" on="1"/>
        <pt x="112" y="79" on="1"/>
        <pt x="500" y="79" on="1"/>
        <pt x="487" y="0" on="1"/>
      </contour>
    </TTGlyph>
    <TTGlyph name="Edieresis" xMin="8" yMin="0" xMax="609" yMax="951">
      <contour>
        <pt x="490" y="819" on="1"/>
        <pt x="474" y="819" on="0"/>
        <pt x="445" y="830" on="0"/>
        <pt x="428" y="854" on="0"/>
        <pt x="423" y="885" on="0"/>
        <pt x="425" y="901" on="1"/>
        <pt x="427" y="912" on="0"/>
        <pt x="438" y="932" on="0"/>
        <pt x="457" y="946" on="0"/>
        <pt x="479" y="951" on="0"/>
        <pt x="490" y="951" on="1"/>
        <pt x="506" y="951" on="0"/>
        <pt x="535" y="940" on="0"/>
        <pt x="553" y="916" on="0"/>
        <pt x="558" y="885" on="0"/>
        <pt x="555" y="869" on="1"/>
        <pt x="553" y="858" on="0"/>
        <pt x="542" y="838" on="0"/>
        <pt x="523" y="824" on="0"/>
        <pt x="501" y="819" on="0"/>
      </contour>
      <contour>
        <pt x="290" y="819" on="1"/>
        <pt x="274" y="819" on="0"/>
        <pt x="245" y="830" on="0"/>
        <pt x="228" y="854" on="0"/>
        <pt x="223" y="885" on="0"/>
        <pt x="225" y="901" on="1"/>
        <pt x="227" y="912" on="0"/>
        <pt x="238" y="932" on="0"/>
        <pt x="257" y="946" on="0"/>
        <pt x="279" y="951" on="0"/>
        <pt x="290" y="951" on="1"/>
        <pt x="306" y="951" on="0"/>
        <pt x="335" y="940" on="0"/>
        <pt x="353" y="916" on="0"/>
        <pt x="358" y="885" on="0"/>
        <pt x="355" y="869" on="1"/>
        <pt x="353" y="858" on="0"/>
        <pt x="342" y="838" on="0"/>
        <pt x="323" y="824" on="0"/>
        <pt x="301" y="819" on="0"/>
      </contour>
      <contour>
        <pt x="8" y="0" on="1"/>
        <pt x="130" y="735" on="1"/>
        <pt x="609" y="735" on="1"/>
        <pt x="596" y="656" on="1"/>
        <pt x="207" y="656" on="1"/>
        <pt x="168" y="422" on="1"/>
        <pt x="484" y="422" on="1"/>
        <pt x="471" y="343" on="1"/>
        <pt x="155" y="343" on="1"/>
        <pt x="112" y="79" on="1"/>
        <pt x="500" y="79" on="1"/>
        <pt x="487" y="0" on="1"/>
      </contour>
    </TTGlyph>
    <TTGlyph name="Edotaccent" xMin="8" yMin="0" xMax="609" yMax="951">
      <contour>
        <pt x="390" y="819" on="1"/>
        <pt x="374" y="819" on="0"/>
        <pt x="345" y="830" on="0"/>
        <pt x="328" y="854" on="0"/>
        <pt x="323" y="885" on="0"/>
        <pt x="325" y="901" on="1"/>
        <pt x="327" y="912" on="0"/>
        <pt x="338" y="932" on="0"/>
        <pt x="357" y="946" on="0"/>
        <pt x="379" y="951" on="0"/>
        <pt x="390" y="951" on="1"/>
        <pt x="406" y="951" on="0"/>
        <pt x="435" y="940" on="0"/>
        <pt x="453" y="916" on="0"/>
        <pt x="458" y="885" on="0"/>
        <pt x="455" y="869" on="1"/>
        <pt x="453" y="858" on="0"/>
        <pt x="442" y="838" on="0"/>
        <pt x="423" y="824" on="0"/>
        <pt x="401" y="819" on="0"/>
      </contour>
      <contour>
        <pt x="8" y="0" on="1"/>
        <pt x="130" y="735" on="1"/>
        <pt x="609" y="735" on="1"/>
        <pt x="596" y="656" on="1"/>
        <pt x="207" y="656" on="1"/>
        <pt x="168" y="422" on="1"/>
        <pt x="484" y="422" on="1"/>
        <pt x="471" y="343" on="1"/>
        <pt x="155" y="343" on="1"/>
        <pt x="112" y="79" on="1"/>
        <pt x="500" y="79" on="1"/>
        <pt x="487" y="0" on="1"/>
      </contour>
    </TTGlyph>
    <TTGlyph name="Egrave" xMin="8" yMin="0" xMax="609" yMax="983">
      <contour>
        <pt x="392" y="792" on="1"/>
        <pt x="264" y="927" on="1"/>
        <pt x="339" y="983" on="1"/>
        <pt x="453" y="838" on="1"/>
      </contour>
      <contour>
        <pt x="8" y="0" on="1"/>
        <pt x="130" y="735" on="1"/>
        <pt x="609" y="735" on="1"/>
        <pt x="596" y="656" on="1"/>
        <pt x="207" y="656" on="1"/>
        <pt x="168" y="422" on="1"/>
        <pt x="484" y="422" on="1"/>
        <pt x="471" y="343" on="1"/>
        <pt x="155" y="343" on="1"/>
        <pt x="112" y="79" on="1"/>
        <pt x="500" y="79" on="1"/>
        <pt x="487" y="0" on="1"/>
      </contour>
    </TTGlyph>
    <TTGlyph name="Emacron" xMin="8" yMin="0" xMax="609" yMax="925">
      <contour>
        <pt x="540" y="845" on="1"/>
        <pt x="240" y="845" on="1"/>
        <pt x="240" y="925" on="1"/>
        <pt x="540" y="925" on="1"/>
      </contour>
      <contour>
        <pt x="8" y="0" on="1"/>
        <pt x="130" y="735" on="1"/>
        <pt x="609" y="735" on="1"/>
        <pt x="596" y="656" on="1"/>
        <pt x="207" y="656" on="1"/>
        <pt x="168" y="422" on="1"/>
        <pt x="484" y="422" on="1"/>
        <pt x="471" y="343" on="1"/>
        <pt x="155" y="343" on="1"/>
        <pt x="112" y="79" on="1"/>
        <pt x="500" y="79" on="1"/>
        <pt x="487" y="0" on="1"/>
      </contour>
    </TTGlyph>
    <TTGlyph name="Eng" xMin="0" yMin="-8" xMax="576" yMax="743">
      <contour>
        <pt x="277" y="-8" on="1"/>
        <pt x="277" y="71" on="1"/>
        <pt x="295" y="71" on="0"/>
        <pt x="330" y="77" on="0"/>
        <pt x="363" y="91" on="0"/>
        <pt x="393" y="115" on="0"/>
        <pt x="414" y="145" on="0"/>
        <pt x="427" y="179" on="0"/>
        <pt x="429" y="197" on="1"/>
        <pt x="443" y="277" on="0"/>
        <pt x="469" y="437" on="0"/>
        <pt x="483" y="517" on="1"/>
        <pt x="486" y="537" on="0"/>
        <pt x="485" y="577" on="0"/>
        <pt x="472" y="613" on="0"/>
        <pt x="446" y="641" on="0"/>
        <pt x="413" y="658" on="0"/>
        <pt x="374" y="664" on="0"/>
        <pt x="354" y="664" on="1"/>
        <pt x="335" y="664" on="0"/>
        <pt x="298" y="659" on="0"/>
        <pt x="260" y="647" on="0"/>
        <pt x="226" y="627" on="0"/>
        <pt x="199" y="597" on="0"/>
        <pt x="183" y="561" on="0"/>
        <pt x="180" y="542" on="1"/>
        <pt x="91" y="0" on="1"/>
        <pt x="0" y="0" on="1"/>
        <pt x="122" y="735" on="1"/>
        <pt x="212" y="735" on="1"/>
        <pt x="199" y="653" on="1"/>
        <pt x="214" y="676" on="0"/>
        <pt x="255" y="712" on="0"/>
        <pt x="303" y="735" on="0"/>
        <pt x="355" y="743" on="0"/>
        <pt x="380" y="743" on="1"/>
        <pt x="411" y="743" on="0"/>
        <pt x="471" y="731" on="0"/>
        <pt x="522" y="701" on="0"/>
        <pt x="558" y="655" on="0"/>
        <pt x="576" y="598" on="0"/>
        <pt x="576" y="536" on="0"/>
        <pt x="571" y="505" on="1"/>
        <pt x="520" y="197" on="1"/>
        <pt x="515" y="169" on="0"/>
        <pt x="496" y="114" on="0"/>
        <pt x="463" y="65" on="0"/>
        <pt x="416" y="26" on="0"/>
        <pt x="362" y="1" on="0"/>
        <pt x="305" y="-8" on="0"/>
      </contour>
    </TTGlyph>
    <TTGlyph name="Eogonek" xMin="8" yMin="-193" xMax="609" yMax="735">
      <contour>
        <pt x="441" y="-193" on="1"/>
        <pt x="423" y="-193" on="0"/>
        <pt x="389" y="-189" on="0"/>
        <pt x="359" y="-177" on="0"/>
        <pt x="333" y="-156" on="0"/>
        <pt x="318" y="-128" on="0"/>
        <pt x="316" y="-93" on="0"/>
        <pt x="319" y="-76" on="1"/>
        <pt x="322" y="-56" on="0"/>
        <pt x="340" y="-16" on="0"/>
        <pt x="355" y="0" on="1"/>
        <pt x="448" y="0" on="1"/>
        <pt x="440" y="0" on="0"/>
        <pt x="425" y="-11" on="0"/>
        <pt x="415" y="-26" on="0"/>
        <pt x="410" y="-43" on="0"/>
        <pt x="409" y="-51" on="1"/>
        <pt x="407" y="-62" on="0"/>
        <pt x="410" y="-84" on="0"/>
        <pt x="423" y="-100" on="0"/>
        <pt x="444" y="-107" on="0"/>
        <pt x="455" y="-107" on="1"/>
        <pt x="530" y="-107" on="1"/>
        <pt x="516" y="-193" on="1"/>
      </contour>
      <contour>
        <pt x="8" y="0" on="1"/>
        <pt x="130" y="735" on="1"/>
        <pt x="609" y="735" on="1"/>
        <pt x="596" y="656" on="1"/>
        <pt x="207" y="656" on="1"/>
        <pt x="168" y="422" on="1"/>
        <pt x="484" y="422" on="1"/>
        <pt x="471" y="343" on="1"/>
        <pt x="155" y="343" on="1"/>
        <pt x="112" y="79" on="1"/>
        <pt x="500" y="79" on="1"/>
        <pt x="487" y="0" on="1"/>
        <pt x="448" y="0" on="1"/>
        <pt x="454" y="39" on="1"/>
        <pt x="441" y="39" on="0"/>
        <pt x="415" y="35" on="0"/>
        <pt x="389" y="26" on="0"/>
        <pt x="365" y="10" on="0"/>
        <pt x="355" y="0" on="1"/>
      </contour>
    </TTGlyph>
    <TTGlyph name="Eth" xMin="0" yMin="0" xMax="565" yMax="735">
      <contour>
        <pt x="0" y="0" on="1"/>
        <pt x="57" y="343" on="1"/>
        <pt x="24" y="343" on="1"/>
        <pt x="24" y="422" on="1"/>
        <pt x="70" y="422" on="1"/>
        <pt x="122" y="735" on="1"/>
        <pt x="353" y="735" on="1"/>
        <pt x="379" y="735" on="0"/>
        <pt x="429" y="727" on="0"/>
        <pt x="473" y="704" on="0"/>
        <pt x="509" y="670" on="0"/>
        <pt x="534" y="629" on="0"/>
        <pt x="551" y="582" on="0"/>
        <pt x="561" y="533" on="0"/>
        <pt x="565" y="481" on="0"/>
        <pt x="564" y="429" on="0"/>
        <pt x="558" y="377" on="0"/>
        <pt x="554" y="351" on="1"/>
        <pt x="550" y="327" on="0"/>
        <pt x="539" y="278" on="0"/>
        <pt x="525" y="231" on="0"/>
        <pt x="507" y="184" on="0"/>
        <pt x="483" y="139" on="0"/>
        <pt x="453" y="97" on="0"/>
        <pt x="417" y="59" on="0"/>
        <pt x="375" y="29" on="0"/>
        <pt x="329" y="8" on="0"/>
        <pt x="280" y="0" on="0"/>
        <pt x="255" y="0" on="1"/>
      </contour>
      <contour>
        <pt x="255" y="79" on="1"/>
        <pt x="274" y="79" on="0"/>
        <pt x="311" y="88" on="0"/>
        <pt x="345" y="108" on="0"/>
        <pt x="374" y="135" on="0"/>
        <pt x="398" y="167" on="0"/>
        <pt x="417" y="200" on="0"/>
        <pt x="433" y="236" on="0"/>
        <pt x="445" y="272" on="0"/>
        <pt x="454" y="308" on="0"/>
        <pt x="462" y="345" on="0"/>
        <pt x="465" y="363" on="1"/>
        <pt x="468" y="382" on="0"/>
        <pt x="473" y="418" on="0"/>
        <pt x="475" y="455" on="0"/>
        <pt x="475" y="492" on="0"/>
        <pt x="471" y="528" on="0"/>
        <pt x="464" y="563" on="0"/>
        <pt x="452" y="596" on="0"/>
        <pt x="433" y="625" on="0"/>
        <pt x="406" y="646" on="0"/>
        <pt x="371" y="656" on="0"/>
        <pt x="353" y="656" on="1"/>
        <pt x="199" y="656" on="1"/>
        <pt x="160" y="422" on="1"/>
        <pt x="323" y="422" on="1"/>
        <pt x="323" y="343" on="1"/>
        <pt x="147" y="343" on="1"/>
        <pt x="104" y="79" on="1"/>
      </contour>
    </TTGlyph>
    <TTGlyph name="Euro" xMin="9" yMin="-8" xMax="587" yMax="743">
      <contour>
        <pt x="266" y="-8" on="1"/>
        <pt x="241" y="-8" on="0"/>
        <pt x="191" y="-4" on="0"/>
        <pt x="144" y="8" on="0"/>
        <pt x="101" y="28" on="0"/>
        <pt x="65" y="57" on="0"/>
        <pt x="38" y="95" on="0"/>
        <pt x="24" y="141" on="0"/>
        <pt x="24" y="191" on="0"/>
        <pt x="28" y="216" on="1"/>
        <pt x="34" y="254" on="1"/>
        <pt x="9" y="254" on="1"/>
        <pt x="9" y="334" on="1"/>
        <pt x="47" y="334" on="1"/>
        <pt x="58" y="401" on="1"/>
        <pt x="34" y="401" on="1"/>
        <pt x="34" y="481" on="1"/>
        <pt x="72" y="481" on="1"/>
        <pt x="85" y="560" on="1"/>
        <pt x="88" y="582" on="0"/>
        <pt x="103" y="623" on="0"/>
        <pt x="129" y="661" on="0"/>
        <pt x="163" y="692" on="0"/>
        <pt x="202" y="715" on="0"/>
        <pt x="245" y="731" on="0"/>
        <pt x="288" y="740" on="0"/>
        <pt x="330" y="743" on="0"/>
        <pt x="352" y="743" on="1"/>
        <pt x="381" y="743" on="0"/>
        <pt x="440" y="737" on="0"/>
        <pt x="494" y="720" on="0"/>
        <pt x="541" y="691" on="0"/>
        <pt x="574" y="646" on="0"/>
        <pt x="587" y="590" on="0"/>
        <pt x="582" y="560" on="1"/>
        <pt x="582" y="558" on="0"/>
        <pt x="581" y="554" on="0"/>
        <pt x="581" y="551" on="1"/>
        <pt x="491" y="551" on="1"/>
        <pt x="491" y="553" on="0"/>
        <pt x="492" y="555" on="0"/>
        <pt x="492" y="557" on="1"/>
        <pt x="495" y="574" on="0"/>
        <pt x="486" y="608" on="0"/>
        <pt x="466" y="634" on="0"/>
        <pt x="437" y="651" on="0"/>
        <pt x="404" y="660" on="0"/>
        <pt x="369" y="664" on="0"/>
        <pt x="352" y="664" on="1"/>
        <pt x="333" y="664" on="0"/>
        <pt x="295" y="660" on="0"/>
        <pt x="258" y="649" on="0"/>
        <pt x="222" y="630" on="0"/>
        <pt x="193" y="602" on="0"/>
        <pt x="176" y="566" on="0"/>
        <pt x="173" y="547" on="1"/>
        <pt x="162" y="481" on="1"/>
        <pt x="414" y="481" on="1"/>
        <pt x="414" y="401" on="1"/>
        <pt x="149" y="401" on="1"/>
        <pt x="138" y="334" on="1"/>
        <pt x="390" y="334" on="1"/>
        <pt x="390" y="254" on="1"/>
        <pt x="125" y="254" on="1"/>
        <pt x="116" y="203" on="1"/>
        <pt x="113" y="183" on="0"/>
        <pt x="117" y="143" on="0"/>
        <pt x="137" y="110" on="0"/>
        <pt x="169" y="88" on="0"/>
        <pt x="206" y="76" on="0"/>
        <pt x="246" y="71" on="0"/>
        <pt x="266" y="71" on="1"/>
        <pt x="293" y="71" on="0"/>
        <pt x="347" y="81" on="0"/>
        <pt x="397" y="106" on="0"/>
        <pt x="439" y="147" on="0"/>
        <pt x="450" y="173" on="1"/>
        <pt x="533" y="143" on="1"/>
        <pt x="516" y="105" on="0"/>
        <pt x="457" y="44" on="0"/>
        <pt x="384" y="6" on="0"/>
        <pt x="305" y="-8" on="0"/>
      </contour>
    </TTGlyph>
    <TTGlyph name="F" xMin="28" yMin="0" xMax="609" yMax="735">
      <contour>
        <pt x="28" y="0" on="1"/>
        <pt x="150" y="735" on="1"/>
        <pt x="609" y="735" on="1"/>
        <pt x="596" y="656" on="1"/>
        <pt x="227" y="656" on="1"/>
        <pt x="189" y="422" on="1"/>
        <pt x="484" y="422" on="1"/>
        <pt x="471" y="343" on="1"/>
        <pt x="175" y="343" on="1"/>
        <pt x="119" y="0" on="1"/>
      </contour>
    </TTGlyph>
    <TTGlyph name="G" xMin="23" yMin="-8" xMax="587" yMax="743">
      <contour>
        <pt x="246" y="-8" on="1"/>
        <pt x="222" y="-8" on="0"/>
        <pt x="175" y="-2" on="0"/>
        <pt x="130" y="11" on="0"/>
        <pt x="91" y="32" on="0"/>
        <pt x="58" y="62" on="0"/>
        <pt x="35" y="100" on="0"/>
        <pt x="23" y="144" on="0"/>
        <pt x="24" y="192" on="0"/>
        <pt x="28" y="216" on="1"/>
        <pt x="85" y="560" on="1"/>
        <pt x="88" y="582" on="0"/>
        <pt x="103" y="623" on="0"/>
        <pt x="129" y="661" on="0"/>
        <pt x="163" y="692" on="0"/>
        <pt x="202" y="715" on="0"/>
        <pt x="245" y="731" on="0"/>
        <pt x="288" y="740" on="0"/>
        <pt x="330" y="743" on="0"/>
        <pt x="352" y="743" on="1"/>
        <pt x="381" y="743" on="0"/>
        <pt x="440" y="737" on="0"/>
        <pt x="494" y="720" on="0"/>
        <pt x="541" y="691" on="0"/>
        <pt x="574" y="646" on="0"/>
        <pt x="587" y="590" on="0"/>
        <pt x="582" y="560" on="1"/>
        <pt x="582" y="558" on="0"/>
        <pt x="581" y="554" on="0"/>
        <pt x="581" y="551" on="1"/>
        <pt x="491" y="551" on="1"/>
        <pt x="491" y="553" on="0"/>
        <pt x="492" y="555" on="0"/>
        <pt x="492" y="557" on="1"/>
        <pt x="495" y="574" on="0"/>
        <pt x="486" y="608" on="0"/>
        <pt x="466" y="634" on="0"/>
        <pt x="437" y="651" on="0"/>
        <pt x="404" y="660" on="0"/>
        <pt x="369" y="664" on="0"/>
        <pt x="352" y="664" on="1"/>
        <pt x="333" y="664" on="0"/>
        <pt x="295" y="660" on="0"/>
        <pt x="258" y="649" on="0"/>
        <pt x="222" y="630" on="0"/>
        <pt x="193" y="602" on="0"/>
        <pt x="176" y="566" on="0"/>
        <pt x="173" y="547" on="1"/>
        <pt x="116" y="203" on="1"/>
        <pt x="113" y="184" on="0"/>
        <pt x="116" y="146" on="0"/>
        <pt x="132" y="114" on="0"/>
        <pt x="159" y="91" on="0"/>
        <pt x="192" y="77" on="0"/>
        <pt x="229" y="71" on="0"/>
        <pt x="248" y="71" on="1"/>
        <pt x="289" y="71" on="0"/>
        <pt x="373" y="90" on="0"/>
        <pt x="414" y="103" on="1"/>
        <pt x="450" y="323" on="1"/>
        <pt x="297" y="323" on="1"/>
        <pt x="310" y="402" on="1"/>
        <pt x="554" y="402" on="1"/>
        <pt x="495" y="46" on="1"/>
        <pt x="465" y="34" on="0"/>
        <pt x="402" y="14" on="0"/>
        <pt x="340" y="0" on="0"/>
        <pt x="277" y="-8" on="0"/>
      </contour>
    </TTGlyph>
    <TTGlyph name="Gbreve" xMin="23" yMin="-8" xMax="587" yMax="955">
      <contour>
        <pt x="379" y="815" on="1"/>
        <pt x="358" y="815" on="0"/>
        <pt x="318" y="820" on="0"/>
        <pt x="282" y="835" on="0"/>
        <pt x="253" y="860" on="0"/>
        <pt x="236" y="894" on="0"/>
        <pt x="233" y="935" on="0"/>
        <pt x="237" y="955" on="1"/>
        <pt x="327" y="955" on="1"/>
        <pt x="325" y="942" on="0"/>
        <pt x="332" y="916" on="0"/>
        <pt x="352" y="900" on="0"/>
        <pt x="378" y="894" on="0"/>
        <pt x="392" y="894" on="1"/>
        <pt x="406" y="894" on="0"/>
        <pt x="434" y="900" on="0"/>
        <pt x="458" y="916" on="0"/>
        <pt x="474" y="941" on="0"/>
        <pt x="477" y="955" on="1"/>
        <pt x="567" y="955" on="1"/>
        <pt x="564" y="934" on="0"/>
        <pt x="547" y="894" on="0"/>
        <pt x="519" y="860" on="0"/>
        <pt x="482" y="835" on="0"/>
        <pt x="441" y="820" on="0"/>
        <pt x="399" y="815" on="0"/>
      </contour>
      <contour>
        <pt x="246" y="-8" on="1"/>
        <pt x="222" y="-8" on="0"/>
        <pt x="175" y="-2" on="0"/>
        <pt x="130" y="11" on="0"/>
        <pt x="91" y="32" on="0"/>
        <pt x="58" y="62" on="0"/>
        <pt x="35" y="100" on="0"/>
        <pt x="23" y="144" on="0"/>
        <pt x="24" y="192" on="0"/>
        <pt x="28" y="216" on="1"/>
        <pt x="85" y="560" on="1"/>
        <pt x="88" y="582" on="0"/>
        <pt x="103" y="623" on="0"/>
        <pt x="129" y="661" on="0"/>
        <pt x="163" y="692" on="0"/>
        <pt x="202" y="715" on="0"/>
        <pt x="245" y="731" on="0"/>
        <pt x="288" y="740" on="0"/>
        <pt x="330" y="743" on="0"/>
        <pt x="352" y="743" on="1"/>
        <pt x="381" y="743" on="0"/>
        <pt x="440" y="737" on="0"/>
        <pt x="494" y="720" on="0"/>
        <pt x="541" y="691" on="0"/>
        <pt x="574" y="646" on="0"/>
        <pt x="587" y="590" on="0"/>
        <pt x="582" y="560" on="1"/>
        <pt x="582" y="558" on="0"/>
        <pt x="581" y="554" on="0"/>
        <pt x="581" y="551" on="1"/>
        <pt x="491" y="551" on="1"/>
        <pt x="491" y="553" on="0"/>
        <pt x="492" y="555" on="0"/>
        <pt x="492" y="557" on="1"/>
        <pt x="495" y="574" on="0"/>
        <pt x="486" y="608" on="0"/>
        <pt x="466" y="634" on="0"/>
        <pt x="437" y="651" on="0"/>
        <pt x="404" y="660" on="0"/>
        <pt x="369" y="664" on="0"/>
        <pt x="352" y="664" on="1"/>
        <pt x="333" y="664" on="0"/>
        <pt x="295" y="660" on="0"/>
        <pt x="258" y="649" on="0"/>
        <pt x="222" y="630" on="0"/>
        <pt x="193" y="602" on="0"/>
        <pt x="176" y="566" on="0"/>
        <pt x="173" y="547" on="1"/>
        <pt x="116" y="203" on="1"/>
        <pt x="113" y="184" on="0"/>
        <pt x="116" y="146" on="0"/>
        <pt x="132" y="114" on="0"/>
        <pt x="159" y="91" on="0"/>
        <pt x="192" y="77" on="0"/>
        <pt x="229" y="71" on="0"/>
        <pt x="248" y="71" on="1"/>
        <pt x="289" y="71" on="0"/>
        <pt x="373" y="90" on="0"/>
        <pt x="414" y="103" on="1"/>
        <pt x="450" y="323" on="1"/>
        <pt x="297" y="323" on="1"/>
        <pt x="310" y="402" on="1"/>
        <pt x="554" y="402" on="1"/>
        <pt x="495" y="46" on="1"/>
        <pt x="465" y="34" on="0"/>
        <pt x="402" y="14" on="0"/>
        <pt x="340" y="0" on="0"/>
        <pt x="277" y="-8" on="0"/>
      </contour>
    </TTGlyph>
    <TTGlyph name="Gcircumflex" xMin="23" yMin="-8" xMax="587" yMax="980">
      <contour>
        <pt x="270" y="791" on="1"/>
        <pt x="203" y="855" on="1"/>
        <pt x="356" y="980" on="1"/>
        <pt x="456" y="980" on="1"/>
        <pt x="563" y="849" on="1"/>
        <pt x="484" y="797" on="1"/>
        <pt x="397" y="921" on="1"/>
      </contour>
      <contour>
        <pt x="246" y="-8" on="1"/>
        <pt x="222" y="-8" on="0"/>
        <pt x="175" y="-2" on="0"/>
        <pt x="130" y="11" on="0"/>
        <pt x="91" y="32" on="0"/>
        <pt x="58" y="62" on="0"/>
        <pt x="35" y="100" on="0"/>
        <pt x="23" y="144" on="0"/>
        <pt x="24" y="192" on="0"/>
        <pt x="28" y="216" on="1"/>
        <pt x="85" y="560" on="1"/>
        <pt x="88" y="582" on="0"/>
        <pt x="103" y="623" on="0"/>
        <pt x="129" y="661" on="0"/>
        <pt x="163" y="692" on="0"/>
        <pt x="202" y="715" on="0"/>
        <pt x="245" y="731" on="0"/>
        <pt x="288" y="740" on="0"/>
        <pt x="330" y="743" on="0"/>
        <pt x="352" y="743" on="1"/>
        <pt x="381" y="743" on="0"/>
        <pt x="440" y="737" on="0"/>
        <pt x="494" y="720" on="0"/>
        <pt x="541" y="691" on="0"/>
        <pt x="574" y="646" on="0"/>
        <pt x="587" y="590" on="0"/>
        <pt x="582" y="560" on="1"/>
        <pt x="582" y="558" on="0"/>
        <pt x="581" y="554" on="0"/>
        <pt x="581" y="551" on="1"/>
        <pt x="491" y="551" on="1"/>
        <pt x="491" y="553" on="0"/>
        <pt x="492" y="555" on="0"/>
        <pt x="492" y="557" on="1"/>
        <pt x="495" y="574" on="0"/>
        <pt x="486" y="608" on="0"/>
        <pt x="466" y="634" on="0"/>
        <pt x="437" y="651" on="0"/>
        <pt x="404" y="660" on="0"/>
        <pt x="369" y="664" on="0"/>
        <pt x="352" y="664" on="1"/>
        <pt x="333" y="664" on="0"/>
        <pt x="295" y="660" on="0"/>
        <pt x="258" y="649" on="0"/>
        <pt x="222" y="630" on="0"/>
        <pt x="193" y="602" on="0"/>
        <pt x="176" y="566" on="0"/>
        <pt x="173" y="547" on="1"/>
        <pt x="116" y="203" on="1"/>
        <pt x="113" y="184" on="0"/>
        <pt x="116" y="146" on="0"/>
        <pt x="132" y="114" on="0"/>
        <pt x="159" y="91" on="0"/>
        <pt x="192" y="77" on="0"/>
        <pt x="229" y="71" on="0"/>
        <pt x="248" y="71" on="1"/>
        <pt x="289" y="71" on="0"/>
        <pt x="373" y="90" on="0"/>
        <pt x="414" y="103" on="1"/>
        <pt x="450" y="323" on="1"/>
        <pt x="297" y="323" on="1"/>
        <pt x="310" y="402" on="1"/>
        <pt x="554" y="402" on="1"/>
        <pt x="495" y="46" on="1"/>
        <pt x="465" y="34" on="0"/>
        <pt x="402" y="14" on="0"/>
        <pt x="340" y="0" on="0"/>
        <pt x="277" y="-8" on="0"/>
      </contour>
    </TTGlyph>
    <TTGlyph name="Gdotaccent" xMin="23" yMin="-8" xMax="587" yMax="951">
      <contour>
        <pt x="390" y="819" on="1"/>
        <pt x="374" y="819" on="0"/>
        <pt x="345" y="830" on="0"/>
        <pt x="328" y="854" on="0"/>
        <pt x="323" y="885" on="0"/>
        <pt x="325" y="901" on="1"/>
        <pt x="327" y="912" on="0"/>
        <pt x="338" y="932" on="0"/>
        <pt x="357" y="946" on="0"/>
        <pt x="379" y="951" on="0"/>
        <pt x="390" y="951" on="1"/>
        <pt x="406" y="951" on="0"/>
        <pt x="435" y="940" on="0"/>
        <pt x="453" y="916" on="0"/>
        <pt x="458" y="885" on="0"/>
        <pt x="455" y="869" on="1"/>
        <pt x="453" y="858" on="0"/>
        <pt x="442" y="838" on="0"/>
        <pt x="423" y="824" on="0"/>
        <pt x="401" y="819" on="0"/>
      </contour>
      <contour>
        <pt x="246" y="-8" on="1"/>
        <pt x="222" y="-8" on="0"/>
        <pt x="175" y="-2" on="0"/>
        <pt x="130" y="11" on="0"/>
        <pt x="91" y="32" on="0"/>
        <pt x="58" y="62" on="0"/>
        <pt x="35" y="100" on="0"/>
        <pt x="23" y="144" on="0"/>
        <pt x="24" y="192" on="0"/>
        <pt x="28" y="216" on="1"/>
        <pt x="85" y="560" on="1"/>
        <pt x="88" y="582" on="0"/>
        <pt x="103" y="623" on="0"/>
        <pt x="129" y="661" on="0"/>
        <pt x="163" y="692" on="0"/>
        <pt x="202" y="715" on="0"/>
        <pt x="245" y="731" on="0"/>
        <pt x="288" y="740" on="0"/>
        <pt x="330" y="743" on="0"/>
        <pt x="352" y="743" on="1"/>
        <pt x="381" y="743" on="0"/>
        <pt x="440" y="737" on="0"/>
        <pt x="494" y="720" on="0"/>
        <pt x="541" y="691" on="0"/>
        <pt x="574" y="646" on="0"/>
        <pt x="587" y="590" on="0"/>
        <pt x="582" y="560" on="1"/>
        <pt x="582" y="558" on="0"/>
        <pt x="581" y="554" on="0"/>
        <pt x="581" y="551" on="1"/>
        <pt x="491" y="551" on="1"/>
        <pt x="491" y="553" on="0"/>
        <pt x="492" y="555" on="0"/>
        <pt x="492" y="557" on="1"/>
        <pt x="495" y="574" on="0"/>
        <pt x="486" y="608" on="0"/>
        <pt x="466" y="634" on="0"/>
        <pt x="437" y="651" on="0"/>
        <pt x="404" y="660" on="0"/>
        <pt x="369" y="664" on="0"/>
        <pt x="352" y="664" on="1"/>
        <pt x="333" y="664" on="0"/>
        <pt x="295" y="660" on="0"/>
        <pt x="258" y="649" on="0"/>
        <pt x="222" y="630" on="0"/>
        <pt x="193" y="602" on="0"/>
        <pt x="176" y="566" on="0"/>
        <pt x="173" y="547" on="1"/>
        <pt x="116" y="203" on="1"/>
        <pt x="113" y="184" on="0"/>
        <pt x="116" y="146" on="0"/>
        <pt x="132" y="114" on="0"/>
        <pt x="159" y="91" on="0"/>
        <pt x="192" y="77" on="0"/>
        <pt x="229" y="71" on="0"/>
        <pt x="248" y="71" on="1"/>
        <pt x="289" y="71" on="0"/>
        <pt x="373" y="90" on="0"/>
        <pt x="414" y="103" on="1"/>
        <pt x="450" y="323" on="1"/>
        <pt x="297" y="323" on="1"/>
        <pt x="310" y="402" on="1"/>
        <pt x="554" y="402" on="1"/>
        <pt x="495" y="46" on="1"/>
        <pt x="465" y="34" on="0"/>
        <pt x="402" y="14" on="0"/>
        <pt x="340" y="0" on="0"/>
        <pt x="277" y="-8" on="0"/>
      </contour>
    </TTGlyph>
    <TTGlyph name="H" xMin="0" yMin="0" xMax="609" yMax="735">
      <contour>
        <pt x="0" y="0" on="1"/>
        <pt x="122" y="735" on="1"/>
        <pt x="212" y="735" on="1"/>
        <pt x="160" y="418" on="1"/>
        <pt x="466" y="418" on="1"/>
        <pt x="519" y="735" on="1"/>
        <pt x="609" y="735" on="1"/>
        <pt x="487" y="0" on="1"/>
        <pt x="397" y="0" on="1"/>
        <pt x="453" y="339" on="1"/>
        <pt x="147" y="339" on="1"/>
        <pt x="91" y="0" on="1"/>
      </contour>
    </TTGlyph>
    <TTGlyph name="Hbar" xMin="0" yMin="0" xMax="615" yMax="735">
      <contour>
        <pt x="0" y="0" on="1"/>
        <pt x="82" y="493" on="1"/>
        <pt x="49" y="493" on="1"/>
        <pt x="49" y="572" on="1"/>
        <pt x="95" y="572" on="1"/>
        <pt x="122" y="735" on="1"/>
        <pt x="212" y="735" on="1"/>
        <pt x="185" y="572" on="1"/>
        <pt x="492" y="572" on="1"/>
        <pt x="519" y="735" on="1"/>
        <pt x="609" y="735" on="1"/>
        <pt x="582" y="572" on="1"/>
        <pt x="615" y="572" on="1"/>
        <pt x="615" y="493" on="1"/>
        <pt x="569" y="493" on="1"/>
        <pt x="487" y="0" on="1"/>
        <pt x="397" y="0" on="1"/>
        <pt x="453" y="339" on="1"/>
        <pt x="147" y="339" on="1"/>
        <pt x="91" y="0" on="1"/>
      </contour>
      <contour>
        <pt x="160" y="418" on="1"/>
        <pt x="466" y="418" on="1"/>
        <pt x="479" y="493" on="1"/>
        <pt x="172" y="493" on="1"/>
      </contour>
    </TTGlyph>
    <TTGlyph name="Hcircumflex" xMin="0" yMin="0" xMax="609" yMax="980">
      <contour>
        <pt x="270" y="791" on="1"/>
        <pt x="203" y="855" on="1"/>
        <pt x="356" y="980" on="1"/>
        <pt x="456" y="980" on="1"/>
        <pt x="563" y="849" on="1"/>
        <pt x="484" y="797" on="1"/>
        <pt x="397" y="921" on="1"/>
      </contour>
      <contour>
        <pt x="0" y="0" on="1"/>
        <pt x="122" y="735" on="1"/>
        <pt x="212" y="735" on="1"/>
        <pt x="160" y="418" on="1"/>
        <pt x="466" y="418" on="1"/>
        <pt x="519" y="735" on="1"/>
        <pt x="609" y="735" on="1"/>
        <pt x="487" y="0" on="1"/>
        <pt x="397" y="0" on="1"/>
        <pt x="453" y="339" on="1"/>
        <pt x="147" y="339" on="1"/>
        <pt x="91" y="0" on="1"/>
      </contour>
    </TTGlyph>
    <TTGlyph name="I" xMin="198" yMin="0" xMax="411" yMax="735">
      <contour>
        <pt x="198" y="0" on="1"/>
        <pt x="320" y="735" on="1"/>
        <pt x="411" y="735" on="1"/>
        <pt x="289" y="0" on="1"/>
      </contour>
    </TTGlyph>
    <TTGlyph name="IJ" xMin="56" yMin="-8" xMax="630" yMax="735">
      <contour>
        <pt x="389" y="-8" on="1"/>
        <pt x="367" y="-8" on="0"/>
        <pt x="327" y="8" on="0"/>
        <pt x="301" y="39" on="0"/>
        <pt x="287" y="79" on="0"/>
        <pt x="282" y="122" on="0"/>
        <pt x="283" y="167" on="0"/>
        <pt x="287" y="189" on="1"/>
        <pt x="354" y="189" on="1"/>
        <pt x="352" y="177" on="0"/>
        <pt x="350" y="153" on="0"/>
        <pt x="350" y="129" on="0"/>
        <pt x="353" y="106" on="0"/>
        <pt x="362" y="85" on="0"/>
        <pt x="380" y="71" on="0"/>
        <pt x="392" y="71" on="1"/>
        <pt x="408" y="71" on="0"/>
        <pt x="433" y="95" on="0"/>
        <pt x="450" y="123" on="0"/>
        <pt x="461" y="153" on="0"/>
        <pt x="470" y="183" on="0"/>
        <pt x="476" y="213" on="0"/>
        <pt x="478" y="229" on="1"/>
        <pt x="562" y="735" on="1"/>
        <pt x="630" y="735" on="1"/>
        <pt x="544" y="216" on="1"/>
        <pt x="541" y="198" on="0"/>
        <pt x="534" y="163" on="0"/>
        <pt x="524" y="128" on="0"/>
        <pt x="510" y="94" on="0"/>
        <pt x="493" y="61" on="0"/>
        <pt x="471" y="30" on="0"/>
        <pt x="442" y="5" on="0"/>
        <pt x="407" y="-8" on="0"/>
      </contour>
      <contour>
        <pt x="56" y="0" on="1"/>
        <pt x="178" y="735" on="1"/>
        <pt x="245" y="735" on="1"/>
        <pt x="124" y="0" on="1"/>
      </contour>
    </TTGlyph>
    <TTGlyph name="IJ.WWID" xMin="198" yMin="-8" xMax="1181" yMax="735">
      <component glyphName="I" x="0" y="0" flags="0x1000"/>
      <component glyphName="J" x="600" y="0" flags="0x1000"/>
    </TTGlyph>
    <TTGlyph name="Iacute" xMin="198" yMin="0" xMax="534" yMax="988">
      <component glyphName="I" x="0" y="0" flags="0x1000"/>
      <component glyphName="acutecomb" x="634" y="205" flags="0x1000"/>
    </TTGlyph>
    <TTGlyph name="Ibreve" xMin="198" yMin="0" xMax="567" yMax="955">
      <contour>
        <pt x="379" y="815" on="1"/>
        <pt x="358" y="815" on="0"/>
        <pt x="318" y="820" on="0"/>
        <pt x="282" y="835" on="0"/>
        <pt x="253" y="860" on="0"/>
        <pt x="236" y="894" on="0"/>
        <pt x="233" y="935" on="0"/>
        <pt x="237" y="955" on="1"/>
        <pt x="327" y="955" on="1"/>
        <pt x="325" y="942" on="0"/>
        <pt x="332" y="916" on="0"/>
        <pt x="352" y="900" on="0"/>
        <pt x="378" y="894" on="0"/>
        <pt x="392" y="894" on="1"/>
        <pt x="406" y="894" on="0"/>
        <pt x="434" y="900" on="0"/>
        <pt x="458" y="916" on="0"/>
        <pt x="474" y="941" on="0"/>
        <pt x="477" y="955" on="1"/>
        <pt x="567" y="955" on="1"/>
        <pt x="564" y="934" on="0"/>
        <pt x="547" y="894" on="0"/>
        <pt x="519" y="860" on="0"/>
        <pt x="482" y="835" on="0"/>
        <pt x="441" y="820" on="0"/>
        <pt x="399" y="815" on="0"/>
      </contour>
      <contour>
        <pt x="198" y="0" on="1"/>
        <pt x="320" y="735" on="1"/>
        <pt x="411" y="735" on="1"/>
        <pt x="289" y="0" on="1"/>
      </contour>
    </TTGlyph>
    <TTGlyph name="Icircumflex" xMin="198" yMin="0" xMax="563" yMax="980">
      <contour>
        <pt x="270" y="791" on="1"/>
        <pt x="203" y="855" on="1"/>
        <pt x="356" y="980" on="1"/>
        <pt x="456" y="980" on="1"/>
        <pt x="563" y="849" on="1"/>
        <pt x="484" y="797" on="1"/>
        <pt x="397" y="921" on="1"/>
      </contour>
      <contour>
        <pt x="198" y="0" on="1"/>
        <pt x="320" y="735" on="1"/>
        <pt x="411" y="735" on="1"/>
        <pt x="289" y="0" on="1"/>
      </contour>
    </TTGlyph>
    <TTGlyph name="Idieresis" xMin="198" yMin="0" xMax="558" yMax="951">
      <contour>
        <pt x="490" y="819" on="1"/>
        <pt x="474" y="819" on="0"/>
        <pt x="445" y="830" on="0"/>
        <pt x="428" y="854" on="0"/>
        <pt x="423" y="885" on="0"/>
        <pt x="425" y="901" on="1"/>
        <pt x="427" y="912" on="0"/>
        <pt x="438" y="932" on="0"/>
        <pt x="457" y="946" on="0"/>
        <pt x="479" y="951" on="0"/>
        <pt x="490" y="951" on="1"/>
        <pt x="506" y="951" on="0"/>
        <pt x="535" y="940" on="0"/>
        <pt x="553" y="916" on="0"/>
        <pt x="558" y="885" on="0"/>
        <pt x="555" y="869" on="1"/>
        <pt x="553" y="858" on="0"/>
        <pt x="542" y="838" on="0"/>
        <pt x="523" y="824" on="0"/>
        <pt x="501" y="819" on="0"/>
      </contour>
      <contour>
        <pt x="290" y="819" on="1"/>
        <pt x="274" y="819" on="0"/>
        <pt x="245" y="830" on="0"/>
        <pt x="228" y="854" on="0"/>
        <pt x="223" y="885" on="0"/>
        <pt x="225" y="901" on="1"/>
        <pt x="227" y="912" on="0"/>
        <pt x="238" y="932" on="0"/>
        <pt x="257" y="946" on="0"/>
        <pt x="279" y="951" on="0"/>
        <pt x="290" y="951" on="1"/>
        <pt x="306" y="951" on="0"/>
        <pt x="335" y="940" on="0"/>
        <pt x="353" y="916" on="0"/>
        <pt x="358" y="885" on="0"/>
        <pt x="355" y="869" on="1"/>
        <pt x="353" y="858" on="0"/>
        <pt x="342" y="838" on="0"/>
        <pt x="323" y="824" on="0"/>
        <pt x="301" y="819" on="0"/>
      </contour>
      <contour>
        <pt x="198" y="0" on="1"/>
        <pt x="320" y="735" on="1"/>
        <pt x="411" y="735" on="1"/>
        <pt x="289" y="0" on="1"/>
      </contour>
    </TTGlyph>
    <TTGlyph name="Idotaccent" xMin="198" yMin="0" xMax="458" yMax="951">
      <contour>
        <pt x="390" y="819" on="1"/>
        <pt x="374" y="819" on="0"/>
        <pt x="345" y="830" on="0"/>
        <pt x="328" y="854" on="0"/>
        <pt x="323" y="885" on="0"/>
        <pt x="325" y="901" on="1"/>
        <pt x="327" y="912" on="0"/>
        <pt x="338" y="932" on="0"/>
        <pt x="357" y="946" on="0"/>
        <pt x="379" y="951" on="0"/>
        <pt x="390" y="951" on="1"/>
        <pt x="406" y="951" on="0"/>
        <pt x="435" y="940" on="0"/>
        <pt x="453" y="916" on="0"/>
        <pt x="458" y="885" on="0"/>
        <pt x="455" y="869" on="1"/>
        <pt x="453" y="858" on="0"/>
        <pt x="442" y="838" on="0"/>
        <pt x="423" y="824" on="0"/>
        <pt x="401" y="819" on="0"/>
      </contour>
      <contour>
        <pt x="198" y="0" on="1"/>
        <pt x="320" y="735" on="1"/>
        <pt x="411" y="735" on="1"/>
        <pt x="289" y="0" on="1"/>
      </contour>
    </TTGlyph>
    <TTGlyph name="Igrave" xMin="198" yMin="0" xMax="453" yMax="983">
      <contour>
        <pt x="392" y="792" on="1"/>
        <pt x="264" y="927" on="1"/>
        <pt x="339" y="983" on="1"/>
        <pt x="453" y="838" on="1"/>
      </contour>
      <contour>
        <pt x="198" y="0" on="1"/>
        <pt x="320" y="735" on="1"/>
        <pt x="411" y="735" on="1"/>
        <pt x="289" y="0" on="1"/>
      </contour>
    </TTGlyph>
    <TTGlyph name="Imacron" xMin="198" yMin="0" xMax="540" yMax="925">
      <contour>
        <pt x="540" y="845" on="1"/>
        <pt x="240" y="845" on="1"/>
        <pt x="240" y="925" on="1"/>
        <pt x="540" y="925" on="1"/>
      </contour>
      <contour>
        <pt x="198" y="0" on="1"/>
        <pt x="320" y="735" on="1"/>
        <pt x="411" y="735" on="1"/>
        <pt x="289" y="0" on="1"/>
      </contour>
    </TTGlyph>
    <TTGlyph name="Iogonek" xMin="112" yMin="-193" xMax="411" yMax="735">
      <contour>
        <pt x="244" y="0" on="1"/>
        <pt x="250" y="39" on="1"/>
        <pt x="239" y="39" on="0"/>
        <pt x="215" y="36" on="0"/>
        <pt x="204" y="33" on="1"/>
        <pt x="320" y="735" on="1"/>
        <pt x="411" y="735" on="1"/>
        <pt x="289" y="0" on="1"/>
      </contour>
      <contour>
        <pt x="237" y="-193" on="1"/>
        <pt x="219" y="-193" on="0"/>
        <pt x="185" y="-189" on="0"/>
        <pt x="155" y="-177" on="0"/>
        <pt x="129" y="-156" on="0"/>
        <pt x="114" y="-128" on="0"/>
        <pt x="112" y="-93" on="0"/>
        <pt x="115" y="-76" on="1"/>
        <pt x="118" y="-58" on="0"/>
        <pt x="131" y="-24" on="0"/>
        <pt x="154" y="6" on="0"/>
        <pt x="186" y="27" on="0"/>
        <pt x="204" y="33" on="1"/>
        <pt x="198" y="0" on="1"/>
        <pt x="244" y="0" on="1"/>
        <pt x="235" y="0" on="0"/>
        <pt x="220" y="-11" on="0"/>
        <pt x="211" y="-26" on="0"/>
        <pt x="206" y="-43" on="0"/>
        <pt x="205" y="-51" on="1"/>
        <pt x="203" y="-62" on="0"/>
        <pt x="206" y="-84" on="0"/>
        <pt x="219" y="-100" on="0"/>
        <pt x="240" y="-107" on="0"/>
        <pt x="251" y="-107" on="1"/>
        <pt x="326" y="-107" on="1"/>
        <pt x="312" y="-193" on="1"/>
      </contour>
    </TTGlyph>
    <TTGlyph name="Itilde" xMin="194" yMin="0" xMax="589" yMax="977">
      <contour>
        <pt x="269" y="811" on="1"/>
        <pt x="194" y="855" on="1"/>
        <pt x="206" y="872" on="0"/>
        <pt x="228" y="901" on="0"/>
        <pt x="248" y="925" on="0"/>
        <pt x="268" y="945" on="0"/>
        <pt x="295" y="964" on="0"/>
        <pt x="326" y="976" on="0"/>
        <pt x="341" y="976" on="1"/>
        <pt x="347" y="976" on="0"/>
        <pt x="357" y="974" on="0"/>
        <pt x="367" y="972" on="0"/>
        <pt x="377" y="968" on="0"/>
        <pt x="386" y="964" on="0"/>
        <pt x="394" y="958" on="0"/>
        <pt x="400" y="952" on="0"/>
        <pt x="408" y="944" on="0"/>
        <pt x="415" y="936" on="0"/>
        <pt x="421" y="929" on="0"/>
        <pt x="426" y="921" on="0"/>
        <pt x="431" y="914" on="0"/>
        <pt x="436" y="906" on="0"/>
        <pt x="442" y="897" on="0"/>
        <pt x="445" y="894" on="1"/>
        <pt x="448" y="896" on="0"/>
        <pt x="457" y="905" on="0"/>
        <pt x="462" y="910" on="0"/>
        <pt x="468" y="916" on="0"/>
        <pt x="474" y="922" on="0"/>
        <pt x="480" y="930" on="0"/>
        <pt x="487" y="939" on="0"/>
        <pt x="494" y="948" on="0"/>
        <pt x="502" y="959" on="0"/>
        <pt x="510" y="971" on="0"/>
        <pt x="514" y="977" on="1"/>
        <pt x="589" y="933" on="1"/>
        <pt x="577" y="915" on="0"/>
        <pt x="556" y="886" on="0"/>
        <pt x="535" y="863" on="0"/>
        <pt x="515" y="842" on="0"/>
        <pt x="488" y="824" on="0"/>
        <pt x="458" y="812" on="0"/>
        <pt x="442" y="812" on="1"/>
        <pt x="433" y="812" on="0"/>
        <pt x="416" y="816" on="0"/>
        <pt x="398" y="823" on="0"/>
        <pt x="386" y="833" on="0"/>
        <pt x="372" y="847" on="0"/>
        <pt x="362" y="860" on="0"/>
        <pt x="353" y="873" on="0"/>
        <pt x="342" y="890" on="0"/>
        <pt x="339" y="894" on="1"/>
        <pt x="336" y="892" on="0"/>
        <pt x="326" y="883" on="0"/>
        <pt x="321" y="878" on="0"/>
        <pt x="316" y="872" on="0"/>
        <pt x="310" y="865" on="0"/>
        <pt x="303" y="858" on="0"/>
        <pt x="297" y="849" on="0"/>
        <pt x="289" y="839" on="0"/>
        <pt x="282" y="829" on="0"/>
        <pt x="273" y="817" on="0"/>
      </contour>
      <contour>
        <pt x="198" y="0" on="1"/>
        <pt x="320" y="735" on="1"/>
        <pt x="411" y="735" on="1"/>
        <pt x="289" y="0" on="1"/>
      </contour>
    </TTGlyph>
    <TTGlyph name="J" xMin="10" yMin="-8" xMax="581" yMax="735">
      <contour>
        <pt x="232" y="-8" on="1"/>
        <pt x="202" y="-8" on="0"/>
        <pt x="145" y="-1" on="0"/>
        <pt x="92" y="18" on="0"/>
        <pt x="48" y="51" on="0"/>
        <pt x="20" y="98" on="0"/>
        <pt x="10" y="155" on="0"/>
        <pt x="14" y="184" on="1"/>
        <pt x="14" y="184" on="0"/>
        <pt x="15" y="185" on="0"/>
        <pt x="15" y="186" on="1"/>
        <pt x="104" y="186" on="1"/>
        <pt x="104" y="185" on="0"/>
        <pt x="104" y="185" on="0"/>
        <pt x="104" y="185" on="1"/>
        <pt x="101" y="168" on="0"/>
        <pt x="107" y="134" on="0"/>
        <pt x="124" y="106" on="0"/>
        <pt x="150" y="87" on="0"/>
        <pt x="181" y="75" on="0"/>
        <pt x="214" y="71" on="0"/>
        <pt x="232" y="71" on="1"/>
        <pt x="252" y="71" on="0"/>
        <pt x="294" y="79" on="0"/>
        <pt x="334" y="99" on="0"/>
        <pt x="367" y="130" on="0"/>
        <pt x="390" y="167" on="0"/>
        <pt x="403" y="208" on="0"/>
        <pt x="407" y="229" on="1"/>
        <pt x="491" y="735" on="1"/>
        <pt x="581" y="735" on="1"/>
        <pt x="495" y="216" on="1"/>
        <pt x="490" y="185" on="0"/>
        <pt x="470" y="126" on="0"/>
        <pt x="433" y="72" on="0"/>
        <pt x="382" y="29" on="0"/>
        <pt x="324" y="2" on="0"/>
        <pt x="262" y="-8" on="0"/>
      </contour>
    </TTGlyph>
    <TTGlyph name="Jcircumflex" xMin="10" yMin="-8" xMax="711" yMax="980">
      <contour>
        <pt x="418" y="791" on="1"/>
        <pt x="351" y="855" on="1"/>
        <pt x="504" y="980" on="1"/>
        <pt x="604" y="980" on="1"/>
        <pt x="711" y="849" on="1"/>
        <pt x="632" y="797" on="1"/>
        <pt x="545" y="921" on="1"/>
      </contour>
      <contour>
        <pt x="232" y="-8" on="1"/>
        <pt x="202" y="-8" on="0"/>
        <pt x="145" y="-1" on="0"/>
        <pt x="92" y="18" on="0"/>
        <pt x="48" y="51" on="0"/>
        <pt x="20" y="98" on="0"/>
        <pt x="10" y="155" on="0"/>
        <pt x="14" y="184" on="1"/>
        <pt x="14" y="184" on="0"/>
        <pt x="15" y="185" on="0"/>
        <pt x="15" y="186" on="1"/>
        <pt x="104" y="186" on="1"/>
        <pt x="104" y="185" on="0"/>
        <pt x="104" y="185" on="0"/>
        <pt x="104" y="185" on="1"/>
        <pt x="101" y="168" on="0"/>
        <pt x="107" y="134" on="0"/>
        <pt x="124" y="106" on="0"/>
        <pt x="150" y="87" on="0"/>
        <pt x="181" y="75" on="0"/>
        <pt x="214" y="71" on="0"/>
        <pt x="232" y="71" on="1"/>
        <pt x="252" y="71" on="0"/>
        <pt x="294" y="79" on="0"/>
        <pt x="334" y="99" on="0"/>
        <pt x="367" y="130" on="0"/>
        <pt x="390" y="167" on="0"/>
        <pt x="403" y="208" on="0"/>
        <pt x="407" y="229" on="1"/>
        <pt x="491" y="735" on="1"/>
        <pt x="581" y="735" on="1"/>
        <pt x="495" y="216" on="1"/>
        <pt x="490" y="185" on="0"/>
        <pt x="470" y="126" on="0"/>
        <pt x="433" y="72" on="0"/>
        <pt x="382" y="29" on="0"/>
        <pt x="324" y="2" on="0"/>
        <pt x="262" y="-8" on="0"/>
      </contour>
    </TTGlyph>
    <TTGlyph name="K" xMin="19" yMin="0" xMax="624" yMax="735">
      <contour>
        <pt x="19" y="0" on="1"/>
        <pt x="140" y="735" on="1"/>
        <pt x="231" y="735" on="1"/>
        <pt x="174" y="391" on="1"/>
        <pt x="506" y="735" on="1"/>
        <pt x="624" y="735" on="1"/>
        <pt x="302" y="401" on="1"/>
        <pt x="502" y="0" on="1"/>
        <pt x="404" y="0" on="1"/>
        <pt x="270" y="269" on="1"/>
        <pt x="237" y="335" on="1"/>
        <pt x="150" y="244" on="1"/>
        <pt x="109" y="0" on="1"/>
      </contour>
    </TTGlyph>
    <TTGlyph name="L" xMin="28" yMin="0" xMax="508" yMax="735">
      <contour>
        <pt x="28" y="0" on="1"/>
        <pt x="150" y="735" on="1"/>
        <pt x="240" y="735" on="1"/>
        <pt x="132" y="79" on="1"/>
        <pt x="508" y="79" on="1"/>
        <pt x="495" y="0" on="1"/>
      </contour>
    </TTGlyph>
    <TTGlyph name="Lacute" xMin="28" yMin="0" xMax="534" yMax="988">
      <component glyphName="L" x="0" y="0" flags="0x1000"/>
      <component glyphName="acutecomb" x="634" y="205" flags="0x1000"/>
    </TTGlyph>
    <TTGlyph name="Lcaron" xMin="28" yMin="0" xMax="604" yMax="777">
      <contour>
        <pt x="509" y="568" on="1"/>
        <pt x="470" y="613" on="1"/>
        <pt x="485" y="624" on="0"/>
        <pt x="508" y="651" on="0"/>
        <pt x="517" y="667" on="1"/>
        <pt x="509" y="669" on="0"/>
        <pt x="496" y="679" on="0"/>
        <pt x="489" y="694" on="0"/>
        <pt x="488" y="712" on="0"/>
        <pt x="489" y="720" on="1"/>
        <pt x="491" y="732" on="0"/>
        <pt x="502" y="754" on="0"/>
        <pt x="520" y="770" on="0"/>
        <pt x="544" y="777" on="0"/>
        <pt x="555" y="777" on="1"/>
        <pt x="566" y="777" on="0"/>
        <pt x="587" y="770" on="0"/>
        <pt x="601" y="754" on="0"/>
        <pt x="604" y="732" on="0"/>
        <pt x="602" y="720" on="1"/>
        <pt x="598" y="699" on="0"/>
        <pt x="583" y="656" on="0"/>
        <pt x="559" y="617" on="0"/>
        <pt x="528" y="582" on="0"/>
      </contour>
      <contour>
        <pt x="28" y="0" on="1"/>
        <pt x="150" y="735" on="1"/>
        <pt x="240" y="735" on="1"/>
        <pt x="132" y="79" on="1"/>
        <pt x="508" y="79" on="1"/>
        <pt x="495" y="0" on="1"/>
      </contour>
    </TTGlyph>
    <TTGlyph name="Ldot" xMin="28" yMin="0" xMax="508" yMax="735">
      <contour>
        <pt x="28" y="0" on="1"/>
        <pt x="150" y="735" on="1"/>
        <pt x="240" y="735" on="1"/>
        <pt x="132" y="79" on="1"/>
        <pt x="508" y="79" on="1"/>
        <pt x="495" y="0" on="1"/>
      </contour>
      <contour>
        <pt x="407" y="333" on="1"/>
        <pt x="389" y="333" on="0"/>
        <pt x="356" y="346" on="0"/>
        <pt x="337" y="372" on="0"/>
        <pt x="331" y="407" on="0"/>
        <pt x="334" y="425" on="1"/>
        <pt x="336" y="437" on="0"/>
        <pt x="349" y="460" on="0"/>
        <pt x="370" y="476" on="0"/>
        <pt x="395" y="481" on="0"/>
        <pt x="407" y="481" on="1"/>
        <pt x="425" y="481" on="0"/>
        <pt x="457" y="468" on="0"/>
        <pt x="477" y="442" on="0"/>
        <pt x="483" y="407" on="0"/>
        <pt x="480" y="389" on="1"/>
        <pt x="478" y="377" on="0"/>
        <pt x="465" y="354" on="0"/>
        <pt x="444" y="338" on="0"/>
        <pt x="419" y="333" on="0"/>
      </contour>
    </TTGlyph>
    <TTGlyph name="Lslash" xMin="7" yMin="0" xMax="508" yMax="735">
      <contour>
        <pt x="28" y="0" on="1"/>
        <pt x="79" y="306" on="1"/>
        <pt x="45" y="291" on="1"/>
        <pt x="7" y="362" on="1"/>
        <pt x="95" y="403" on="1"/>
        <pt x="150" y="735" on="1"/>
        <pt x="240" y="735" on="1"/>
        <pt x="193" y="448" on="1"/>
        <pt x="356" y="523" on="1"/>
        <pt x="393" y="452" on="1"/>
        <pt x="177" y="352" on="1"/>
        <pt x="132" y="79" on="1"/>
        <pt x="508" y="79" on="1"/>
        <pt x="495" y="0" on="1"/>
      </contour>
    </TTGlyph>
    <TTGlyph name="M" xMin="0" yMin="0" xMax="609" yMax="735">
      <contour>
        <pt x="0" y="0" on="1"/>
        <pt x="122" y="735" on="1"/>
        <pt x="267" y="735" on="1"/>
        <pt x="279" y="211" on="1"/>
        <pt x="463" y="735" on="1"/>
        <pt x="609" y="735" on="1"/>
        <pt x="487" y="0" on="1"/>
        <pt x="397" y="0" on="1"/>
        <pt x="421" y="147" on="1"/>
        <pt x="441" y="264" on="0"/>
        <pt x="481" y="498" on="0"/>
        <pt x="500" y="615" on="1"/>
        <pt x="283" y="0" on="1"/>
        <pt x="204" y="0" on="1"/>
        <pt x="191" y="615" on="1"/>
        <pt x="172" y="498" on="0"/>
        <pt x="134" y="264" on="0"/>
        <pt x="115" y="147" on="1"/>
        <pt x="91" y="0" on="1"/>
      </contour>
    </TTGlyph>
    <TTGlyph name="N" xMin="0" yMin="0" xMax="609" yMax="735">
      <contour>
        <pt x="0" y="0" on="1"/>
        <pt x="122" y="735" on="1"/>
        <pt x="245" y="735" on="1"/>
        <pt x="419" y="126" on="1"/>
        <pt x="432" y="205" on="0"/>
        <pt x="457" y="362" on="0"/>
        <pt x="470" y="441" on="1"/>
        <pt x="519" y="735" on="1"/>
        <pt x="609" y="735" on="1"/>
        <pt x="487" y="0" on="1"/>
        <pt x="364" y="0" on="1"/>
        <pt x="190" y="609" on="1"/>
        <pt x="177" y="530" on="0"/>
        <pt x="152" y="373" on="0"/>
        <pt x="139" y="294" on="1"/>
        <pt x="91" y="0" on="1"/>
      </contour>
    </TTGlyph>
    <TTGlyph name="Nacute" xMin="0" yMin="0" xMax="609" yMax="988">
      <component glyphName="N" x="0" y="0" flags="0x1000"/>
      <component glyphName="acutecomb" x="634" y="205" flags="0x1000"/>
    </TTGlyph>
    <TTGlyph name="Ncaron" xMin="0" yMin="0" xMax="609" yMax="987">
      <contour>
        <pt x="326" y="798" on="1"/>
        <pt x="219" y="929" on="1"/>
        <pt x="230" y="936" on="1"/>
        <pt x="298" y="981" on="1"/>
        <pt x="384" y="857" on="1"/>
        <pt x="512" y="987" on="1"/>
        <pt x="579" y="923" on="1"/>
        <pt x="426" y="798" on="1"/>
      </contour>
      <contour>
        <pt x="0" y="0" on="1"/>
        <pt x="122" y="735" on="1"/>
        <pt x="245" y="735" on="1"/>
        <pt x="419" y="126" on="1"/>
        <pt x="432" y="205" on="0"/>
        <pt x="457" y="362" on="0"/>
        <pt x="470" y="441" on="1"/>
        <pt x="519" y="735" on="1"/>
        <pt x="609" y="735" on="1"/>
        <pt x="487" y="0" on="1"/>
        <pt x="364" y="0" on="1"/>
        <pt x="190" y="609" on="1"/>
        <pt x="177" y="530" on="0"/>
        <pt x="152" y="373" on="0"/>
        <pt x="139" y="294" on="1"/>
        <pt x="91" y="0" on="1"/>
      </contour>
    </TTGlyph>
    <TTGlyph name="Ntilde" xMin="0" yMin="0" xMax="609" yMax="977">
      <contour>
        <pt x="269" y="811" on="1"/>
        <pt x="194" y="855" on="1"/>
        <pt x="206" y="872" on="0"/>
        <pt x="228" y="901" on="0"/>
        <pt x="248" y="925" on="0"/>
        <pt x="268" y="945" on="0"/>
        <pt x="295" y="964" on="0"/>
        <pt x="326" y="976" on="0"/>
        <pt x="341" y="976" on="1"/>
        <pt x="347" y="976" on="0"/>
        <pt x="357" y="974" on="0"/>
        <pt x="367" y="972" on="0"/>
        <pt x="377" y="968" on="0"/>
        <pt x="386" y="964" on="0"/>
        <pt x="394" y="958" on="0"/>
        <pt x="400" y="952" on="0"/>
        <pt x="408" y="944" on="0"/>
        <pt x="415" y="936" on="0"/>
        <pt x="421" y="929" on="0"/>
        <pt x="426" y="921" on="0"/>
        <pt x="431" y="914" on="0"/>
        <pt x="436" y="906" on="0"/>
        <pt x="442" y="897" on="0"/>
        <pt x="445" y="894" on="1"/>
        <pt x="448" y="896" on="0"/>
        <pt x="457" y="905" on="0"/>
        <pt x="462" y="910" on="0"/>
        <pt x="468" y="916" on="0"/>
        <pt x="474" y="922" on="0"/>
        <pt x="480" y="930" on="0"/>
        <pt x="487" y="939" on="0"/>
        <pt x="494" y="948" on="0"/>
        <pt x="502" y="959" on="0"/>
        <pt x="510" y="971" on="0"/>
        <pt x="514" y="977" on="1"/>
        <pt x="589" y="933" on="1"/>
        <pt x="577" y="915" on="0"/>
        <pt x="556" y="886" on="0"/>
        <pt x="535" y="863" on="0"/>
        <pt x="515" y="842" on="0"/>
        <pt x="488" y="824" on="0"/>
        <pt x="458" y="812" on="0"/>
        <pt x="442" y="812" on="1"/>
        <pt x="433" y="812" on="0"/>
        <pt x="416" y="816" on="0"/>
        <pt x="398" y="823" on="0"/>
        <pt x="386" y="833" on="0"/>
        <pt x="372" y="847" on="0"/>
        <pt x="362" y="860" on="0"/>
        <pt x="353" y="873" on="0"/>
        <pt x="342" y="890" on="0"/>
        <pt x="339" y="894" on="1"/>
        <pt x="336" y="892" on="0"/>
        <pt x="326" y="883" on="0"/>
        <pt x="321" y="878" on="0"/>
        <pt x="316" y="872" on="0"/>
        <pt x="310" y="865" on="0"/>
        <pt x="303" y="858" on="0"/>
        <pt x="297" y="849" on="0"/>
        <pt x="289" y="839" on="0"/>
        <pt x="282" y="829" on="0"/>
        <pt x="273" y="817" on="0"/>
      </contour>
      <contour>
        <pt x="0" y="0" on="1"/>
        <pt x="122" y="735" on="1"/>
        <pt x="245" y="735" on="1"/>
        <pt x="419" y="126" on="1"/>
        <pt x="432" y="205" on="0"/>
        <pt x="457" y="362" on="0"/>
        <pt x="470" y="441" on="1"/>
        <pt x="519" y="735" on="1"/>
        <pt x="609" y="735" on="1"/>
        <pt x="487" y="0" on="1"/>
        <pt x="364" y="0" on="1"/>
        <pt x="190" y="609" on="1"/>
        <pt x="177" y="530" on="0"/>
        <pt x="152" y="373" on="0"/>
        <pt x="139" y="294" on="1"/>
        <pt x="91" y="0" on="1"/>
      </contour>
    </TTGlyph>
    <TTGlyph name="O" xMin="23" yMin="-8" xMax="586" yMax="746">
      <contour>
        <pt x="254" y="-8" on="1"/>
        <pt x="229" y="-8" on="0"/>
        <pt x="181" y="-3" on="0"/>
        <pt x="135" y="9" on="0"/>
        <pt x="94" y="29" on="0"/>
        <pt x="60" y="59" on="0"/>
        <pt x="36" y="97" on="0"/>
        <pt x="23" y="143" on="0"/>
        <pt x="24" y="192" on="0"/>
        <pt x="28" y="216" on="1"/>
        <pt x="85" y="560" on="1"/>
        <pt x="88" y="582" on="0"/>
        <pt x="103" y="624" on="0"/>
        <pt x="130" y="662" on="0"/>
        <pt x="165" y="693" on="0"/>
        <pt x="205" y="716" on="0"/>
        <pt x="248" y="731" on="0"/>
        <pt x="291" y="741" on="0"/>
        <pt x="334" y="746" on="0"/>
        <pt x="356" y="746" on="1"/>
        <pt x="381" y="746" on="0"/>
        <pt x="428" y="739" on="0"/>
        <pt x="473" y="726" on="0"/>
        <pt x="515" y="706" on="0"/>
        <pt x="549" y="676" on="0"/>
        <pt x="573" y="638" on="0"/>
        <pt x="586" y="592" on="0"/>
        <pt x="585" y="543" on="0"/>
        <pt x="581" y="519" on="1"/>
        <pt x="524" y="175" on="1"/>
        <pt x="521" y="153" on="0"/>
        <pt x="506" y="111" on="0"/>
        <pt x="479" y="73" on="0"/>
        <pt x="444" y="42" on="0"/>
        <pt x="405" y="19" on="0"/>
        <pt x="362" y="4" on="0"/>
        <pt x="319" y="-5" on="0"/>
        <pt x="275" y="-8" on="0"/>
      </contour>
      <contour>
        <pt x="255" y="71" on="1"/>
        <pt x="274" y="71" on="0"/>
        <pt x="312" y="75" on="0"/>
        <pt x="350" y="86" on="0"/>
        <pt x="386" y="104" on="0"/>
        <pt x="415" y="133" on="0"/>
        <pt x="433" y="169" on="0"/>
        <pt x="436" y="188" on="1"/>
        <pt x="493" y="532" on="1"/>
        <pt x="496" y="552" on="0"/>
        <pt x="493" y="591" on="0"/>
        <pt x="475" y="623" on="0"/>
        <pt x="446" y="646" on="0"/>
        <pt x="411" y="659" on="0"/>
        <pt x="372" y="664" on="0"/>
        <pt x="353" y="664" on="1"/>
        <pt x="334" y="664" on="0"/>
        <pt x="296" y="660" on="0"/>
        <pt x="258" y="649" on="0"/>
        <pt x="223" y="630" on="0"/>
        <pt x="194" y="602" on="0"/>
        <pt x="176" y="566" on="0"/>
        <pt x="173" y="547" on="1"/>
        <pt x="116" y="203" on="1"/>
        <pt x="113" y="183" on="0"/>
        <pt x="116" y="145" on="0"/>
        <pt x="133" y="112" on="0"/>
        <pt x="162" y="89" on="0"/>
        <pt x="197" y="76" on="0"/>
        <pt x="235" y="71" on="0"/>
      </contour>
    </TTGlyph>
    <TTGlyph name="OE" xMin="23" yMin="-8" xMax="1209" yMax="746">
      <component glyphName="O" x="0" y="0" flags="0x1004"/>
      <component glyphName="E" x="600" y="0" flags="0x1004"/>
      <component glyphName="periodcentered" x="300" y="40" flags="0x1004"/>
    </TTGlyph>
    <TTGlyph name="Oacute" xMin="23" yMin="-8" xMax="586" yMax="988">
      <component glyphName="O" x="0" y="0" flags="0x1000"/>
      <component glyphName="acutecomb" x="634" y="205" flags="0x1000"/>
    </TTGlyph>
    <TTGlyph name="Obreve" xMin="23" yMin="-8" xMax="586" yMax="955">
      <contour>
        <pt x="379" y="815" on="1"/>
        <pt x="358" y="815" on="0"/>
        <pt x="318" y="820" on="0"/>
        <pt x="282" y="835" on="0"/>
        <pt x="253" y="860" on="0"/>
        <pt x="236" y="894" on="0"/>
        <pt x="233" y="935" on="0"/>
        <pt x="237" y="955" on="1"/>
        <pt x="327" y="955" on="1"/>
        <pt x="325" y="942" on="0"/>
        <pt x="332" y="916" on="0"/>
        <pt x="352" y="900" on="0"/>
        <pt x="378" y="894" on="0"/>
        <pt x="392" y="894" on="1"/>
        <pt x="406" y="894" on="0"/>
        <pt x="434" y="900" on="0"/>
        <pt x="458" y="916" on="0"/>
        <pt x="474" y="941" on="0"/>
        <pt x="477" y="955" on="1"/>
        <pt x="567" y="955" on="1"/>
        <pt x="564" y="934" on="0"/>
        <pt x="547" y="894" on="0"/>
        <pt x="519" y="860" on="0"/>
        <pt x="482" y="835" on="0"/>
        <pt x="441" y="820" on="0"/>
        <pt x="399" y="815" on="0"/>
      </contour>
      <contour>
        <pt x="254" y="-8" on="1"/>
        <pt x="229" y="-8" on="0"/>
        <pt x="181" y="-3" on="0"/>
        <pt x="135" y="9" on="0"/>
        <pt x="94" y="29" on="0"/>
        <pt x="60" y="59" on="0"/>
        <pt x="36" y="97" on="0"/>
        <pt x="23" y="143" on="0"/>
        <pt x="24" y="192" on="0"/>
        <pt x="28" y="216" on="1"/>
        <pt x="85" y="560" on="1"/>
        <pt x="88" y="582" on="0"/>
        <pt x="103" y="624" on="0"/>
        <pt x="130" y="662" on="0"/>
        <pt x="165" y="693" on="0"/>
        <pt x="205" y="716" on="0"/>
        <pt x="248" y="731" on="0"/>
        <pt x="291" y="741" on="0"/>
        <pt x="334" y="746" on="0"/>
        <pt x="356" y="746" on="1"/>
        <pt x="381" y="746" on="0"/>
        <pt x="428" y="739" on="0"/>
        <pt x="473" y="726" on="0"/>
        <pt x="515" y="706" on="0"/>
        <pt x="549" y="676" on="0"/>
        <pt x="573" y="638" on="0"/>
        <pt x="586" y="592" on="0"/>
        <pt x="585" y="543" on="0"/>
        <pt x="581" y="519" on="1"/>
        <pt x="524" y="175" on="1"/>
        <pt x="521" y="153" on="0"/>
        <pt x="506" y="111" on="0"/>
        <pt x="479" y="73" on="0"/>
        <pt x="444" y="42" on="0"/>
        <pt x="405" y="19" on="0"/>
        <pt x="362" y="4" on="0"/>
        <pt x="319" y="-5" on="0"/>
        <pt x="275" y="-8" on="0"/>
      </contour>
      <contour>
        <pt x="255" y="71" on="1"/>
        <pt x="274" y="71" on="0"/>
        <pt x="312" y="75" on="0"/>
        <pt x="350" y="86" on="0"/>
        <pt x="386" y="104" on="0"/>
        <pt x="415" y="133" on="0"/>
        <pt x="433" y="169" on="0"/>
        <pt x="436" y="188" on="1"/>
        <pt x="493" y="532" on="1"/>
        <pt x="496" y="552" on="0"/>
        <pt x="493" y="591" on="0"/>
        <pt x="475" y="623" on="0"/>
        <pt x="446" y="646" on="0"/>
        <pt x="411" y="659" on="0"/>
        <pt x="372" y="664" on="0"/>
        <pt x="353" y="664" on="1"/>
        <pt x="334" y="664" on="0"/>
        <pt x="296" y="660" on="0"/>
        <pt x="258" y="649" on="0"/>
        <pt x="223" y="630" on="0"/>
        <pt x="194" y="602" on="0"/>
        <pt x="176" y="566" on="0"/>
        <pt x="173" y="547" on="1"/>
        <pt x="116" y="203" on="1"/>
        <pt x="113" y="183" on="0"/>
        <pt x="116" y="145" on="0"/>
        <pt x="133" y="112" on="0"/>
        <pt x="162" y="89" on="0"/>
        <pt x="197" y="76" on="0"/>
        <pt x="235" y="71" on="0"/>
      </contour>
    </TTGlyph>
    <TTGlyph name="Ocircumflex" xMin="23" yMin="-8" xMax="586" yMax="980">
      <contour>
        <pt x="270" y="791" on="1"/>
        <pt x="203" y="855" on="1"/>
        <pt x="356" y="980" on="1"/>
        <pt x="456" y="980" on="1"/>
        <pt x="563" y="849" on="1"/>
        <pt x="484" y="797" on="1"/>
        <pt x="397" y="921" on="1"/>
      </contour>
      <contour>
        <pt x="254" y="-8" on="1"/>
        <pt x="229" y="-8" on="0"/>
        <pt x="181" y="-3" on="0"/>
        <pt x="135" y="9" on="0"/>
        <pt x="94" y="29" on="0"/>
        <pt x="60" y="59" on="0"/>
        <pt x="36" y="97" on="0"/>
        <pt x="23" y="143" on="0"/>
        <pt x="24" y="192" on="0"/>
        <pt x="28" y="216" on="1"/>
        <pt x="85" y="560" on="1"/>
        <pt x="88" y="582" on="0"/>
        <pt x="103" y="624" on="0"/>
        <pt x="130" y="662" on="0"/>
        <pt x="165" y="693" on="0"/>
        <pt x="205" y="716" on="0"/>
        <pt x="248" y="731" on="0"/>
        <pt x="291" y="741" on="0"/>
        <pt x="334" y="746" on="0"/>
        <pt x="356" y="746" on="1"/>
        <pt x="381" y="746" on="0"/>
        <pt x="428" y="739" on="0"/>
        <pt x="473" y="726" on="0"/>
        <pt x="515" y="706" on="0"/>
        <pt x="549" y="676" on="0"/>
        <pt x="573" y="638" on="0"/>
        <pt x="586" y="592" on="0"/>
        <pt x="585" y="543" on="0"/>
        <pt x="581" y="519" on="1"/>
        <pt x="524" y="175" on="1"/>
        <pt x="521" y="153" on="0"/>
        <pt x="506" y="111" on="0"/>
        <pt x="479" y="73" on="0"/>
        <pt x="444" y="42" on="0"/>
        <pt x="405" y="19" on="0"/>
        <pt x="362" y="4" on="0"/>
        <pt x="319" y="-5" on="0"/>
        <pt x="275" y="-8" on="0"/>
      </contour>
      <contour>
        <pt x="255" y="71" on="1"/>
        <pt x="274" y="71" on="0"/>
        <pt x="312" y="75" on="0"/>
        <pt x="350" y="86" on="0"/>
        <pt x="386" y="104" on="0"/>
        <pt x="415" y="133" on="0"/>
        <pt x="433" y="169" on="0"/>
        <pt x="436" y="188" on="1"/>
        <pt x="493" y="532" on="1"/>
        <pt x="496" y="552" on="0"/>
        <pt x="493" y="591" on="0"/>
        <pt x="475" y="623" on="0"/>
        <pt x="446" y="646" on="0"/>
        <pt x="411" y="659" on="0"/>
        <pt x="372" y="664" on="0"/>
        <pt x="353" y="664" on="1"/>
        <pt x="334" y="664" on="0"/>
        <pt x="296" y="660" on="0"/>
        <pt x="258" y="649" on="0"/>
        <pt x="223" y="630" on="0"/>
        <pt x="194" y="602" on="0"/>
        <pt x="176" y="566" on="0"/>
        <pt x="173" y="547" on="1"/>
        <pt x="116" y="203" on="1"/>
        <pt x="113" y="183" on="0"/>
        <pt x="116" y="145" on="0"/>
        <pt x="133" y="112" on="0"/>
        <pt x="162" y="89" on="0"/>
        <pt x="197" y="76" on="0"/>
        <pt x="235" y="71" on="0"/>
      </contour>
    </TTGlyph>
    <TTGlyph name="Odieresis" xMin="23" yMin="-8" xMax="586" yMax="951">
      <contour>
        <pt x="490" y="819" on="1"/>
        <pt x="474" y="819" on="0"/>
        <pt x="445" y="830" on="0"/>
        <pt x="428" y="854" on="0"/>
        <pt x="423" y="885" on="0"/>
        <pt x="425" y="901" on="1"/>
        <pt x="427" y="912" on="0"/>
        <pt x="438" y="932" on="0"/>
        <pt x="457" y="946" on="0"/>
        <pt x="479" y="951" on="0"/>
        <pt x="490" y="951" on="1"/>
        <pt x="506" y="951" on="0"/>
        <pt x="535" y="940" on="0"/>
        <pt x="553" y="916" on="0"/>
        <pt x="558" y="885" on="0"/>
        <pt x="555" y="869" on="1"/>
        <pt x="553" y="858" on="0"/>
        <pt x="542" y="838" on="0"/>
        <pt x="523" y="824" on="0"/>
        <pt x="501" y="819" on="0"/>
      </contour>
      <contour>
        <pt x="290" y="819" on="1"/>
        <pt x="274" y="819" on="0"/>
        <pt x="245" y="830" on="0"/>
        <pt x="228" y="854" on="0"/>
        <pt x="223" y="885" on="0"/>
        <pt x="225" y="901" on="1"/>
        <pt x="227" y="912" on="0"/>
        <pt x="238" y="932" on="0"/>
        <pt x="257" y="946" on="0"/>
        <pt x="279" y="951" on="0"/>
        <pt x="290" y="951" on="1"/>
        <pt x="306" y="951" on="0"/>
        <pt x="335" y="940" on="0"/>
        <pt x="353" y="916" on="0"/>
        <pt x="358" y="885" on="0"/>
        <pt x="355" y="869" on="1"/>
        <pt x="353" y="858" on="0"/>
        <pt x="342" y="838" on="0"/>
        <pt x="323" y="824" on="0"/>
        <pt x="301" y="819" on="0"/>
      </contour>
      <contour>
        <pt x="254" y="-8" on="1"/>
        <pt x="229" y="-8" on="0"/>
        <pt x="181" y="-3" on="0"/>
        <pt x="135" y="9" on="0"/>
        <pt x="94" y="29" on="0"/>
        <pt x="60" y="59" on="0"/>
        <pt x="36" y="97" on="0"/>
        <pt x="23" y="143" on="0"/>
        <pt x="24" y="192" on="0"/>
        <pt x="28" y="216" on="1"/>
        <pt x="85" y="560" on="1"/>
        <pt x="88" y="582" on="0"/>
        <pt x="103" y="624" on="0"/>
        <pt x="130" y="662" on="0"/>
        <pt x="165" y="693" on="0"/>
        <pt x="205" y="716" on="0"/>
        <pt x="248" y="731" on="0"/>
        <pt x="291" y="741" on="0"/>
        <pt x="334" y="746" on="0"/>
        <pt x="356" y="746" on="1"/>
        <pt x="381" y="746" on="0"/>
        <pt x="428" y="739" on="0"/>
        <pt x="473" y="726" on="0"/>
        <pt x="515" y="706" on="0"/>
        <pt x="549" y="676" on="0"/>
        <pt x="573" y="638" on="0"/>
        <pt x="586" y="592" on="0"/>
        <pt x="585" y="543" on="0"/>
        <pt x="581" y="519" on="1"/>
        <pt x="524" y="175" on="1"/>
        <pt x="521" y="153" on="0"/>
        <pt x="506" y="111" on="0"/>
        <pt x="479" y="73" on="0"/>
        <pt x="444" y="42" on="0"/>
        <pt x="405" y="19" on="0"/>
        <pt x="362" y="4" on="0"/>
        <pt x="319" y="-5" on="0"/>
        <pt x="275" y="-8" on="0"/>
      </contour>
      <contour>
        <pt x="255" y="71" on="1"/>
        <pt x="274" y="71" on="0"/>
        <pt x="312" y="75" on="0"/>
        <pt x="350" y="86" on="0"/>
        <pt x="386" y="104" on="0"/>
        <pt x="415" y="133" on="0"/>
        <pt x="433" y="169" on="0"/>
        <pt x="436" y="188" on="1"/>
        <pt x="493" y="532" on="1"/>
        <pt x="496" y="552" on="0"/>
        <pt x="493" y="591" on="0"/>
        <pt x="475" y="623" on="0"/>
        <pt x="446" y="646" on="0"/>
        <pt x="411" y="659" on="0"/>
        <pt x="372" y="664" on="0"/>
        <pt x="353" y="664" on="1"/>
        <pt x="334" y="664" on="0"/>
        <pt x="296" y="660" on="0"/>
        <pt x="258" y="649" on="0"/>
        <pt x="223" y="630" on="0"/>
        <pt x="194" y="602" on="0"/>
        <pt x="176" y="566" on="0"/>
        <pt x="173" y="547" on="1"/>
        <pt x="116" y="203" on="1"/>
        <pt x="113" y="183" on="0"/>
        <pt x="116" y="145" on="0"/>
        <pt x="133" y="112" on="0"/>
        <pt x="162" y="89" on="0"/>
        <pt x="197" y="76" on="0"/>
        <pt x="235" y="71" on="0"/>
      </contour>
    </TTGlyph>
    <TTGlyph name="Ograve" xMin="23" yMin="-8" xMax="586" yMax="983">
      <contour>
        <pt x="392" y="792" on="1"/>
        <pt x="264" y="927" on="1"/>
        <pt x="339" y="983" on="1"/>
        <pt x="453" y="838" on="1"/>
      </contour>
      <contour>
        <pt x="254" y="-8" on="1"/>
        <pt x="229" y="-8" on="0"/>
        <pt x="181" y="-3" on="0"/>
        <pt x="135" y="9" on="0"/>
        <pt x="94" y="29" on="0"/>
        <pt x="60" y="59" on="0"/>
        <pt x="36" y="97" on="0"/>
        <pt x="23" y="143" on="0"/>
        <pt x="24" y="192" on="0"/>
        <pt x="28" y="216" on="1"/>
        <pt x="85" y="560" on="1"/>
        <pt x="88" y="582" on="0"/>
        <pt x="103" y="624" on="0"/>
        <pt x="130" y="662" on="0"/>
        <pt x="165" y="693" on="0"/>
        <pt x="205" y="716" on="0"/>
        <pt x="248" y="731" on="0"/>
        <pt x="291" y="741" on="0"/>
        <pt x="334" y="746" on="0"/>
        <pt x="356" y="746" on="1"/>
        <pt x="381" y="746" on="0"/>
        <pt x="428" y="739" on="0"/>
        <pt x="473" y="726" on="0"/>
        <pt x="515" y="706" on="0"/>
        <pt x="549" y="676" on="0"/>
        <pt x="573" y="638" on="0"/>
        <pt x="586" y="592" on="0"/>
        <pt x="585" y="543" on="0"/>
        <pt x="581" y="519" on="1"/>
        <pt x="524" y="175" on="1"/>
        <pt x="521" y="153" on="0"/>
        <pt x="506" y="111" on="0"/>
        <pt x="479" y="73" on="0"/>
        <pt x="444" y="42" on="0"/>
        <pt x="405" y="19" on="0"/>
        <pt x="362" y="4" on="0"/>
        <pt x="319" y="-5" on="0"/>
        <pt x="275" y="-8" on="0"/>
      </contour>
      <contour>
        <pt x="255" y="71" on="1"/>
        <pt x="274" y="71" on="0"/>
        <pt x="312" y="75" on="0"/>
        <pt x="350" y="86" on="0"/>
        <pt x="386" y="104" on="0"/>
        <pt x="415" y="133" on="0"/>
        <pt x="433" y="169" on="0"/>
        <pt x="436" y="188" on="1"/>
        <pt x="493" y="532" on="1"/>
        <pt x="496" y="552" on="0"/>
        <pt x="493" y="591" on="0"/>
        <pt x="475" y="623" on="0"/>
        <pt x="446" y="646" on="0"/>
        <pt x="411" y="659" on="0"/>
        <pt x="372" y="664" on="0"/>
        <pt x="353" y="664" on="1"/>
        <pt x="334" y="664" on="0"/>
        <pt x="296" y="660" on="0"/>
        <pt x="258" y="649" on="0"/>
        <pt x="223" y="630" on="0"/>
        <pt x="194" y="602" on="0"/>
        <pt x="176" y="566" on="0"/>
        <pt x="173" y="547" on="1"/>
        <pt x="116" y="203" on="1"/>
        <pt x="113" y="183" on="0"/>
        <pt x="116" y="145" on="0"/>
        <pt x="133" y="112" on="0"/>
        <pt x="162" y="89" on="0"/>
        <pt x="197" y="76" on="0"/>
        <pt x="235" y="71" on="0"/>
      </contour>
    </TTGlyph>
    <TTGlyph name="Ohungarumlaut" xMin="23" yMin="-8" xMax="618" yMax="988">
      <contour>
        <pt x="446" y="788" on="1"/>
        <pt x="394" y="842" on="1"/>
        <pt x="555" y="988" on="1"/>
        <pt x="618" y="922" on="1"/>
      </contour>
      <contour>
        <pt x="276" y="788" on="1"/>
        <pt x="224" y="842" on="1"/>
        <pt x="385" y="988" on="1"/>
        <pt x="448" y="922" on="1"/>
      </contour>
      <contour>
        <pt x="254" y="-8" on="1"/>
        <pt x="229" y="-8" on="0"/>
        <pt x="181" y="-3" on="0"/>
        <pt x="135" y="9" on="0"/>
        <pt x="94" y="29" on="0"/>
        <pt x="60" y="59" on="0"/>
        <pt x="36" y="97" on="0"/>
        <pt x="23" y="143" on="0"/>
        <pt x="24" y="192" on="0"/>
        <pt x="28" y="216" on="1"/>
        <pt x="85" y="560" on="1"/>
        <pt x="88" y="582" on="0"/>
        <pt x="103" y="624" on="0"/>
        <pt x="130" y="662" on="0"/>
        <pt x="165" y="693" on="0"/>
        <pt x="205" y="716" on="0"/>
        <pt x="248" y="731" on="0"/>
        <pt x="291" y="741" on="0"/>
        <pt x="334" y="746" on="0"/>
        <pt x="356" y="746" on="1"/>
        <pt x="381" y="746" on="0"/>
        <pt x="428" y="739" on="0"/>
        <pt x="473" y="726" on="0"/>
        <pt x="515" y="706" on="0"/>
        <pt x="549" y="676" on="0"/>
        <pt x="573" y="638" on="0"/>
        <pt x="586" y="592" on="0"/>
        <pt x="585" y="543" on="0"/>
        <pt x="581" y="519" on="1"/>
        <pt x="524" y="175" on="1"/>
        <pt x="521" y="153" on="0"/>
        <pt x="506" y="111" on="0"/>
        <pt x="479" y="73" on="0"/>
        <pt x="444" y="42" on="0"/>
        <pt x="405" y="19" on="0"/>
        <pt x="362" y="4" on="0"/>
        <pt x="319" y="-5" on="0"/>
        <pt x="275" y="-8" on="0"/>
      </contour>
      <contour>
        <pt x="255" y="71" on="1"/>
        <pt x="274" y="71" on="0"/>
        <pt x="312" y="75" on="0"/>
        <pt x="350" y="86" on="0"/>
        <pt x="386" y="104" on="0"/>
        <pt x="415" y="133" on="0"/>
        <pt x="433" y="169" on="0"/>
        <pt x="436" y="188" on="1"/>
        <pt x="493" y="532" on="1"/>
        <pt x="496" y="552" on="0"/>
        <pt x="493" y="591" on="0"/>
        <pt x="475" y="623" on="0"/>
        <pt x="446" y="646" on="0"/>
        <pt x="411" y="659" on="0"/>
        <pt x="372" y="664" on="0"/>
        <pt x="353" y="664" on="1"/>
        <pt x="334" y="664" on="0"/>
        <pt x="296" y="660" on="0"/>
        <pt x="258" y="649" on="0"/>
        <pt x="223" y="630" on="0"/>
        <pt x="194" y="602" on="0"/>
        <pt x="176" y="566" on="0"/>
        <pt x="173" y="547" on="1"/>
        <pt x="116" y="203" on="1"/>
        <pt x="113" y="183" on="0"/>
        <pt x="116" y="145" on="0"/>
        <pt x="133" y="112" on="0"/>
        <pt x="162" y="89" on="0"/>
        <pt x="197" y="76" on="0"/>
        <pt x="235" y="71" on="0"/>
      </contour>
    </TTGlyph>
    <TTGlyph name="Omacron" xMin="23" yMin="-8" xMax="586" yMax="925">
      <contour>
        <pt x="540" y="845" on="1"/>
        <pt x="240" y="845" on="1"/>
        <pt x="240" y="925" on="1"/>
        <pt x="540" y="925" on="1"/>
      </contour>
      <contour>
        <pt x="254" y="-8" on="1"/>
        <pt x="229" y="-8" on="0"/>
        <pt x="181" y="-3" on="0"/>
        <pt x="135" y="9" on="0"/>
        <pt x="94" y="29" on="0"/>
        <pt x="60" y="59" on="0"/>
        <pt x="36" y="97" on="0"/>
        <pt x="23" y="143" on="0"/>
        <pt x="24" y="192" on="0"/>
        <pt x="28" y="216" on="1"/>
        <pt x="85" y="560" on="1"/>
        <pt x="88" y="582" on="0"/>
        <pt x="103" y="624" on="0"/>
        <pt x="130" y="662" on="0"/>
        <pt x="165" y="693" on="0"/>
        <pt x="205" y="716" on="0"/>
        <pt x="248" y="731" on="0"/>
        <pt x="291" y="741" on="0"/>
        <pt x="334" y="746" on="0"/>
        <pt x="356" y="746" on="1"/>
        <pt x="381" y="746" on="0"/>
        <pt x="428" y="739" on="0"/>
        <pt x="473" y="726" on="0"/>
        <pt x="515" y="706" on="0"/>
        <pt x="549" y="676" on="0"/>
        <pt x="573" y="638" on="0"/>
        <pt x="586" y="592" on="0"/>
        <pt x="585" y="543" on="0"/>
        <pt x="581" y="519" on="1"/>
        <pt x="524" y="175" on="1"/>
        <pt x="521" y="153" on="0"/>
        <pt x="506" y="111" on="0"/>
        <pt x="479" y="73" on="0"/>
        <pt x="444" y="42" on="0"/>
        <pt x="405" y="19" on="0"/>
        <pt x="362" y="4" on="0"/>
        <pt x="319" y="-5" on="0"/>
        <pt x="275" y="-8" on="0"/>
      </contour>
      <contour>
        <pt x="255" y="71" on="1"/>
        <pt x="274" y="71" on="0"/>
        <pt x="312" y="75" on="0"/>
        <pt x="350" y="86" on="0"/>
        <pt x="386" y="104" on="0"/>
        <pt x="415" y="133" on="0"/>
        <pt x="433" y="169" on="0"/>
        <pt x="436" y="188" on="1"/>
        <pt x="493" y="532" on="1"/>
        <pt x="496" y="552" on="0"/>
        <pt x="493" y="591" on="0"/>
        <pt x="475" y="623" on="0"/>
        <pt x="446" y="646" on="0"/>
        <pt x="411" y="659" on="0"/>
        <pt x="372" y="664" on="0"/>
        <pt x="353" y="664" on="1"/>
        <pt x="334" y="664" on="0"/>
        <pt x="296" y="660" on="0"/>
        <pt x="258" y="649" on="0"/>
        <pt x="223" y="630" on="0"/>
        <pt x="194" y="602" on="0"/>
        <pt x="176" y="566" on="0"/>
        <pt x="173" y="547" on="1"/>
        <pt x="116" y="203" on="1"/>
        <pt x="113" y="183" on="0"/>
        <pt x="116" y="145" on="0"/>
        <pt x="133" y="112" on="0"/>
        <pt x="162" y="89" on="0"/>
        <pt x="197" y="76" on="0"/>
        <pt x="235" y="71" on="0"/>
      </contour>
    </TTGlyph>
    <TTGlyph name="Omega" xMin="0" yMin="0" xMax="578" yMax="743">
      <component glyphName="uni03A9" x="0" y="0" flags="0x1000"/>
    </TTGlyph>
    <TTGlyph name="Oslash" xMin="-11" yMin="-59" xMax="620" yMax="794">
      <contour>
        <pt x="62" y="-59" on="1"/>
        <pt x="-11" y="-14" on="1"/>
        <pt x="50" y="75" on="1"/>
        <pt x="40" y="89" on="0"/>
        <pt x="28" y="123" on="0"/>
        <pt x="22" y="159" on="0"/>
        <pt x="25" y="197" on="0"/>
        <pt x="28" y="216" on="1"/>
        <pt x="85" y="560" on="1"/>
        <pt x="88" y="582" on="0"/>
        <pt x="103" y="624" on="0"/>
        <pt x="130" y="662" on="0"/>
        <pt x="165" y="693" on="0"/>
        <pt x="205" y="716" on="0"/>
        <pt x="248" y="731" on="0"/>
        <pt x="291" y="741" on="0"/>
        <pt x="334" y="746" on="0"/>
        <pt x="356" y="746" on="1"/>
        <pt x="393" y="746" on="0"/>
        <pt x="462" y="732" on="0"/>
        <pt x="493" y="717" on="1"/>
        <pt x="547" y="794" on="1"/>
        <pt x="620" y="749" on="1"/>
        <pt x="559" y="660" on="1"/>
        <pt x="569" y="646" on="0"/>
        <pt x="581" y="612" on="0"/>
        <pt x="587" y="576" on="0"/>
        <pt x="584" y="538" on="0"/>
        <pt x="581" y="519" on="1"/>
        <pt x="524" y="175" on="1"/>
        <pt x="521" y="153" on="0"/>
        <pt x="506" y="111" on="0"/>
        <pt x="479" y="73" on="0"/>
        <pt x="444" y="42" on="0"/>
        <pt x="405" y="19" on="0"/>
        <pt x="362" y="4" on="0"/>
        <pt x="319" y="-5" on="0"/>
        <pt x="275" y="-8" on="0"/>
        <pt x="254" y="-8" on="1"/>
        <pt x="218" y="-8" on="0"/>
        <pt x="147" y="3" on="0"/>
        <pt x="116" y="18" on="1"/>
      </contour>
      <contour>
        <pt x="114" y="167" on="1"/>
        <pt x="444" y="646" on="1"/>
        <pt x="424" y="657" on="0"/>
        <pt x="377" y="664" on="0"/>
        <pt x="353" y="664" on="1"/>
        <pt x="334" y="664" on="0"/>
        <pt x="296" y="660" on="0"/>
        <pt x="258" y="649" on="0"/>
        <pt x="223" y="630" on="0"/>
        <pt x="194" y="602" on="0"/>
        <pt x="176" y="566" on="0"/>
        <pt x="173" y="547" on="1"/>
        <pt x="116" y="203" on="1"/>
        <pt x="115" y="194" on="0"/>
        <pt x="113" y="176" on="0"/>
      </contour>
      <contour>
        <pt x="255" y="71" on="1"/>
        <pt x="274" y="71" on="0"/>
        <pt x="312" y="75" on="0"/>
        <pt x="350" y="86" on="0"/>
        <pt x="386" y="104" on="0"/>
        <pt x="415" y="133" on="0"/>
        <pt x="433" y="169" on="0"/>
        <pt x="436" y="188" on="1"/>
        <pt x="493" y="532" on="1"/>
        <pt x="494" y="541" on="0"/>
        <pt x="496" y="559" on="0"/>
        <pt x="495" y="568" on="1"/>
        <pt x="165" y="89" on="1"/>
        <pt x="185" y="79" on="0"/>
        <pt x="231" y="71" on="0"/>
      </contour>
    </TTGlyph>
    <TTGlyph name="Oslashacute" xMin="-11" yMin="-59" xMax="620" yMax="988">
      <component glyphName="Oslash" x="0" y="0" flags="0x1000"/>
      <component glyphName="acutecomb" x="634" y="205" flags="0x1000"/>
    </TTGlyph>
    <TTGlyph name="Otilde" xMin="23" yMin="-8" xMax="589" yMax="977">
      <contour>
        <pt x="269" y="811" on="1"/>
        <pt x="194" y="855" on="1"/>
        <pt x="206" y="872" on="0"/>
        <pt x="228" y="901" on="0"/>
        <pt x="248" y="925" on="0"/>
        <pt x="268" y="945" on="0"/>
        <pt x="295" y="964" on="0"/>
        <pt x="326" y="976" on="0"/>
        <pt x="341" y="976" on="1"/>
        <pt x="347" y="976" on="0"/>
        <pt x="357" y="974" on="0"/>
        <pt x="367" y="972" on="0"/>
        <pt x="377" y="968" on="0"/>
        <pt x="386" y="964" on="0"/>
        <pt x="394" y="958" on="0"/>
        <pt x="400" y="952" on="0"/>
        <pt x="408" y="944" on="0"/>
        <pt x="415" y="936" on="0"/>
        <pt x="421" y="929" on="0"/>
        <pt x="426" y="921" on="0"/>
        <pt x="431" y="914" on="0"/>
        <pt x="436" y="906" on="0"/>
        <pt x="442" y="897" on="0"/>
        <pt x="445" y="894" on="1"/>
        <pt x="448" y="896" on="0"/>
        <pt x="457" y="905" on="0"/>
        <pt x="462" y="910" on="0"/>
        <pt x="468" y="916" on="0"/>
        <pt x="474" y="922" on="0"/>
        <pt x="480" y="930" on="0"/>
        <pt x="487" y="939" on="0"/>
        <pt x="494" y="948" on="0"/>
        <pt x="502" y="959" on="0"/>
        <pt x="510" y="971" on="0"/>
        <pt x="514" y="977" on="1"/>
        <pt x="589" y="933" on="1"/>
        <pt x="577" y="915" on="0"/>
        <pt x="556" y="886" on="0"/>
        <pt x="535" y="863" on="0"/>
        <pt x="515" y="842" on="0"/>
        <pt x="488" y="824" on="0"/>
        <pt x="458" y="812" on="0"/>
        <pt x="442" y="812" on="1"/>
        <pt x="433" y="812" on="0"/>
        <pt x="416" y="816" on="0"/>
        <pt x="398" y="823" on="0"/>
        <pt x="386" y="833" on="0"/>
        <pt x="372" y="847" on="0"/>
        <pt x="362" y="860" on="0"/>
        <pt x="353" y="873" on="0"/>
        <pt x="342" y="890" on="0"/>
        <pt x="339" y="894" on="1"/>
        <pt x="336" y="892" on="0"/>
        <pt x="326" y="883" on="0"/>
        <pt x="321" y="878" on="0"/>
        <pt x="316" y="872" on="0"/>
        <pt x="310" y="865" on="0"/>
        <pt x="303" y="858" on="0"/>
        <pt x="297" y="849" on="0"/>
        <pt x="289" y="839" on="0"/>
        <pt x="282" y="829" on="0"/>
        <pt x="273" y="817" on="0"/>
      </contour>
      <contour>
        <pt x="254" y="-8" on="1"/>
        <pt x="229" y="-8" on="0"/>
        <pt x="181" y="-3" on="0"/>
        <pt x="135" y="9" on="0"/>
        <pt x="94" y="29" on="0"/>
        <pt x="60" y="59" on="0"/>
        <pt x="36" y="97" on="0"/>
        <pt x="23" y="143" on="0"/>
        <pt x="24" y="192" on="0"/>
        <pt x="28" y="216" on="1"/>
        <pt x="85" y="560" on="1"/>
        <pt x="88" y="582" on="0"/>
        <pt x="103" y="624" on="0"/>
        <pt x="130" y="662" on="0"/>
        <pt x="165" y="693" on="0"/>
        <pt x="205" y="716" on="0"/>
        <pt x="248" y="731" on="0"/>
        <pt x="291" y="741" on="0"/>
        <pt x="334" y="746" on="0"/>
        <pt x="356" y="746" on="1"/>
        <pt x="381" y="746" on="0"/>
        <pt x="428" y="739" on="0"/>
        <pt x="473" y="726" on="0"/>
        <pt x="515" y="706" on="0"/>
        <pt x="549" y="676" on="0"/>
        <pt x="573" y="638" on="0"/>
        <pt x="586" y="592" on="0"/>
        <pt x="585" y="543" on="0"/>
        <pt x="581" y="519" on="1"/>
        <pt x="524" y="175" on="1"/>
        <pt x="521" y="153" on="0"/>
        <pt x="506" y="111" on="0"/>
        <pt x="479" y="73" on="0"/>
        <pt x="444" y="42" on="0"/>
        <pt x="405" y="19" on="0"/>
        <pt x="362" y="4" on="0"/>
        <pt x="319" y="-5" on="0"/>
        <pt x="275" y="-8" on="0"/>
      </contour>
      <contour>
        <pt x="255" y="71" on="1"/>
        <pt x="274" y="71" on="0"/>
        <pt x="312" y="75" on="0"/>
        <pt x="350" y="86" on="0"/>
        <pt x="386" y="104" on="0"/>
        <pt x="415" y="133" on="0"/>
        <pt x="433" y="169" on="0"/>
        <pt x="436" y="188" on="1"/>
        <pt x="493" y="532" on="1"/>
        <pt x="496" y="552" on="0"/>
        <pt x="493" y="591" on="0"/>
        <pt x="475" y="623" on="0"/>
        <pt x="446" y="646" on="0"/>
        <pt x="411" y="659" on="0"/>
        <pt x="372" y="664" on="0"/>
        <pt x="353" y="664" on="1"/>
        <pt x="334" y="664" on="0"/>
        <pt x="296" y="660" on="0"/>
        <pt x="258" y="649" on="0"/>
        <pt x="223" y="630" on="0"/>
        <pt x="194" y="602" on="0"/>
        <pt x="176" y="566" on="0"/>
        <pt x="173" y="547" on="1"/>
        <pt x="116" y="203" on="1"/>
        <pt x="113" y="183" on="0"/>
        <pt x="116" y="145" on="0"/>
        <pt x="133" y="112" on="0"/>
        <pt x="162" y="89" on="0"/>
        <pt x="197" y="76" on="0"/>
        <pt x="235" y="71" on="0"/>
      </contour>
    </TTGlyph>
    <TTGlyph name="P" xMin="14" yMin="0" xMax="591" yMax="735">
      <contour>
        <pt x="14" y="0" on="1"/>
        <pt x="136" y="735" on="1"/>
        <pt x="389" y="735" on="1"/>
        <pt x="421" y="735" on="0"/>
        <pt x="481" y="724" on="0"/>
        <pt x="533" y="696" on="0"/>
        <pt x="571" y="650" on="0"/>
        <pt x="590" y="594" on="0"/>
        <pt x="591" y="531" on="0"/>
        <pt x="586" y="500" on="1"/>
        <pt x="582" y="472" on="0"/>
        <pt x="563" y="417" on="0"/>
        <pt x="528" y="368" on="0"/>
        <pt x="480" y="330" on="0"/>
        <pt x="426" y="307" on="0"/>
        <pt x="369" y="298" on="0"/>
        <pt x="341" y="298" on="1"/>
        <pt x="154" y="298" on="1"/>
        <pt x="105" y="0" on="1"/>
      </contour>
      <contour>
        <pt x="341" y="377" on="1"/>
        <pt x="359" y="377" on="0"/>
        <pt x="396" y="384" on="0"/>
        <pt x="431" y="400" on="0"/>
        <pt x="461" y="425" on="0"/>
        <pt x="483" y="458" on="0"/>
        <pt x="495" y="494" on="0"/>
        <pt x="498" y="512" on="1"/>
        <pt x="502" y="539" on="0"/>
        <pt x="497" y="594" on="0"/>
        <pt x="467" y="637" on="0"/>
        <pt x="417" y="656" on="0"/>
        <pt x="389" y="656" on="1"/>
        <pt x="213" y="656" on="1"/>
        <pt x="167" y="377" on="1"/>
      </contour>
    </TTGlyph>
    <TTGlyph name="Q" xMin="23" yMin="-193" xMax="586" yMax="746">
      <contour>
        <pt x="254" y="-8" on="1"/>
        <pt x="229" y="-8" on="0"/>
        <pt x="181" y="-3" on="0"/>
        <pt x="135" y="9" on="0"/>
        <pt x="94" y="29" on="0"/>
        <pt x="60" y="59" on="0"/>
        <pt x="36" y="97" on="0"/>
        <pt x="23" y="143" on="0"/>
        <pt x="24" y="192" on="0"/>
        <pt x="28" y="216" on="1"/>
        <pt x="85" y="560" on="1"/>
        <pt x="88" y="582" on="0"/>
        <pt x="103" y="624" on="0"/>
        <pt x="130" y="662" on="0"/>
        <pt x="165" y="693" on="0"/>
        <pt x="205" y="716" on="0"/>
        <pt x="248" y="731" on="0"/>
        <pt x="291" y="741" on="0"/>
        <pt x="334" y="746" on="0"/>
        <pt x="356" y="746" on="1"/>
        <pt x="381" y="746" on="0"/>
        <pt x="428" y="739" on="0"/>
        <pt x="473" y="726" on="0"/>
        <pt x="515" y="706" on="0"/>
        <pt x="549" y="676" on="0"/>
        <pt x="573" y="638" on="0"/>
        <pt x="586" y="592" on="0"/>
        <pt x="585" y="543" on="0"/>
        <pt x="581" y="519" on="1"/>
        <pt x="524" y="175" on="1"/>
        <pt x="521" y="153" on="0"/>
        <pt x="506" y="111" on="0"/>
        <pt x="479" y="73" on="0"/>
        <pt x="444" y="42" on="0"/>
        <pt x="405" y="19" on="0"/>
        <pt x="362" y="4" on="0"/>
        <pt x="319" y="-5" on="0"/>
        <pt x="275" y="-8" on="0"/>
      </contour>
      <contour>
        <pt x="255" y="71" on="1"/>
        <pt x="274" y="71" on="0"/>
        <pt x="312" y="75" on="0"/>
        <pt x="350" y="86" on="0"/>
        <pt x="386" y="104" on="0"/>
        <pt x="415" y="133" on="0"/>
        <pt x="433" y="169" on="0"/>
        <pt x="436" y="188" on="1"/>
        <pt x="493" y="532" on="1"/>
        <pt x="496" y="552" on="0"/>
        <pt x="493" y="591" on="0"/>
        <pt x="475" y="623" on="0"/>
        <pt x="446" y="646" on="0"/>
        <pt x="411" y="659" on="0"/>
        <pt x="372" y="664" on="0"/>
        <pt x="353" y="664" on="1"/>
        <pt x="334" y="664" on="0"/>
        <pt x="296" y="660" on="0"/>
        <pt x="258" y="649" on="0"/>
        <pt x="223" y="630" on="0"/>
        <pt x="194" y="602" on="0"/>
        <pt x="176" y="566" on="0"/>
        <pt x="173" y="547" on="1"/>
        <pt x="116" y="203" on="1"/>
        <pt x="113" y="183" on="0"/>
        <pt x="116" y="145" on="0"/>
        <pt x="133" y="112" on="0"/>
        <pt x="162" y="89" on="0"/>
        <pt x="197" y="76" on="0"/>
        <pt x="235" y="71" on="0"/>
      </contour>
      <contour>
        <pt x="498" y="-193" on="1"/>
        <pt x="224" y="-120" on="1"/>
        <pt x="237" y="-41" on="1"/>
        <pt x="511" y="-114" on="1"/>
      </contour>
    </TTGlyph>
    <TTGlyph name="R" xMin="0" yMin="0" xMax="583" yMax="735">
      <contour>
        <pt x="0" y="0" on="1"/>
        <pt x="122" y="735" on="1"/>
        <pt x="389" y="735" on="1"/>
        <pt x="420" y="735" on="0"/>
        <pt x="480" y="723" on="0"/>
        <pt x="530" y="694" on="0"/>
        <pt x="565" y="648" on="0"/>
        <pt x="583" y="592" on="0"/>
        <pt x="583" y="531" on="0"/>
        <pt x="578" y="500" on="1"/>
        <pt x="574" y="475" on="0"/>
        <pt x="559" y="425" on="0"/>
        <pt x="531" y="380" on="0"/>
        <pt x="492" y="342" on="0"/>
        <pt x="445" y="315" on="0"/>
        <pt x="395" y="300" on="0"/>
        <pt x="370" y="299" on="1"/>
        <pt x="517" y="0" on="1"/>
        <pt x="415" y="0" on="1"/>
        <pt x="268" y="298" on="1"/>
        <pt x="140" y="298" on="1"/>
        <pt x="91" y="0" on="1"/>
      </contour>
      <contour>
        <pt x="341" y="377" on="1"/>
        <pt x="359" y="377" on="0"/>
        <pt x="395" y="384" on="0"/>
        <pt x="428" y="401" on="0"/>
        <pt x="456" y="427" on="0"/>
        <pt x="476" y="459" on="0"/>
        <pt x="487" y="494" on="0"/>
        <pt x="490" y="512" on="1"/>
        <pt x="494" y="538" on="0"/>
        <pt x="490" y="592" on="0"/>
        <pt x="464" y="635" on="0"/>
        <pt x="416" y="656" on="0"/>
        <pt x="389" y="656" on="1"/>
        <pt x="199" y="656" on="1"/>
        <pt x="153" y="377" on="1"/>
      </contour>
    </TTGlyph>
    <TTGlyph name="Racute" xMin="0" yMin="0" xMax="583" yMax="988">
      <component glyphName="R" x="0" y="0" flags="0x1000"/>
      <component glyphName="acutecomb" x="634" y="205" flags="0x1000"/>
    </TTGlyph>
    <TTGlyph name="Rcaron" xMin="0" yMin="0" xMax="583" yMax="987">
      <contour>
        <pt x="326" y="798" on="1"/>
        <pt x="219" y="929" on="1"/>
        <pt x="230" y="936" on="1"/>
        <pt x="298" y="981" on="1"/>
        <pt x="384" y="857" on="1"/>
        <pt x="512" y="987" on="1"/>
        <pt x="579" y="923" on="1"/>
        <pt x="426" y="798" on="1"/>
      </contour>
      <contour>
        <pt x="0" y="0" on="1"/>
        <pt x="122" y="735" on="1"/>
        <pt x="389" y="735" on="1"/>
        <pt x="420" y="735" on="0"/>
        <pt x="480" y="723" on="0"/>
        <pt x="530" y="694" on="0"/>
        <pt x="565" y="648" on="0"/>
        <pt x="583" y="592" on="0"/>
        <pt x="583" y="531" on="0"/>
        <pt x="578" y="500" on="1"/>
        <pt x="574" y="475" on="0"/>
        <pt x="559" y="425" on="0"/>
        <pt x="531" y="380" on="0"/>
        <pt x="492" y="342" on="0"/>
        <pt x="445" y="315" on="0"/>
        <pt x="395" y="300" on="0"/>
        <pt x="370" y="299" on="1"/>
        <pt x="517" y="0" on="1"/>
        <pt x="415" y="0" on="1"/>
        <pt x="268" y="298" on="1"/>
        <pt x="140" y="298" on="1"/>
        <pt x="91" y="0" on="1"/>
      </contour>
      <contour>
        <pt x="341" y="377" on="1"/>
        <pt x="359" y="377" on="0"/>
        <pt x="395" y="384" on="0"/>
        <pt x="428" y="401" on="0"/>
        <pt x="456" y="427" on="0"/>
        <pt x="476" y="459" on="0"/>
        <pt x="487" y="494" on="0"/>
        <pt x="490" y="512" on="1"/>
        <pt x="494" y="538" on="0"/>
        <pt x="490" y="592" on="0"/>
        <pt x="464" y="635" on="0"/>
        <pt x="416" y="656" on="0"/>
        <pt x="389" y="656" on="1"/>
        <pt x="199" y="656" on="1"/>
        <pt x="153" y="377" on="1"/>
      </contour>
    </TTGlyph>
    <TTGlyph name="S" xMin="14" yMin="-8" xMax="588" yMax="743">
      <contour>
        <pt x="253" y="-8" on="1"/>
        <pt x="224" y="-8" on="0"/>
        <pt x="165" y="-2" on="0"/>
        <pt x="110" y="15" on="0"/>
        <pt x="62" y="44" on="0"/>
        <pt x="28" y="88" on="0"/>
        <pt x="14" y="145" on="0"/>
        <pt x="19" y="174" on="1"/>
        <pt x="19" y="177" on="0"/>
        <pt x="20" y="181" on="0"/>
        <pt x="20" y="184" on="1"/>
        <pt x="110" y="184" on="1"/>
        <pt x="110" y="182" on="0"/>
        <pt x="109" y="180" on="0"/>
        <pt x="109" y="178" on="1"/>
        <pt x="106" y="160" on="0"/>
        <pt x="115" y="126" on="0"/>
        <pt x="137" y="101" on="0"/>
        <pt x="167" y="84" on="0"/>
        <pt x="200" y="75" on="0"/>
        <pt x="235" y="71" on="0"/>
        <pt x="254" y="71" on="1"/>
        <pt x="272" y="71" on="0"/>
        <pt x="308" y="74" on="0"/>
        <pt x="345" y="83" on="0"/>
        <pt x="381" y="99" on="0"/>
        <pt x="411" y="124" on="0"/>
        <pt x="431" y="158" on="0"/>
        <pt x="434" y="177" on="1"/>
        <pt x="438" y="198" on="0"/>
        <pt x="426" y="238" on="0"/>
        <pt x="403" y="271" on="0"/>
        <pt x="370" y="295" on="0"/>
        <pt x="333" y="312" on="0"/>
        <pt x="294" y="325" on="0"/>
        <pt x="256" y="339" on="0"/>
        <pt x="219" y="357" on="0"/>
        <pt x="184" y="378" on="0"/>
        <pt x="153" y="403" on="0"/>
        <pt x="127" y="434" on="0"/>
        <pt x="107" y="468" on="0"/>
        <pt x="94" y="508" on="0"/>
        <pt x="91" y="550" on="0"/>
        <pt x="94" y="572" on="1"/>
        <pt x="99" y="599" on="0"/>
        <pt x="126" y="651" on="0"/>
        <pt x="167" y="692" on="0"/>
        <pt x="219" y="721" on="0"/>
        <pt x="273" y="737" on="0"/>
        <pt x="328" y="743" on="0"/>
        <pt x="356" y="743" on="1"/>
        <pt x="385" y="743" on="0"/>
        <pt x="442" y="737" on="0"/>
        <pt x="496" y="720" on="0"/>
        <pt x="542" y="691" on="0"/>
        <pt x="575" y="647" on="0"/>
        <pt x="588" y="591" on="0"/>
        <pt x="583" y="563" on="1"/>
        <pt x="582" y="560" on="0"/>
        <pt x="581" y="555" on="0"/>
        <pt x="581" y="553" on="1"/>
        <pt x="491" y="553" on="1"/>
        <pt x="492" y="554" on="0"/>
        <pt x="492" y="557" on="0"/>
        <pt x="492" y="559" on="1"/>
        <pt x="495" y="576" on="0"/>
        <pt x="487" y="609" on="0"/>
        <pt x="467" y="634" on="0"/>
        <pt x="439" y="651" on="0"/>
        <pt x="407" y="660" on="0"/>
        <pt x="373" y="664" on="0"/>
        <pt x="356" y="664" on="1"/>
        <pt x="329" y="664" on="0"/>
        <pt x="275" y="655" on="0"/>
        <pt x="225" y="631" on="0"/>
        <pt x="187" y="586" on="0"/>
        <pt x="183" y="559" on="1"/>
        <pt x="179" y="534" on="0"/>
        <pt x="195" y="488" on="0"/>
        <pt x="226" y="453" on="0"/>
        <pt x="268" y="430" on="0"/>
        <pt x="313" y="413" on="0"/>
        <pt x="358" y="397" on="0"/>
        <pt x="401" y="377" on="0"/>
        <pt x="441" y="352" on="0"/>
        <pt x="475" y="320" on="0"/>
        <pt x="503" y="282" on="0"/>
        <pt x="520" y="238" on="0"/>
        <pt x="527" y="189" on="0"/>
        <pt x="523" y="164" on="1"/>
        <pt x="518" y="136" on="0"/>
        <pt x="490" y="83" on="0"/>
        <pt x="446" y="42" on="0"/>
        <pt x="393" y="14" on="0"/>
        <pt x="337" y="-2" on="0"/>
        <pt x="281" y="-8" on="0"/>
      </contour>
    </TTGlyph>
    <TTGlyph name="Sacute" xMin="14" yMin="-8" xMax="588" yMax="988">
      <component glyphName="S" x="0" y="0" flags="0x1000"/>
      <component glyphName="acutecomb" x="634" y="205" flags="0x1000"/>
    </TTGlyph>
    <TTGlyph name="Scaron" xMin="14" yMin="-8" xMax="588" yMax="987">
      <contour>
        <pt x="326" y="798" on="1"/>
        <pt x="219" y="929" on="1"/>
        <pt x="230" y="936" on="1"/>
        <pt x="298" y="981" on="1"/>
        <pt x="384" y="857" on="1"/>
        <pt x="512" y="987" on="1"/>
        <pt x="579" y="923" on="1"/>
        <pt x="426" y="798" on="1"/>
      </contour>
      <contour>
        <pt x="253" y="-8" on="1"/>
        <pt x="224" y="-8" on="0"/>
        <pt x="165" y="-2" on="0"/>
        <pt x="110" y="15" on="0"/>
        <pt x="62" y="44" on="0"/>
        <pt x="28" y="88" on="0"/>
        <pt x="14" y="145" on="0"/>
        <pt x="19" y="174" on="1"/>
        <pt x="19" y="177" on="0"/>
        <pt x="20" y="181" on="0"/>
        <pt x="20" y="184" on="1"/>
        <pt x="110" y="184" on="1"/>
        <pt x="110" y="182" on="0"/>
        <pt x="109" y="180" on="0"/>
        <pt x="109" y="178" on="1"/>
        <pt x="106" y="160" on="0"/>
        <pt x="115" y="126" on="0"/>
        <pt x="137" y="101" on="0"/>
        <pt x="167" y="84" on="0"/>
        <pt x="200" y="75" on="0"/>
        <pt x="235" y="71" on="0"/>
        <pt x="254" y="71" on="1"/>
        <pt x="272" y="71" on="0"/>
        <pt x="308" y="74" on="0"/>
        <pt x="345" y="83" on="0"/>
        <pt x="381" y="99" on="0"/>
        <pt x="411" y="124" on="0"/>
        <pt x="431" y="158" on="0"/>
        <pt x="434" y="177" on="1"/>
        <pt x="438" y="198" on="0"/>
        <pt x="426" y="238" on="0"/>
        <pt x="403" y="271" on="0"/>
        <pt x="370" y="295" on="0"/>
        <pt x="333" y="312" on="0"/>
        <pt x="294" y="325" on="0"/>
        <pt x="256" y="339" on="0"/>
        <pt x="219" y="357" on="0"/>
        <pt x="184" y="378" on="0"/>
        <pt x="153" y="403" on="0"/>
        <pt x="127" y="434" on="0"/>
        <pt x="107" y="468" on="0"/>
        <pt x="94" y="508" on="0"/>
        <pt x="91" y="550" on="0"/>
        <pt x="94" y="572" on="1"/>
        <pt x="99" y="599" on="0"/>
        <pt x="126" y="651" on="0"/>
        <pt x="167" y="692" on="0"/>
        <pt x="219" y="721" on="0"/>
        <pt x="273" y="737" on="0"/>
        <pt x="328" y="743" on="0"/>
        <pt x="356" y="743" on="1"/>
        <pt x="385" y="743" on="0"/>
        <pt x="442" y="737" on="0"/>
        <pt x="496" y="720" on="0"/>
        <pt x="542" y="691" on="0"/>
        <pt x="575" y="647" on="0"/>
        <pt x="588" y="591" on="0"/>
        <pt x="583" y="563" on="1"/>
        <pt x="582" y="560" on="0"/>
        <pt x="581" y="555" on="0"/>
        <pt x="581" y="553" on="1"/>
        <pt x="491" y="553" on="1"/>
        <pt x="492" y="554" on="0"/>
        <pt x="492" y="557" on="0"/>
        <pt x="492" y="559" on="1"/>
        <pt x="495" y="576" on="0"/>
        <pt x="487" y="609" on="0"/>
        <pt x="467" y="634" on="0"/>
        <pt x="439" y="651" on="0"/>
        <pt x="407" y="660" on="0"/>
        <pt x="373" y="664" on="0"/>
        <pt x="356" y="664" on="1"/>
        <pt x="329" y="664" on="0"/>
        <pt x="275" y="655" on="0"/>
        <pt x="225" y="631" on="0"/>
        <pt x="187" y="586" on="0"/>
        <pt x="183" y="559" on="1"/>
        <pt x="179" y="534" on="0"/>
        <pt x="195" y="488" on="0"/>
        <pt x="226" y="453" on="0"/>
        <pt x="268" y="430" on="0"/>
        <pt x="313" y="413" on="0"/>
        <pt x="358" y="397" on="0"/>
        <pt x="401" y="377" on="0"/>
        <pt x="441" y="352" on="0"/>
        <pt x="475" y="320" on="0"/>
        <pt x="503" y="282" on="0"/>
        <pt x="520" y="238" on="0"/>
        <pt x="527" y="189" on="0"/>
        <pt x="523" y="164" on="1"/>
        <pt x="518" y="136" on="0"/>
        <pt x="490" y="83" on="0"/>
        <pt x="446" y="42" on="0"/>
        <pt x="393" y="14" on="0"/>
        <pt x="337" y="-2" on="0"/>
        <pt x="281" y="-8" on="0"/>
      </contour>
    </TTGlyph>
    <TTGlyph name="Scedilla" xMin="14" yMin="-220" xMax="588" yMax="743">
      <contour>
        <pt x="107" y="-220" on="1"/>
        <pt x="119" y="-150" on="1"/>
        <pt x="219" y="-150" on="1"/>
        <pt x="223" y="-150" on="0"/>
        <pt x="232" y="-149" on="0"/>
        <pt x="241" y="-146" on="0"/>
        <pt x="249" y="-140" on="0"/>
        <pt x="249" y="-135" on="1"/>
        <pt x="250" y="-131" on="0"/>
        <pt x="245" y="-124" on="0"/>
        <pt x="237" y="-121" on="0"/>
        <pt x="228" y="-120" on="0"/>
        <pt x="224" y="-120" on="1"/>
        <pt x="184" y="-120" on="1"/>
        <pt x="203" y="-6" on="1"/>
        <pt x="178" y="-4" on="0"/>
        <pt x="129" y="8" on="0"/>
        <pt x="85" y="28" on="0"/>
        <pt x="48" y="58" on="0"/>
        <pt x="24" y="99" on="0"/>
        <pt x="14" y="149" on="0"/>
        <pt x="19" y="174" on="1"/>
        <pt x="19" y="177" on="0"/>
        <pt x="20" y="181" on="0"/>
        <pt x="20" y="184" on="1"/>
        <pt x="110" y="184" on="1"/>
        <pt x="110" y="182" on="0"/>
        <pt x="109" y="180" on="0"/>
        <pt x="109" y="178" on="1"/>
        <pt x="106" y="160" on="0"/>
        <pt x="115" y="126" on="0"/>
        <pt x="137" y="101" on="0"/>
        <pt x="167" y="84" on="0"/>
        <pt x="200" y="75" on="0"/>
        <pt x="235" y="71" on="0"/>
        <pt x="254" y="71" on="1"/>
        <pt x="272" y="71" on="0"/>
        <pt x="308" y="74" on="0"/>
        <pt x="345" y="83" on="0"/>
        <pt x="381" y="99" on="0"/>
        <pt x="411" y="124" on="0"/>
        <pt x="431" y="158" on="0"/>
        <pt x="434" y="177" on="1"/>
        <pt x="438" y="198" on="0"/>
        <pt x="426" y="238" on="0"/>
        <pt x="403" y="271" on="0"/>
        <pt x="370" y="295" on="0"/>
        <pt x="333" y="312" on="0"/>
        <pt x="294" y="325" on="0"/>
        <pt x="256" y="339" on="0"/>
        <pt x="219" y="357" on="0"/>
        <pt x="184" y="378" on="0"/>
        <pt x="153" y="403" on="0"/>
        <pt x="127" y="434" on="0"/>
        <pt x="107" y="468" on="0"/>
        <pt x="94" y="508" on="0"/>
        <pt x="91" y="550" on="0"/>
        <pt x="94" y="572" on="1"/>
        <pt x="99" y="599" on="0"/>
        <pt x="126" y="651" on="0"/>
        <pt x="167" y="692" on="0"/>
        <pt x="219" y="721" on="0"/>
        <pt x="273" y="737" on="0"/>
        <pt x="328" y="743" on="0"/>
        <pt x="356" y="743" on="1"/>
        <pt x="385" y="743" on="0"/>
        <pt x="442" y="737" on="0"/>
        <pt x="496" y="720" on="0"/>
        <pt x="542" y="691" on="0"/>
        <pt x="575" y="647" on="0"/>
        <pt x="588" y="591" on="0"/>
        <pt x="583" y="563" on="1"/>
        <pt x="582" y="560" on="0"/>
        <pt x="581" y="555" on="0"/>
        <pt x="581" y="553" on="1"/>
        <pt x="491" y="553" on="1"/>
        <pt x="492" y="554" on="0"/>
        <pt x="492" y="557" on="0"/>
        <pt x="492" y="559" on="1"/>
        <pt x="495" y="576" on="0"/>
        <pt x="487" y="609" on="0"/>
        <pt x="467" y="634" on="0"/>
        <pt x="439" y="651" on="0"/>
        <pt x="407" y="660" on="0"/>
        <pt x="373" y="664" on="0"/>
        <pt x="356" y="664" on="1"/>
        <pt x="329" y="664" on="0"/>
        <pt x="275" y="655" on="0"/>
        <pt x="225" y="631" on="0"/>
        <pt x="187" y="586" on="0"/>
        <pt x="183" y="559" on="1"/>
        <pt x="179" y="534" on="0"/>
        <pt x="195" y="488" on="0"/>
        <pt x="226" y="453" on="0"/>
        <pt x="268" y="430" on="0"/>
        <pt x="313" y="413" on="0"/>
        <pt x="358" y="397" on="0"/>
        <pt x="401" y="377" on="0"/>
        <pt x="441" y="352" on="0"/>
        <pt x="475" y="320" on="0"/>
        <pt x="503" y="282" on="0"/>
        <pt x="520" y="238" on="0"/>
        <pt x="527" y="189" on="0"/>
        <pt x="523" y="164" on="1"/>
        <pt x="518" y="138" on="0"/>
        <pt x="494" y="90" on="0"/>
        <pt x="457" y="50" on="0"/>
        <pt x="410" y="21" on="0"/>
        <pt x="359" y="3" on="0"/>
        <pt x="308" y="-6" on="0"/>
        <pt x="283" y="-7" on="1"/>
        <pt x="275" y="-54" on="1"/>
        <pt x="288" y="-58" on="0"/>
        <pt x="312" y="-71" on="0"/>
        <pt x="327" y="-92" on="0"/>
        <pt x="332" y="-120" on="0"/>
        <pt x="329" y="-135" on="1"/>
        <pt x="326" y="-154" on="0"/>
        <pt x="303" y="-190" on="0"/>
        <pt x="267" y="-212" on="0"/>
        <pt x="227" y="-220" on="0"/>
        <pt x="207" y="-220" on="1"/>
      </contour>
    </TTGlyph>
    <TTGlyph name="Scircumflex" xMin="14" yMin="-8" xMax="588" yMax="980">
      <contour>
        <pt x="270" y="791" on="1"/>
        <pt x="203" y="855" on="1"/>
        <pt x="356" y="980" on="1"/>
        <pt x="456" y="980" on="1"/>
        <pt x="563" y="849" on="1"/>
        <pt x="484" y="797" on="1"/>
        <pt x="397" y="921" on="1"/>
      </contour>
      <contour>
        <pt x="253" y="-8" on="1"/>
        <pt x="224" y="-8" on="0"/>
        <pt x="165" y="-2" on="0"/>
        <pt x="110" y="15" on="0"/>
        <pt x="62" y="44" on="0"/>
        <pt x="28" y="88" on="0"/>
        <pt x="14" y="145" on="0"/>
        <pt x="19" y="174" on="1"/>
        <pt x="19" y="177" on="0"/>
        <pt x="20" y="181" on="0"/>
        <pt x="20" y="184" on="1"/>
        <pt x="110" y="184" on="1"/>
        <pt x="110" y="182" on="0"/>
        <pt x="109" y="180" on="0"/>
        <pt x="109" y="178" on="1"/>
        <pt x="106" y="160" on="0"/>
        <pt x="115" y="126" on="0"/>
        <pt x="137" y="101" on="0"/>
        <pt x="167" y="84" on="0"/>
        <pt x="200" y="75" on="0"/>
        <pt x="235" y="71" on="0"/>
        <pt x="254" y="71" on="1"/>
        <pt x="272" y="71" on="0"/>
        <pt x="308" y="74" on="0"/>
        <pt x="345" y="83" on="0"/>
        <pt x="381" y="99" on="0"/>
        <pt x="411" y="124" on="0"/>
        <pt x="431" y="158" on="0"/>
        <pt x="434" y="177" on="1"/>
        <pt x="438" y="198" on="0"/>
        <pt x="426" y="238" on="0"/>
        <pt x="403" y="271" on="0"/>
        <pt x="370" y="295" on="0"/>
        <pt x="333" y="312" on="0"/>
        <pt x="294" y="325" on="0"/>
        <pt x="256" y="339" on="0"/>
        <pt x="219" y="357" on="0"/>
        <pt x="184" y="378" on="0"/>
        <pt x="153" y="403" on="0"/>
        <pt x="127" y="434" on="0"/>
        <pt x="107" y="468" on="0"/>
        <pt x="94" y="508" on="0"/>
        <pt x="91" y="550" on="0"/>
        <pt x="94" y="572" on="1"/>
        <pt x="99" y="599" on="0"/>
        <pt x="126" y="651" on="0"/>
        <pt x="167" y="692" on="0"/>
        <pt x="219" y="721" on="0"/>
        <pt x="273" y="737" on="0"/>
        <pt x="328" y="743" on="0"/>
        <pt x="356" y="743" on="1"/>
        <pt x="385" y="743" on="0"/>
        <pt x="442" y="737" on="0"/>
        <pt x="496" y="720" on="0"/>
        <pt x="542" y="691" on="0"/>
        <pt x="575" y="647" on="0"/>
        <pt x="588" y="591" on="0"/>
        <pt x="583" y="563" on="1"/>
        <pt x="582" y="560" on="0"/>
        <pt x="581" y="555" on="0"/>
        <pt x="581" y="553" on="1"/>
        <pt x="491" y="553" on="1"/>
        <pt x="492" y="554" on="0"/>
        <pt x="492" y="557" on="0"/>
        <pt x="492" y="559" on="1"/>
        <pt x="495" y="576" on="0"/>
        <pt x="487" y="609" on="0"/>
        <pt x="467" y="634" on="0"/>
        <pt x="439" y="651" on="0"/>
        <pt x="407" y="660" on="0"/>
        <pt x="373" y="664" on="0"/>
        <pt x="356" y="664" on="1"/>
        <pt x="329" y="664" on="0"/>
        <pt x="275" y="655" on="0"/>
        <pt x="225" y="631" on="0"/>
        <pt x="187" y="586" on="0"/>
        <pt x="183" y="559" on="1"/>
        <pt x="179" y="534" on="0"/>
        <pt x="195" y="488" on="0"/>
        <pt x="226" y="453" on="0"/>
        <pt x="268" y="430" on="0"/>
        <pt x="313" y="413" on="0"/>
        <pt x="358" y="397" on="0"/>
        <pt x="401" y="377" on="0"/>
        <pt x="441" y="352" on="0"/>
        <pt x="475" y="320" on="0"/>
        <pt x="503" y="282" on="0"/>
        <pt x="520" y="238" on="0"/>
        <pt x="527" y="189" on="0"/>
        <pt x="523" y="164" on="1"/>
        <pt x="518" y="136" on="0"/>
        <pt x="490" y="83" on="0"/>
        <pt x="446" y="42" on="0"/>
        <pt x="393" y="14" on="0"/>
        <pt x="337" y="-2" on="0"/>
        <pt x="281" y="-8" on="0"/>
      </contour>
    </TTGlyph>
    <TTGlyph name="T" xMin="97" yMin="0" xMax="621" yMax="735">
      <contour>
        <pt x="198" y="0" on="1"/>
        <pt x="307" y="656" on="1"/>
        <pt x="97" y="656" on="1"/>
        <pt x="110" y="735" on="1"/>
        <pt x="621" y="735" on="1"/>
        <pt x="608" y="656" on="1"/>
        <pt x="398" y="656" on="1"/>
        <pt x="289" y="0" on="1"/>
      </contour>
    </TTGlyph>
    <TTGlyph name="Tbar" xMin="97" yMin="0" xMax="621" yMax="735">
      <contour>
        <pt x="198" y="0" on="1"/>
        <pt x="247" y="291" on="1"/>
        <pt x="104" y="291" on="1"/>
        <pt x="104" y="370" on="1"/>
        <pt x="260" y="370" on="1"/>
        <pt x="307" y="656" on="1"/>
        <pt x="97" y="656" on="1"/>
        <pt x="110" y="735" on="1"/>
        <pt x="621" y="735" on="1"/>
        <pt x="608" y="656" on="1"/>
        <pt x="398" y="656" on="1"/>
        <pt x="350" y="370" on="1"/>
        <pt x="493" y="370" on="1"/>
        <pt x="493" y="291" on="1"/>
        <pt x="337" y="291" on="1"/>
        <pt x="289" y="0" on="1"/>
      </contour>
    </TTGlyph>
    <TTGlyph name="Tcaron" xMin="97" yMin="0" xMax="621" yMax="987">
      <contour>
        <pt x="326" y="798" on="1"/>
        <pt x="219" y="929" on="1"/>
        <pt x="230" y="936" on="1"/>
        <pt x="298" y="981" on="1"/>
        <pt x="384" y="857" on="1"/>
        <pt x="512" y="987" on="1"/>
        <pt x="579" y="923" on="1"/>
        <pt x="426" y="798" on="1"/>
      </contour>
      <contour>
        <pt x="198" y="0" on="1"/>
        <pt x="307" y="656" on="1"/>
        <pt x="97" y="656" on="1"/>
        <pt x="110" y="735" on="1"/>
        <pt x="621" y="735" on="1"/>
        <pt x="608" y="656" on="1"/>
        <pt x="398" y="656" on="1"/>
        <pt x="289" y="0" on="1"/>
      </contour>
    </TTGlyph>
    <TTGlyph name="Thorn" xMin="14" yMin="0" xMax="559" yMax="735">
      <contour>
        <pt x="14" y="0" on="1"/>
        <pt x="136" y="735" on="1"/>
        <pt x="226" y="735" on="1"/>
        <pt x="203" y="595" on="1"/>
        <pt x="346" y="595" on="1"/>
        <pt x="379" y="595" on="0"/>
        <pt x="443" y="584" on="0"/>
        <pt x="497" y="554" on="0"/>
        <pt x="537" y="506" on="0"/>
        <pt x="557" y="447" on="0"/>
        <pt x="559" y="381" on="0"/>
        <pt x="553" y="348" on="1"/>
        <pt x="548" y="319" on="0"/>
        <pt x="528" y="261" on="0"/>
        <pt x="491" y="211" on="0"/>
        <pt x="440" y="172" on="0"/>
        <pt x="383" y="149" on="0"/>
        <pt x="324" y="140" on="0"/>
        <pt x="295" y="140" on="1"/>
        <pt x="128" y="140" on="1"/>
        <pt x="105" y="0" on="1"/>
      </contour>
      <contour>
        <pt x="141" y="219" on="1"/>
        <pt x="295" y="219" on="1"/>
        <pt x="314" y="219" on="0"/>
        <pt x="354" y="225" on="0"/>
        <pt x="391" y="241" on="0"/>
        <pt x="425" y="268" on="0"/>
        <pt x="448" y="302" on="0"/>
        <pt x="461" y="341" on="0"/>
        <pt x="465" y="360" on="1"/>
        <pt x="468" y="380" on="0"/>
        <pt x="468" y="420" on="0"/>
        <pt x="458" y="457" on="0"/>
        <pt x="436" y="488" on="0"/>
        <pt x="404" y="508" on="0"/>
        <pt x="366" y="516" on="0"/>
        <pt x="346" y="516" on="1"/>
        <pt x="190" y="516" on="1"/>
      </contour>
    </TTGlyph>
    <TTGlyph name="U" xMin="31" yMin="-8" xMax="609" yMax="735">
      <contour>
        <pt x="254" y="-8" on="1"/>
        <pt x="230" y="-8" on="0"/>
        <pt x="183" y="-3" on="0"/>
        <pt x="138" y="9" on="0"/>
        <pt x="98" y="30" on="0"/>
        <pt x="65" y="60" on="0"/>
        <pt x="42" y="99" on="0"/>
        <pt x="31" y="144" on="0"/>
        <pt x="32" y="192" on="0"/>
        <pt x="36" y="216" on="1"/>
        <pt x="122" y="735" on="1"/>
        <pt x="212" y="735" on="1"/>
        <pt x="124" y="203" on="1"/>
        <pt x="121" y="184" on="0"/>
        <pt x="123" y="146" on="0"/>
        <pt x="139" y="114" on="0"/>
        <pt x="165" y="90" on="0"/>
        <pt x="199" y="76" on="0"/>
        <pt x="236" y="71" on="0"/>
        <pt x="255" y="71" on="1"/>
        <pt x="274" y="71" on="0"/>
        <pt x="310" y="75" on="0"/>
        <pt x="347" y="86" on="0"/>
        <pt x="381" y="106" on="0"/>
        <pt x="409" y="134" on="0"/>
        <pt x="425" y="169" on="0"/>
        <pt x="428" y="188" on="1"/>
        <pt x="519" y="735" on="1"/>
        <pt x="609" y="735" on="1"/>
        <pt x="516" y="175" on="1"/>
        <pt x="513" y="154" on="0"/>
        <pt x="499" y="113" on="0"/>
        <pt x="473" y="75" on="0"/>
        <pt x="440" y="44" on="0"/>
        <pt x="401" y="20" on="0"/>
        <pt x="360" y="4" on="0"/>
        <pt x="318" y="-4" on="0"/>
        <pt x="275" y="-8" on="0"/>
      </contour>
    </TTGlyph>
    <TTGlyph name="Uacute" xMin="31" yMin="-8" xMax="609" yMax="988">
      <component glyphName="U" x="0" y="0" flags="0x1000"/>
      <component glyphName="acutecomb" x="634" y="205" flags="0x1000"/>
    </TTGlyph>
    <TTGlyph name="Ubreve" xMin="31" yMin="-8" xMax="609" yMax="955">
      <contour>
        <pt x="379" y="815" on="1"/>
        <pt x="358" y="815" on="0"/>
        <pt x="318" y="820" on="0"/>
        <pt x="282" y="835" on="0"/>
        <pt x="253" y="860" on="0"/>
        <pt x="236" y="894" on="0"/>
        <pt x="233" y="935" on="0"/>
        <pt x="237" y="955" on="1"/>
        <pt x="327" y="955" on="1"/>
        <pt x="325" y="942" on="0"/>
        <pt x="332" y="916" on="0"/>
        <pt x="352" y="900" on="0"/>
        <pt x="378" y="894" on="0"/>
        <pt x="392" y="894" on="1"/>
        <pt x="406" y="894" on="0"/>
        <pt x="434" y="900" on="0"/>
        <pt x="458" y="916" on="0"/>
        <pt x="474" y="941" on="0"/>
        <pt x="477" y="955" on="1"/>
        <pt x="567" y="955" on="1"/>
        <pt x="564" y="934" on="0"/>
        <pt x="547" y="894" on="0"/>
        <pt x="519" y="860" on="0"/>
        <pt x="482" y="835" on="0"/>
        <pt x="441" y="820" on="0"/>
        <pt x="399" y="815" on="0"/>
      </contour>
      <contour>
        <pt x="254" y="-8" on="1"/>
        <pt x="230" y="-8" on="0"/>
        <pt x="183" y="-3" on="0"/>
        <pt x="138" y="9" on="0"/>
        <pt x="98" y="30" on="0"/>
        <pt x="65" y="60" on="0"/>
        <pt x="42" y="99" on="0"/>
        <pt x="31" y="144" on="0"/>
        <pt x="32" y="192" on="0"/>
        <pt x="36" y="216" on="1"/>
        <pt x="122" y="735" on="1"/>
        <pt x="212" y="735" on="1"/>
        <pt x="124" y="203" on="1"/>
        <pt x="121" y="184" on="0"/>
        <pt x="123" y="146" on="0"/>
        <pt x="139" y="114" on="0"/>
        <pt x="165" y="90" on="0"/>
        <pt x="199" y="76" on="0"/>
        <pt x="236" y="71" on="0"/>
        <pt x="255" y="71" on="1"/>
        <pt x="274" y="71" on="0"/>
        <pt x="310" y="75" on="0"/>
        <pt x="347" y="86" on="0"/>
        <pt x="381" y="106" on="0"/>
        <pt x="409" y="134" on="0"/>
        <pt x="425" y="169" on="0"/>
        <pt x="428" y="188" on="1"/>
        <pt x="519" y="735" on="1"/>
        <pt x="609" y="735" on="1"/>
        <pt x="516" y="175" on="1"/>
        <pt x="513" y="154" on="0"/>
        <pt x="499" y="113" on="0"/>
        <pt x="473" y="75" on="0"/>
        <pt x="440" y="44" on="0"/>
        <pt x="401" y="20" on="0"/>
        <pt x="360" y="4" on="0"/>
        <pt x="318" y="-4" on="0"/>
        <pt x="275" y="-8" on="0"/>
      </contour>
    </TTGlyph>
    <TTGlyph name="Ucircumflex" xMin="31" yMin="-8" xMax="609" yMax="980">
      <contour>
        <pt x="270" y="791" on="1"/>
        <pt x="203" y="855" on="1"/>
        <pt x="356" y="980" on="1"/>
        <pt x="456" y="980" on="1"/>
        <pt x="563" y="849" on="1"/>
        <pt x="484" y="797" on="1"/>
        <pt x="397" y="921" on="1"/>
      </contour>
      <contour>
        <pt x="254" y="-8" on="1"/>
        <pt x="230" y="-8" on="0"/>
        <pt x="183" y="-3" on="0"/>
        <pt x="138" y="9" on="0"/>
        <pt x="98" y="30" on="0"/>
        <pt x="65" y="60" on="0"/>
        <pt x="42" y="99" on="0"/>
        <pt x="31" y="144" on="0"/>
        <pt x="32" y="192" on="0"/>
        <pt x="36" y="216" on="1"/>
        <pt x="122" y="735" on="1"/>
        <pt x="212" y="735" on="1"/>
        <pt x="124" y="203" on="1"/>
        <pt x="121" y="184" on="0"/>
        <pt x="123" y="146" on="0"/>
        <pt x="139" y="114" on="0"/>
        <pt x="165" y="90" on="0"/>
        <pt x="199" y="76" on="0"/>
        <pt x="236" y="71" on="0"/>
        <pt x="255" y="71" on="1"/>
        <pt x="274" y="71" on="0"/>
        <pt x="310" y="75" on="0"/>
        <pt x="347" y="86" on="0"/>
        <pt x="381" y="106" on="0"/>
        <pt x="409" y="134" on="0"/>
        <pt x="425" y="169" on="0"/>
        <pt x="428" y="188" on="1"/>
        <pt x="519" y="735" on="1"/>
        <pt x="609" y="735" on="1"/>
        <pt x="516" y="175" on="1"/>
        <pt x="513" y="154" on="0"/>
        <pt x="499" y="113" on="0"/>
        <pt x="473" y="75" on="0"/>
        <pt x="440" y="44" on="0"/>
        <pt x="401" y="20" on="0"/>
        <pt x="360" y="4" on="0"/>
        <pt x="318" y="-4" on="0"/>
        <pt x="275" y="-8" on="0"/>
      </contour>
    </TTGlyph>
    <TTGlyph name="Udieresis" xMin="31" yMin="-8" xMax="609" yMax="951">
      <contour>
        <pt x="490" y="819" on="1"/>
        <pt x="474" y="819" on="0"/>
        <pt x="445" y="830" on="0"/>
        <pt x="428" y="854" on="0"/>
        <pt x="423" y="885" on="0"/>
        <pt x="425" y="901" on="1"/>
        <pt x="427" y="912" on="0"/>
        <pt x="438" y="932" on="0"/>
        <pt x="457" y="946" on="0"/>
        <pt x="479" y="951" on="0"/>
        <pt x="490" y="951" on="1"/>
        <pt x="506" y="951" on="0"/>
        <pt x="535" y="940" on="0"/>
        <pt x="553" y="916" on="0"/>
        <pt x="558" y="885" on="0"/>
        <pt x="555" y="869" on="1"/>
        <pt x="553" y="858" on="0"/>
        <pt x="542" y="838" on="0"/>
        <pt x="523" y="824" on="0"/>
        <pt x="501" y="819" on="0"/>
      </contour>
      <contour>
        <pt x="290" y="819" on="1"/>
        <pt x="274" y="819" on="0"/>
        <pt x="245" y="830" on="0"/>
        <pt x="228" y="854" on="0"/>
        <pt x="223" y="885" on="0"/>
        <pt x="225" y="901" on="1"/>
        <pt x="227" y="912" on="0"/>
        <pt x="238" y="932" on="0"/>
        <pt x="257" y="946" on="0"/>
        <pt x="279" y="951" on="0"/>
        <pt x="290" y="951" on="1"/>
        <pt x="306" y="951" on="0"/>
        <pt x="335" y="940" on="0"/>
        <pt x="353" y="916" on="0"/>
        <pt x="358" y="885" on="0"/>
        <pt x="355" y="869" on="1"/>
        <pt x="353" y="858" on="0"/>
        <pt x="342" y="838" on="0"/>
        <pt x="323" y="824" on="0"/>
        <pt x="301" y="819" on="0"/>
      </contour>
      <contour>
        <pt x="254" y="-8" on="1"/>
        <pt x="230" y="-8" on="0"/>
        <pt x="183" y="-3" on="0"/>
        <pt x="138" y="9" on="0"/>
        <pt x="98" y="30" on="0"/>
        <pt x="65" y="60" on="0"/>
        <pt x="42" y="99" on="0"/>
        <pt x="31" y="144" on="0"/>
        <pt x="32" y="192" on="0"/>
        <pt x="36" y="216" on="1"/>
        <pt x="122" y="735" on="1"/>
        <pt x="212" y="735" on="1"/>
        <pt x="124" y="203" on="1"/>
        <pt x="121" y="184" on="0"/>
        <pt x="123" y="146" on="0"/>
        <pt x="139" y="114" on="0"/>
        <pt x="165" y="90" on="0"/>
        <pt x="199" y="76" on="0"/>
        <pt x="236" y="71" on="0"/>
        <pt x="255" y="71" on="1"/>
        <pt x="274" y="71" on="0"/>
        <pt x="310" y="75" on="0"/>
        <pt x="347" y="86" on="0"/>
        <pt x="381" y="106" on="0"/>
        <pt x="409" y="134" on="0"/>
        <pt x="425" y="169" on="0"/>
        <pt x="428" y="188" on="1"/>
        <pt x="519" y="735" on="1"/>
        <pt x="609" y="735" on="1"/>
        <pt x="516" y="175" on="1"/>
        <pt x="513" y="154" on="0"/>
        <pt x="499" y="113" on="0"/>
        <pt x="473" y="75" on="0"/>
        <pt x="440" y="44" on="0"/>
        <pt x="401" y="20" on="0"/>
        <pt x="360" y="4" on="0"/>
        <pt x="318" y="-4" on="0"/>
        <pt x="275" y="-8" on="0"/>
      </contour>
    </TTGlyph>
    <TTGlyph name="Ugrave" xMin="31" yMin="-8" xMax="609" yMax="983">
      <contour>
        <pt x="392" y="792" on="1"/>
        <pt x="264" y="927" on="1"/>
        <pt x="339" y="983" on="1"/>
        <pt x="453" y="838" on="1"/>
      </contour>
      <contour>
        <pt x="254" y="-8" on="1"/>
        <pt x="230" y="-8" on="0"/>
        <pt x="183" y="-3" on="0"/>
        <pt x="138" y="9" on="0"/>
        <pt x="98" y="30" on="0"/>
        <pt x="65" y="60" on="0"/>
        <pt x="42" y="99" on="0"/>
        <pt x="31" y="144" on="0"/>
        <pt x="32" y="192" on="0"/>
        <pt x="36" y="216" on="1"/>
        <pt x="122" y="735" on="1"/>
        <pt x="212" y="735" on="1"/>
        <pt x="124" y="203" on="1"/>
        <pt x="121" y="184" on="0"/>
        <pt x="123" y="146" on="0"/>
        <pt x="139" y="114" on="0"/>
        <pt x="165" y="90" on="0"/>
        <pt x="199" y="76" on="0"/>
        <pt x="236" y="71" on="0"/>
        <pt x="255" y="71" on="1"/>
        <pt x="274" y="71" on="0"/>
        <pt x="310" y="75" on="0"/>
        <pt x="347" y="86" on="0"/>
        <pt x="381" y="106" on="0"/>
        <pt x="409" y="134" on="0"/>
        <pt x="425" y="169" on="0"/>
        <pt x="428" y="188" on="1"/>
        <pt x="519" y="735" on="1"/>
        <pt x="609" y="735" on="1"/>
        <pt x="516" y="175" on="1"/>
        <pt x="513" y="154" on="0"/>
        <pt x="499" y="113" on="0"/>
        <pt x="473" y="75" on="0"/>
        <pt x="440" y="44" on="0"/>
        <pt x="401" y="20" on="0"/>
        <pt x="360" y="4" on="0"/>
        <pt x="318" y="-4" on="0"/>
        <pt x="275" y="-8" on="0"/>
      </contour>
    </TTGlyph>
    <TTGlyph name="Uhungarumlaut" xMin="31" yMin="-8" xMax="618" yMax="988">
      <contour>
        <pt x="446" y="788" on="1"/>
        <pt x="394" y="842" on="1"/>
        <pt x="555" y="988" on="1"/>
        <pt x="618" y="922" on="1"/>
      </contour>
      <contour>
        <pt x="276" y="788" on="1"/>
        <pt x="224" y="842" on="1"/>
        <pt x="385" y="988" on="1"/>
        <pt x="448" y="922" on="1"/>
      </contour>
      <contour>
        <pt x="254" y="-8" on="1"/>
        <pt x="230" y="-8" on="0"/>
        <pt x="183" y="-3" on="0"/>
        <pt x="138" y="9" on="0"/>
        <pt x="98" y="30" on="0"/>
        <pt x="65" y="60" on="0"/>
        <pt x="42" y="99" on="0"/>
        <pt x="31" y="144" on="0"/>
        <pt x="32" y="192" on="0"/>
        <pt x="36" y="216" on="1"/>
        <pt x="122" y="735" on="1"/>
        <pt x="212" y="735" on="1"/>
        <pt x="124" y="203" on="1"/>
        <pt x="121" y="184" on="0"/>
        <pt x="123" y="146" on="0"/>
        <pt x="139" y="114" on="0"/>
        <pt x="165" y="90" on="0"/>
        <pt x="199" y="76" on="0"/>
        <pt x="236" y="71" on="0"/>
        <pt x="255" y="71" on="1"/>
        <pt x="274" y="71" on="0"/>
        <pt x="310" y="75" on="0"/>
        <pt x="347" y="86" on="0"/>
        <pt x="381" y="106" on="0"/>
        <pt x="409" y="134" on="0"/>
        <pt x="425" y="169" on="0"/>
        <pt x="428" y="188" on="1"/>
        <pt x="519" y="735" on="1"/>
        <pt x="609" y="735" on="1"/>
        <pt x="516" y="175" on="1"/>
        <pt x="513" y="154" on="0"/>
        <pt x="499" y="113" on="0"/>
        <pt x="473" y="75" on="0"/>
        <pt x="440" y="44" on="0"/>
        <pt x="401" y="20" on="0"/>
        <pt x="360" y="4" on="0"/>
        <pt x="318" y="-4" on="0"/>
        <pt x="275" y="-8" on="0"/>
      </contour>
    </TTGlyph>
    <TTGlyph name="Umacron" xMin="31" yMin="-8" xMax="609" yMax="925">
      <contour>
        <pt x="540" y="845" on="1"/>
        <pt x="240" y="845" on="1"/>
        <pt x="240" y="925" on="1"/>
        <pt x="540" y="925" on="1"/>
      </contour>
      <contour>
        <pt x="254" y="-8" on="1"/>
        <pt x="230" y="-8" on="0"/>
        <pt x="183" y="-3" on="0"/>
        <pt x="138" y="9" on="0"/>
        <pt x="98" y="30" on="0"/>
        <pt x="65" y="60" on="0"/>
        <pt x="42" y="99" on="0"/>
        <pt x="31" y="144" on="0"/>
        <pt x="32" y="192" on="0"/>
        <pt x="36" y="216" on="1"/>
        <pt x="122" y="735" on="1"/>
        <pt x="212" y="735" on="1"/>
        <pt x="124" y="203" on="1"/>
        <pt x="121" y="184" on="0"/>
        <pt x="123" y="146" on="0"/>
        <pt x="139" y="114" on="0"/>
        <pt x="165" y="90" on="0"/>
        <pt x="199" y="76" on="0"/>
        <pt x="236" y="71" on="0"/>
        <pt x="255" y="71" on="1"/>
        <pt x="274" y="71" on="0"/>
        <pt x="310" y="75" on="0"/>
        <pt x="347" y="86" on="0"/>
        <pt x="381" y="106" on="0"/>
        <pt x="409" y="134" on="0"/>
        <pt x="425" y="169" on="0"/>
        <pt x="428" y="188" on="1"/>
        <pt x="519" y="735" on="1"/>
        <pt x="609" y="735" on="1"/>
        <pt x="516" y="175" on="1"/>
        <pt x="513" y="154" on="0"/>
        <pt x="499" y="113" on="0"/>
        <pt x="473" y="75" on="0"/>
        <pt x="440" y="44" on="0"/>
        <pt x="401" y="20" on="0"/>
        <pt x="360" y="4" on="0"/>
        <pt x="318" y="-4" on="0"/>
        <pt x="275" y="-8" on="0"/>
      </contour>
    </TTGlyph>
    <TTGlyph name="Uogonek" xMin="31" yMin="-193" xMax="609" yMax="735">
      <contour>
        <pt x="254" y="-8" on="1"/>
        <pt x="247" y="-8" on="0"/>
        <pt x="232" y="-8" on="0"/>
        <pt x="225" y="-7" on="1"/>
        <pt x="229" y="-4" on="0"/>
        <pt x="239" y="0" on="0"/>
        <pt x="244" y="0" on="1"/>
        <pt x="250" y="39" on="1"/>
        <pt x="238" y="39" on="0"/>
        <pt x="213" y="36" on="0"/>
        <pt x="188" y="27" on="0"/>
        <pt x="165" y="14" on="0"/>
        <pt x="155" y="4" on="1"/>
        <pt x="134" y="11" on="0"/>
        <pt x="95" y="32" on="0"/>
        <pt x="63" y="63" on="0"/>
        <pt x="42" y="101" on="0"/>
        <pt x="31" y="145" on="0"/>
        <pt x="32" y="192" on="0"/>
        <pt x="36" y="216" on="1"/>
        <pt x="122" y="735" on="1"/>
        <pt x="212" y="735" on="1"/>
        <pt x="124" y="203" on="1"/>
        <pt x="121" y="184" on="0"/>
        <pt x="123" y="146" on="0"/>
        <pt x="139" y="114" on="0"/>
        <pt x="165" y="90" on="0"/>
        <pt x="199" y="76" on="0"/>
        <pt x="236" y="71" on="0"/>
        <pt x="255" y="71" on="1"/>
        <pt x="274" y="71" on="0"/>
        <pt x="310" y="75" on="0"/>
        <pt x="347" y="86" on="0"/>
        <pt x="381" y="106" on="0"/>
        <pt x="409" y="134" on="0"/>
        <pt x="425" y="169" on="0"/>
        <pt x="428" y="188" on="1"/>
        <pt x="519" y="735" on="1"/>
        <pt x="609" y="735" on="1"/>
        <pt x="516" y="175" on="1"/>
        <pt x="513" y="154" on="0"/>
        <pt x="499" y="113" on="0"/>
        <pt x="473" y="75" on="0"/>
        <pt x="440" y="44" on="0"/>
        <pt x="401" y="20" on="0"/>
        <pt x="360" y="4" on="0"/>
        <pt x="318" y="-4" on="0"/>
        <pt x="275" y="-8" on="0"/>
      </contour>
      <contour>
        <pt x="237" y="-193" on="1"/>
        <pt x="219" y="-193" on="0"/>
        <pt x="185" y="-189" on="0"/>
        <pt x="155" y="-177" on="0"/>
        <pt x="129" y="-156" on="0"/>
        <pt x="114" y="-128" on="0"/>
        <pt x="112" y="-93" on="0"/>
        <pt x="115" y="-76" on="1"/>
        <pt x="119" y="-54" on="0"/>
        <pt x="138" y="-12" on="0"/>
        <pt x="155" y="4" on="1"/>
        <pt x="172" y="-1" on="0"/>
        <pt x="207" y="-6" on="0"/>
        <pt x="225" y="-7" on="1"/>
        <pt x="216" y="-16" on="0"/>
        <pt x="207" y="-40" on="0"/>
        <pt x="205" y="-51" on="1"/>
        <pt x="203" y="-62" on="0"/>
        <pt x="206" y="-84" on="0"/>
        <pt x="219" y="-100" on="0"/>
        <pt x="240" y="-107" on="0"/>
        <pt x="251" y="-107" on="1"/>
        <pt x="326" y="-107" on="1"/>
        <pt x="312" y="-193" on="1"/>
      </contour>
    </TTGlyph>
    <TTGlyph name="Uring" xMin="31" yMin="-8" xMax="609" yMax="985">
      <contour>
        <pt x="390" y="785" on="1"/>
        <pt x="366" y="785" on="0"/>
        <pt x="322" y="802" on="0"/>
        <pt x="296" y="838" on="0"/>
        <pt x="288" y="885" on="0"/>
        <pt x="292" y="909" on="1"/>
        <pt x="295" y="926" on="0"/>
        <pt x="312" y="957" on="0"/>
        <pt x="341" y="977" on="0"/>
        <pt x="374" y="985" on="0"/>
        <pt x="390" y="985" on="1"/>
        <pt x="414" y="985" on="0"/>
        <pt x="458" y="968" on="0"/>
        <pt x="485" y="932" on="0"/>
        <pt x="492" y="885" on="0"/>
        <pt x="488" y="861" on="1"/>
        <pt x="485" y="844" on="0"/>
        <pt x="468" y="813" on="0"/>
        <pt x="440" y="793" on="0"/>
        <pt x="406" y="785" on="0"/>
      </contour>
      <contour>
        <pt x="390" y="849" on="1"/>
        <pt x="396" y="849" on="0"/>
        <pt x="408" y="852" on="0"/>
        <pt x="419" y="859" on="0"/>
        <pt x="425" y="870" on="0"/>
        <pt x="426" y="876" on="1"/>
        <pt x="427" y="885" on="0"/>
        <pt x="425" y="902" on="0"/>
        <pt x="415" y="915" on="0"/>
        <pt x="399" y="921" on="0"/>
        <pt x="390" y="921" on="1"/>
        <pt x="384" y="921" on="0"/>
        <pt x="372" y="918" on="0"/>
        <pt x="362" y="911" on="0"/>
        <pt x="356" y="900" on="0"/>
        <pt x="355" y="894" on="1"/>
        <pt x="353" y="885" on="0"/>
        <pt x="356" y="868" on="0"/>
        <pt x="366" y="855" on="0"/>
        <pt x="381" y="849" on="0"/>
      </contour>
      <contour>
        <pt x="254" y="-8" on="1"/>
        <pt x="230" y="-8" on="0"/>
        <pt x="183" y="-3" on="0"/>
        <pt x="138" y="9" on="0"/>
        <pt x="98" y="30" on="0"/>
        <pt x="65" y="60" on="0"/>
        <pt x="42" y="99" on="0"/>
        <pt x="31" y="144" on="0"/>
        <pt x="32" y="192" on="0"/>
        <pt x="36" y="216" on="1"/>
        <pt x="122" y="735" on="1"/>
        <pt x="212" y="735" on="1"/>
        <pt x="124" y="203" on="1"/>
        <pt x="121" y="184" on="0"/>
        <pt x="123" y="146" on="0"/>
        <pt x="139" y="114" on="0"/>
        <pt x="165" y="90" on="0"/>
        <pt x="199" y="76" on="0"/>
        <pt x="236" y="71" on="0"/>
        <pt x="255" y="71" on="1"/>
        <pt x="274" y="71" on="0"/>
        <pt x="310" y="75" on="0"/>
        <pt x="347" y="86" on="0"/>
        <pt x="381" y="106" on="0"/>
        <pt x="409" y="134" on="0"/>
        <pt x="425" y="169" on="0"/>
        <pt x="428" y="188" on="1"/>
        <pt x="519" y="735" on="1"/>
        <pt x="609" y="735" on="1"/>
        <pt x="516" y="175" on="1"/>
        <pt x="513" y="154" on="0"/>
        <pt x="499" y="113" on="0"/>
        <pt x="473" y="75" on="0"/>
        <pt x="440" y="44" on="0"/>
        <pt x="401" y="20" on="0"/>
        <pt x="360" y="4" on="0"/>
        <pt x="318" y="-4" on="0"/>
        <pt x="275" y="-8" on="0"/>
      </contour>
    </TTGlyph>
    <TTGlyph name="Utilde" xMin="31" yMin="-8" xMax="609" yMax="977">
      <contour>
        <pt x="269" y="811" on="1"/>
        <pt x="194" y="855" on="1"/>
        <pt x="206" y="872" on="0"/>
        <pt x="228" y="901" on="0"/>
        <pt x="248" y="925" on="0"/>
        <pt x="268" y="945" on="0"/>
        <pt x="295" y="964" on="0"/>
        <pt x="326" y="976" on="0"/>
        <pt x="341" y="976" on="1"/>
        <pt x="347" y="976" on="0"/>
        <pt x="357" y="974" on="0"/>
        <pt x="367" y="972" on="0"/>
        <pt x="377" y="968" on="0"/>
        <pt x="386" y="964" on="0"/>
        <pt x="394" y="958" on="0"/>
        <pt x="400" y="952" on="0"/>
        <pt x="408" y="944" on="0"/>
        <pt x="415" y="936" on="0"/>
        <pt x="421" y="929" on="0"/>
        <pt x="426" y="921" on="0"/>
        <pt x="431" y="914" on="0"/>
        <pt x="436" y="906" on="0"/>
        <pt x="442" y="897" on="0"/>
        <pt x="445" y="894" on="1"/>
        <pt x="448" y="896" on="0"/>
        <pt x="457" y="905" on="0"/>
        <pt x="462" y="910" on="0"/>
        <pt x="468" y="916" on="0"/>
        <pt x="474" y="922" on="0"/>
        <pt x="480" y="930" on="0"/>
        <pt x="487" y="939" on="0"/>
        <pt x="494" y="948" on="0"/>
        <pt x="502" y="959" on="0"/>
        <pt x="510" y="971" on="0"/>
        <pt x="514" y="977" on="1"/>
        <pt x="589" y="933" on="1"/>
        <pt x="577" y="915" on="0"/>
        <pt x="556" y="886" on="0"/>
        <pt x="535" y="863" on="0"/>
        <pt x="515" y="842" on="0"/>
        <pt x="488" y="824" on="0"/>
        <pt x="458" y="812" on="0"/>
        <pt x="442" y="812" on="1"/>
        <pt x="433" y="812" on="0"/>
        <pt x="416" y="816" on="0"/>
        <pt x="398" y="823" on="0"/>
        <pt x="386" y="833" on="0"/>
        <pt x="372" y="847" on="0"/>
        <pt x="362" y="860" on="0"/>
        <pt x="353" y="873" on="0"/>
        <pt x="342" y="890" on="0"/>
        <pt x="339" y="894" on="1"/>
        <pt x="336" y="892" on="0"/>
        <pt x="326" y="883" on="0"/>
        <pt x="321" y="878" on="0"/>
        <pt x="316" y="872" on="0"/>
        <pt x="310" y="865" on="0"/>
        <pt x="303" y="858" on="0"/>
        <pt x="297" y="849" on="0"/>
        <pt x="289" y="839" on="0"/>
        <pt x="282" y="829" on="0"/>
        <pt x="273" y="817" on="0"/>
      </contour>
      <contour>
        <pt x="254" y="-8" on="1"/>
        <pt x="230" y="-8" on="0"/>
        <pt x="183" y="-3" on="0"/>
        <pt x="138" y="9" on="0"/>
        <pt x="98" y="30" on="0"/>
        <pt x="65" y="60" on="0"/>
        <pt x="42" y="99" on="0"/>
        <pt x="31" y="144" on="0"/>
        <pt x="32" y="192" on="0"/>
        <pt x="36" y="216" on="1"/>
        <pt x="122" y="735" on="1"/>
        <pt x="212" y="735" on="1"/>
        <pt x="124" y="203" on="1"/>
        <pt x="121" y="184" on="0"/>
        <pt x="123" y="146" on="0"/>
        <pt x="139" y="114" on="0"/>
        <pt x="165" y="90" on="0"/>
        <pt x="199" y="76" on="0"/>
        <pt x="236" y="71" on="0"/>
        <pt x="255" y="71" on="1"/>
        <pt x="274" y="71" on="0"/>
        <pt x="310" y="75" on="0"/>
        <pt x="347" y="86" on="0"/>
        <pt x="381" y="106" on="0"/>
        <pt x="409" y="134" on="0"/>
        <pt x="425" y="169" on="0"/>
        <pt x="428" y="188" on="1"/>
        <pt x="519" y="735" on="1"/>
        <pt x="609" y="735" on="1"/>
        <pt x="516" y="175" on="1"/>
        <pt x="513" y="154" on="0"/>
        <pt x="499" y="113" on="0"/>
        <pt x="473" y="75" on="0"/>
        <pt x="440" y="44" on="0"/>
        <pt x="401" y="20" on="0"/>
        <pt x="360" y="4" on="0"/>
        <pt x="318" y="-4" on="0"/>
        <pt x="275" y="-8" on="0"/>
      </contour>
    </TTGlyph>
    <TTGlyph name="V" xMin="103" yMin="0" xMax="628" yMax="735">
      <contour>
        <pt x="192" y="0" on="1"/>
        <pt x="103" y="735" on="1"/>
        <pt x="197" y="735" on="1"/>
        <pt x="248" y="245" on="1"/>
        <pt x="251" y="210" on="0"/>
        <pt x="258" y="141" on="0"/>
        <pt x="261" y="106" on="1"/>
        <pt x="276" y="141" on="0"/>
        <pt x="306" y="210" on="0"/>
        <pt x="321" y="245" on="1"/>
        <pt x="533" y="735" on="1"/>
        <pt x="628" y="735" on="1"/>
        <pt x="296" y="0" on="1"/>
      </contour>
    </TTGlyph>
    <TTGlyph name="W" xMin="85" yMin="0" xMax="625" yMax="735">
      <contour>
        <pt x="85" y="0" on="1"/>
        <pt x="106" y="735" on="1"/>
        <pt x="197" y="735" on="1"/>
        <pt x="161" y="178" on="1"/>
        <pt x="320" y="735" on="1"/>
        <pt x="411" y="735" on="1"/>
        <pt x="385" y="178" on="1"/>
        <pt x="534" y="735" on="1"/>
        <pt x="625" y="735" on="1"/>
        <pt x="402" y="0" on="1"/>
        <pt x="312" y="0" on="1"/>
        <pt x="335" y="551" on="1"/>
        <pt x="176" y="0" on="1"/>
      </contour>
    </TTGlyph>
    <TTGlyph name="Wacute" xMin="85" yMin="0" xMax="625" yMax="988">
      <component glyphName="W" x="0" y="0" flags="0x1000"/>
      <component glyphName="acutecomb" x="634" y="205" flags="0x1000"/>
    </TTGlyph>
    <TTGlyph name="Wcircumflex" xMin="85" yMin="0" xMax="625" yMax="980">
      <contour>
        <pt x="270" y="791" on="1"/>
        <pt x="203" y="855" on="1"/>
        <pt x="356" y="980" on="1"/>
        <pt x="456" y="980" on="1"/>
        <pt x="563" y="849" on="1"/>
        <pt x="484" y="797" on="1"/>
        <pt x="397" y="921" on="1"/>
      </contour>
      <contour>
        <pt x="85" y="0" on="1"/>
        <pt x="106" y="735" on="1"/>
        <pt x="197" y="735" on="1"/>
        <pt x="161" y="178" on="1"/>
        <pt x="320" y="735" on="1"/>
        <pt x="411" y="735" on="1"/>
        <pt x="385" y="178" on="1"/>
        <pt x="534" y="735" on="1"/>
        <pt x="625" y="735" on="1"/>
        <pt x="402" y="0" on="1"/>
        <pt x="312" y="0" on="1"/>
        <pt x="335" y="551" on="1"/>
        <pt x="176" y="0" on="1"/>
      </contour>
    </TTGlyph>
    <TTGlyph name="Wdieresis" xMin="85" yMin="0" xMax="625" yMax="951">
      <contour>
        <pt x="490" y="819" on="1"/>
        <pt x="474" y="819" on="0"/>
        <pt x="445" y="830" on="0"/>
        <pt x="428" y="854" on="0"/>
        <pt x="423" y="885" on="0"/>
        <pt x="425" y="901" on="1"/>
        <pt x="427" y="912" on="0"/>
        <pt x="438" y="932" on="0"/>
        <pt x="457" y="946" on="0"/>
        <pt x="479" y="951" on="0"/>
        <pt x="490" y="951" on="1"/>
        <pt x="506" y="951" on="0"/>
        <pt x="535" y="940" on="0"/>
        <pt x="553" y="916" on="0"/>
        <pt x="558" y="885" on="0"/>
        <pt x="555" y="869" on="1"/>
        <pt x="553" y="858" on="0"/>
        <pt x="542" y="838" on="0"/>
        <pt x="523" y="824" on="0"/>
        <pt x="501" y="819" on="0"/>
      </contour>
      <contour>
        <pt x="290" y="819" on="1"/>
        <pt x="274" y="819" on="0"/>
        <pt x="245" y="830" on="0"/>
        <pt x="228" y="854" on="0"/>
        <pt x="223" y="885" on="0"/>
        <pt x="225" y="901" on="1"/>
        <pt x="227" y="912" on="0"/>
        <pt x="238" y="932" on="0"/>
        <pt x="257" y="946" on="0"/>
        <pt x="279" y="951" on="0"/>
        <pt x="290" y="951" on="1"/>
        <pt x="306" y="951" on="0"/>
        <pt x="335" y="940" on="0"/>
        <pt x="353" y="916" on="0"/>
        <pt x="358" y="885" on="0"/>
        <pt x="355" y="869" on="1"/>
        <pt x="353" y="858" on="0"/>
        <pt x="342" y="838" on="0"/>
        <pt x="323" y="824" on="0"/>
        <pt x="301" y="819" on="0"/>
      </contour>
      <contour>
        <pt x="85" y="0" on="1"/>
        <pt x="106" y="735" on="1"/>
        <pt x="197" y="735" on="1"/>
        <pt x="161" y="178" on="1"/>
        <pt x="320" y="735" on="1"/>
        <pt x="411" y="735" on="1"/>
        <pt x="385" y="178" on="1"/>
        <pt x="534" y="735" on="1"/>
        <pt x="625" y="735" on="1"/>
        <pt x="402" y="0" on="1"/>
        <pt x="312" y="0" on="1"/>
        <pt x="335" y="551" on="1"/>
        <pt x="176" y="0" on="1"/>
      </contour>
    </TTGlyph>
    <TTGlyph name="Wgrave" xMin="85" yMin="0" xMax="625" yMax="983">
      <contour>
        <pt x="392" y="792" on="1"/>
        <pt x="264" y="927" on="1"/>
        <pt x="339" y="983" on="1"/>
        <pt x="453" y="838" on="1"/>
      </contour>
      <contour>
        <pt x="85" y="0" on="1"/>
        <pt x="106" y="735" on="1"/>
        <pt x="197" y="735" on="1"/>
        <pt x="161" y="178" on="1"/>
        <pt x="320" y="735" on="1"/>
        <pt x="411" y="735" on="1"/>
        <pt x="385" y="178" on="1"/>
        <pt x="534" y="735" on="1"/>
        <pt x="625" y="735" on="1"/>
        <pt x="402" y="0" on="1"/>
        <pt x="312" y="0" on="1"/>
        <pt x="335" y="551" on="1"/>
        <pt x="176" y="0" on="1"/>
      </contour>
    </TTGlyph>
    <TTGlyph name="X" xMin="-25" yMin="0" xMax="634" yMax="735">
      <contour>
        <pt x="-25" y="0" on="1"/>
        <pt x="256" y="372" on="1"/>
        <pt x="97" y="735" on="1"/>
        <pt x="202" y="735" on="1"/>
        <pt x="316" y="452" on="1"/>
        <pt x="529" y="735" on="1"/>
        <pt x="634" y="735" on="1"/>
        <pt x="353" y="363" on="1"/>
        <pt x="512" y="0" on="1"/>
        <pt x="407" y="0" on="1"/>
        <pt x="293" y="283" on="1"/>
        <pt x="80" y="0" on="1"/>
      </contour>
    </TTGlyph>
    <TTGlyph name="Y" xMin="95" yMin="0" xMax="635" yMax="735">
      <contour>
        <pt x="198" y="0" on="1"/>
        <pt x="247" y="294" on="1"/>
        <pt x="95" y="735" on="1"/>
        <pt x="196" y="735" on="1"/>
        <pt x="306" y="391" on="1"/>
        <pt x="534" y="735" on="1"/>
        <pt x="635" y="735" on="1"/>
        <pt x="336" y="284" on="1"/>
        <pt x="289" y="0" on="1"/>
      </contour>
    </TTGlyph>
    <TTGlyph name="Yacute" xMin="95" yMin="0" xMax="635" yMax="988">
      <component glyphName="Y" x="0" y="0" flags="0x1000"/>
      <component glyphName="acutecomb" x="634" y="205" flags="0x1000"/>
    </TTGlyph>
    <TTGlyph name="Ycircumflex" xMin="95" yMin="0" xMax="635" yMax="980">
      <contour>
        <pt x="270" y="791" on="1"/>
        <pt x="203" y="855" on="1"/>
        <pt x="356" y="980" on="1"/>
        <pt x="456" y="980" on="1"/>
        <pt x="563" y="849" on="1"/>
        <pt x="484" y="797" on="1"/>
        <pt x="397" y="921" on="1"/>
      </contour>
      <contour>
        <pt x="198" y="0" on="1"/>
        <pt x="247" y="294" on="1"/>
        <pt x="95" y="735" on="1"/>
        <pt x="196" y="735" on="1"/>
        <pt x="306" y="391" on="1"/>
        <pt x="534" y="735" on="1"/>
        <pt x="635" y="735" on="1"/>
        <pt x="336" y="284" on="1"/>
        <pt x="289" y="0" on="1"/>
      </contour>
    </TTGlyph>
    <TTGlyph name="Ydieresis" xMin="95" yMin="0" xMax="635" yMax="951">
      <contour>
        <pt x="490" y="819" on="1"/>
        <pt x="474" y="819" on="0"/>
        <pt x="445" y="830" on="0"/>
        <pt x="428" y="854" on="0"/>
        <pt x="423" y="885" on="0"/>
        <pt x="425" y="901" on="1"/>
        <pt x="427" y="912" on="0"/>
        <pt x="438" y="932" on="0"/>
        <pt x="457" y="946" on="0"/>
        <pt x="479" y="951" on="0"/>
        <pt x="490" y="951" on="1"/>
        <pt x="506" y="951" on="0"/>
        <pt x="535" y="940" on="0"/>
        <pt x="553" y="916" on="0"/>
        <pt x="558" y="885" on="0"/>
        <pt x="555" y="869" on="1"/>
        <pt x="553" y="858" on="0"/>
        <pt x="542" y="838" on="0"/>
        <pt x="523" y="824" on="0"/>
        <pt x="501" y="819" on="0"/>
      </contour>
      <contour>
        <pt x="290" y="819" on="1"/>
        <pt x="274" y="819" on="0"/>
        <pt x="245" y="830" on="0"/>
        <pt x="228" y="854" on="0"/>
        <pt x="223" y="885" on="0"/>
        <pt x="225" y="901" on="1"/>
        <pt x="227" y="912" on="0"/>
        <pt x="238" y="932" on="0"/>
        <pt x="257" y="946" on="0"/>
        <pt x="279" y="951" on="0"/>
        <pt x="290" y="951" on="1"/>
        <pt x="306" y="951" on="0"/>
        <pt x="335" y="940" on="0"/>
        <pt x="353" y="916" on="0"/>
        <pt x="358" y="885" on="0"/>
        <pt x="355" y="869" on="1"/>
        <pt x="353" y="858" on="0"/>
        <pt x="342" y="838" on="0"/>
        <pt x="323" y="824" on="0"/>
        <pt x="301" y="819" on="0"/>
      </contour>
      <contour>
        <pt x="198" y="0" on="1"/>
        <pt x="247" y="294" on="1"/>
        <pt x="95" y="735" on="1"/>
        <pt x="196" y="735" on="1"/>
        <pt x="306" y="391" on="1"/>
        <pt x="534" y="735" on="1"/>
        <pt x="635" y="735" on="1"/>
        <pt x="336" y="284" on="1"/>
        <pt x="289" y="0" on="1"/>
      </contour>
    </TTGlyph>
    <TTGlyph name="Ygrave" xMin="95" yMin="0" xMax="635" yMax="983">
      <contour>
        <pt x="392" y="792" on="1"/>
        <pt x="264" y="927" on="1"/>
        <pt x="339" y="983" on="1"/>
        <pt x="453" y="838" on="1"/>
      </contour>
      <contour>
        <pt x="198" y="0" on="1"/>
        <pt x="247" y="294" on="1"/>
        <pt x="95" y="735" on="1"/>
        <pt x="196" y="735" on="1"/>
        <pt x="306" y="391" on="1"/>
        <pt x="534" y="735" on="1"/>
        <pt x="635" y="735" on="1"/>
        <pt x="336" y="284" on="1"/>
        <pt x="289" y="0" on="1"/>
      </contour>
    </TTGlyph>
    <TTGlyph name="Z" xMin="0" yMin="0" xMax="609" yMax="735">
      <contour>
        <pt x="0" y="0" on="1"/>
        <pt x="13" y="79" on="1"/>
        <pt x="492" y="656" on="1"/>
        <pt x="109" y="656" on="1"/>
        <pt x="122" y="735" on="1"/>
        <pt x="609" y="735" on="1"/>
        <pt x="596" y="656" on="1"/>
        <pt x="117" y="79" on="1"/>
        <pt x="500" y="79" on="1"/>
        <pt x="487" y="0" on="1"/>
      </contour>
    </TTGlyph>
    <TTGlyph name="Zacute" xMin="0" yMin="0" xMax="609" yMax="988">
      <component glyphName="Z" x="0" y="0" flags="0x1000"/>
      <component glyphName="acutecomb" x="634" y="205" flags="0x1000"/>
    </TTGlyph>
    <TTGlyph name="Zcaron" xMin="0" yMin="0" xMax="609" yMax="987">
      <contour>
        <pt x="326" y="798" on="1"/>
        <pt x="219" y="929" on="1"/>
        <pt x="230" y="936" on="1"/>
        <pt x="298" y="981" on="1"/>
        <pt x="384" y="857" on="1"/>
        <pt x="512" y="987" on="1"/>
        <pt x="579" y="923" on="1"/>
        <pt x="426" y="798" on="1"/>
      </contour>
      <contour>
        <pt x="0" y="0" on="1"/>
        <pt x="13" y="79" on="1"/>
        <pt x="492" y="656" on="1"/>
        <pt x="109" y="656" on="1"/>
        <pt x="122" y="735" on="1"/>
        <pt x="609" y="735" on="1"/>
        <pt x="596" y="656" on="1"/>
        <pt x="117" y="79" on="1"/>
        <pt x="500" y="79" on="1"/>
        <pt x="487" y="0" on="1"/>
      </contour>
    </TTGlyph>
    <TTGlyph name="Zdotaccent" xMin="0" yMin="0" xMax="609" yMax="951">
      <contour>
        <pt x="390" y="819" on="1"/>
        <pt x="374" y="819" on="0"/>
        <pt x="345" y="830" on="0"/>
        <pt x="328" y="854" on="0"/>
        <pt x="323" y="885" on="0"/>
        <pt x="325" y="901" on="1"/>
        <pt x="327" y="912" on="0"/>
        <pt x="338" y="932" on="0"/>
        <pt x="357" y="946" on="0"/>
        <pt x="379" y="951" on="0"/>
        <pt x="390" y="951" on="1"/>
        <pt x="406" y="951" on="0"/>
        <pt x="435" y="940" on="0"/>
        <pt x="453" y="916" on="0"/>
        <pt x="458" y="885" on="0"/>
        <pt x="455" y="869" on="1"/>
        <pt x="453" y="858" on="0"/>
        <pt x="442" y="838" on="0"/>
        <pt x="423" y="824" on="0"/>
        <pt x="401" y="819" on="0"/>
      </contour>
      <contour>
        <pt x="0" y="0" on="1"/>
        <pt x="13" y="79" on="1"/>
        <pt x="492" y="656" on="1"/>
        <pt x="109" y="656" on="1"/>
        <pt x="122" y="735" on="1"/>
        <pt x="609" y="735" on="1"/>
        <pt x="596" y="656" on="1"/>
        <pt x="117" y="79" on="1"/>
        <pt x="500" y="79" on="1"/>
        <pt x="487" y="0" on="1"/>
      </contour>
    </TTGlyph>
</ttFont>
